SplineFontDB: 3.2
FontName: LiberationSerif
FullName: Liberation Serif
FamilyName: Liberation Serif
Weight: Book
Copyright: Digitized data copyright (c) 2010 Google Corporation.\nCopyright (c) 2012 Red Hat, Inc.
Version: 2.1.5
ItalicAngle: 0
UnderlinePosition: -173
UnderlineWidth: 100
Ascent: 1638
Descent: 410
InvalidEm: 0
LayerCount: 2
Layer: 0 1 "Back" 1
Layer: 1 1 "Fore" 0
XUID: [1021 445 290132255 4443462]
FSType: 0
OS2Version: 3
OS2_WeightWidthSlopeOnly: 0
OS2_UseTypoMetrics: 0
CreationTime: 1277108302
ModificationTime: 1633010174
PfmFamily: 17
TTFWeight: 400
TTFWidth: 5
LineGap: 87
VLineGap: 0
Panose: 2 2 6 3 5 4 5 2 3 4
OS2TypoAscent: 1420
OS2TypoAOffset: 0
OS2TypoDescent: -442
OS2TypoDOffset: 0
OS2TypoLinegap: 307
OS2WinAscent: 1825
OS2WinAOffset: 0
OS2WinDescent: 443
OS2WinDOffset: 0
HheadAscent: 1825
HheadAOffset: 0
HheadDescent: -443
HheadDOffset: 0
OS2SubXSize: 1434
OS2SubYSize: 1331
OS2SubXOff: 0
OS2SubYOff: 293
OS2SupXSize: 1434
OS2SupYSize: 1331
OS2SupXOff: 0
OS2SupYOff: 928
OS2StrikeYSize: 100
OS2StrikeYPos: 420
OS2FamilyClass: 261
OS2Vendor: '1ASC'
OS2CodePages: 600001bf.dff70000
OS2UnicodeRanges: e0000aff.500078ff.00000021.00000000
Lookup: 4 1 0 "'dlig' Discretionary Ligatures in Hebrew lookup 0" { "'dlig' Discretionary Ligatures in Hebrew lookup 0 subtable"  } ['dlig' ('hebr' <'dflt' > ) ]
Lookup: 4 1 0 "'ccmp' Glyph Composition/Decomposition in Hebrew lookup 1" { "'ccmp' Glyph Composition/Decomposition in Hebrew lookup 1 subtable"  } ['ccmp' ('hebr' <'dflt' > ) ]
Lookup: 6 1 0 "'ccmp' Glyph Composition/Decomposition in Hebrew lookup 2" { "'ccmp' Glyph Composition/Decomposition in Hebrew lookup 2 subtable"  } ['ccmp' ('hebr' <'dflt' > ) ]
Lookup: 4 0 0 "'ccmp' Glyph Composition/Decomposition lookup 3" { "'ccmp' Glyph Composition/Decomposition lookup 3 subtable"  } ['ccmp' ('grek' <'dflt' > 'latn' <'dflt' > ) ]
Lookup: 4 1 0 "Ligature Substitution lookup 4" { "Ligature Substitution lookup 4 subtable"  } []

StartChar: exclam
Encoding: 33 33 4
Width: 682
GlyphClass: 2
Flags: W
LayerCount: 2
Fore
SplineSet
461 92 m 0,0,1
 461 43 461 43 426.5 7 c 128,-1,2
 392 -29 392 -29 340 -29 c 256,3,4
 288 -29 288 -29 253.5 7 c 128,-1,5
 219 43 219 43 219 92 c 0,6,7
 219 143 219 143 254 178 c 128,-1,8
 289 213 289 213 340 213 c 256,9,10
 391 213 391 213 426 178 c 128,-1,11
 461 143 461 143 461 92 c 0,0,1
231 1341 m 1,12,-1
 449 1341 l 1,13,-1
 387 389 l 1,14,-1
 293 389 l 1,15,-1
 231 1341 l 1,12,-1
EndSplineSet
Validated: 1
EndChar

StartChar: quotedbl
Encoding: 34 34 5
Width: 836
GlyphClass: 2
Flags: W
LayerCount: 2
Fore
SplineSet
512 1341 m 1,0,-1
 709 1341 l 1,1,-1
 647 860 l 1,2,-1
 573 860 l 1,3,-1
 512 1341 l 1,0,-1
127 1341 m 1,4,-1
 324 1341 l 1,5,-1
 262 860 l 1,6,-1
 188 860 l 1,7,-1
 127 1341 l 1,4,-1
EndSplineSet
Validated: 1
EndChar

StartChar: numbersign
Encoding: 35 35 6
Width: 1024
GlyphClass: 2
Flags: W
LayerCount: 2
Fore
SplineSet
987 524 m 1,0,-1
 987 422 l 1,1,-1
 727 422 l 1,2,-1
 649 0 l 1,3,-1
 545 0 l 1,4,-1
 623 422 l 1,5,-1
 313 422 l 1,6,-1
 236 0 l 1,7,-1
 131 0 l 1,8,-1
 209 422 l 1,9,-1
 37 422 l 1,10,-1
 37 524 l 1,11,-1
 229 524 l 1,12,-1
 287 831 l 1,13,-1
 37 831 l 1,14,-1
 37 934 l 1,15,-1
 305 934 l 1,16,-1
 381 1341 l 1,17,-1
 485 1341 l 1,18,-1
 410 934 l 1,19,-1
 719 934 l 1,20,-1
 795 1341 l 1,21,-1
 899 1341 l 1,22,-1
 823 934 l 1,23,-1
 987 934 l 1,24,-1
 987 831 l 1,25,-1
 805 831 l 1,26,-1
 748 524 l 1,27,-1
 987 524 l 1,0,-1
334 524 m 1,28,-1
 643 524 l 1,29,-1
 700 831 l 1,30,-1
 391 831 l 1,31,-1
 334 524 l 1,28,-1
EndSplineSet
Validated: 1
EndChar

StartChar: dollar
Encoding: 36 36 7
Width: 1024
GlyphClass: 2
Flags: W
LayerCount: 2
Fore
SplineSet
481 -20 m 1,0,1
 374 -18 374 -18 258.5 4 c 128,-1,2
 143 26 143 26 88 51 c 1,3,-1
 88 371 l 1,4,-1
 154 371 l 1,5,-1
 188 180 l 1,6,7
 219 139 219 139 305.5 102.5 c 128,-1,8
 392 66 392 66 481 61 c 1,9,-1
 481 627 l 1,10,11
 362 668 362 668 314 691.5 c 128,-1,12
 266 715 266 715 228 744 c 128,-1,13
 190 773 190 773 162.5 812 c 128,-1,14
 135 851 135 851 120.5 901.5 c 128,-1,15
 106 952 106 952 106 1014 c 0,16,17
 106 1158 106 1158 208.5 1249 c 128,-1,18
 311 1340 311 1340 481 1354 c 1,19,-1
 481 1483 l 1,20,-1
 563 1483 l 1,21,-1
 563 1356 l 1,22,23
 716 1350 716 1350 870 1313 c 1,24,-1
 870 1034 l 1,25,-1
 805 1034 l 1,26,-1
 776 1198 l 1,27,28
 746 1226 746 1226 685.5 1247 c 128,-1,29
 625 1268 625 1268 563 1272 c 1,30,-1
 563 795 l 1,31,-1
 658 761 l 1,32,33
 823 700 823 700 892 610.5 c 128,-1,34
 961 521 961 521 961 387 c 0,35,36
 961 212 961 212 853.5 104.5 c 128,-1,37
 746 -3 746 -3 563 -16 c 1,38,-1
 563 -156 l 1,39,-1
 481 -156 l 1,40,-1
 481 -20 l 1,0,1
791 330 m 0,41,42
 791 424 791 424 742.5 485 c 128,-1,43
 694 546 694 546 563 596 c 1,44,-1
 563 66 l 1,45,46
 673 83 673 83 732 149 c 128,-1,47
 791 215 791 215 791 330 c 0,41,42
274 1067 m 0,48,49
 274 1008 274 1008 293.5 966.5 c 128,-1,50
 313 925 313 925 350 894.5 c 128,-1,51
 387 864 387 864 481 825 c 1,52,-1
 481 1268 l 1,53,54
 381 1255 381 1255 327.5 1202 c 128,-1,55
 274 1149 274 1149 274 1067 c 0,48,49
EndSplineSet
Validated: 1
EndChar

StartChar: percent
Encoding: 37 37 8
Width: 1706
GlyphClass: 2
Flags: W
LayerCount: 2
Fore
SplineSet
440 -20 m 1,0,-1
 330 -20 l 1,1,-1
 1278 1362 l 1,2,-1
 1389 1362 l 1,3,-1
 440 -20 l 1,0,-1
721 995 m 0,4,5
 721 623 721 623 391 623 c 0,6,7
 230 623 230 623 150 718 c 128,-1,8
 70 813 70 813 70 995 c 0,9,10
 70 1362 70 1362 397 1362 c 0,11,12
 556 1362 556 1362 638.5 1270 c 128,-1,13
 721 1178 721 1178 721 995 c 0,4,5
565 995 m 0,14,15
 565 1147 565 1147 523.5 1217.5 c 128,-1,16
 482 1288 482 1288 391 1288 c 0,17,18
 304 1288 304 1288 264.5 1221.5 c 128,-1,19
 225 1155 225 1155 225 995 c 0,20,21
 225 831 225 831 265 763.5 c 128,-1,22
 305 696 305 696 391 696 c 0,23,24
 481 696 481 696 523 767.5 c 128,-1,25
 565 839 565 839 565 995 c 0,14,15
1636 346 m 0,26,27
 1636 -27 1636 -27 1307 -27 c 0,28,29
 1146 -27 1146 -27 1065.5 68 c 128,-1,30
 985 163 985 163 985 346 c 0,31,32
 985 524 985 524 1066 618.5 c 128,-1,33
 1147 713 1147 713 1313 713 c 0,34,35
 1472 713 1472 713 1554 621 c 128,-1,36
 1636 529 1636 529 1636 346 c 0,26,27
1481 346 m 0,37,38
 1481 498 1481 498 1439.5 568.5 c 128,-1,39
 1398 639 1398 639 1307 639 c 0,40,41
 1220 639 1220 639 1180.5 572.5 c 128,-1,42
 1141 506 1141 506 1141 346 c 0,43,44
 1141 182 1141 182 1181 114.5 c 128,-1,45
 1221 47 1221 47 1307 47 c 0,46,47
 1397 47 1397 47 1439 118.5 c 128,-1,48
 1481 190 1481 190 1481 346 c 0,37,38
EndSplineSet
Validated: 1
EndChar

StartChar: ampersand
Encoding: 38 38 9
Width: 1593
GlyphClass: 2
Flags: W
LayerCount: 2
Fore
SplineSet
989 1083 m 0,0,1
 989 1005 989 1005 955.5 948 c 128,-1,2
 922 891 922 891 861 847.5 c 128,-1,3
 800 804 800 804 657 748 c 1,4,-1
 1079 364 l 1,5,6
 1176 562 1176 562 1182 727 c 1,7,-1
 1040 754 l 1,8,-1
 1040 807 l 1,9,-1
 1497 807 l 1,10,-1
 1497 754 l 1,11,-1
 1358 727 l 1,12,13
 1282 462 1282 462 1163 286 c 1,14,-1
 1391 78 l 1,15,-1
 1556 53 l 1,16,-1
 1556 0 l 1,17,-1
 1212 0 l 1,18,-1
 1041 155 l 1,19,20
 937 62 937 62 823.5 21 c 128,-1,21
 710 -20 710 -20 575 -20 c 0,22,23
 327 -20 327 -20 202.5 76.5 c 128,-1,24
 78 173 78 173 78 356 c 0,25,26
 78 453 78 453 114 523 c 128,-1,27
 150 593 150 593 212 642.5 c 128,-1,28
 274 692 274 692 408 743 c 1,29,30
 257 889 257 889 257 1070 c 0,31,32
 257 1213 257 1213 353 1287.5 c 128,-1,33
 449 1362 449 1362 631 1362 c 0,34,35
 805 1362 805 1362 897 1291 c 128,-1,36
 989 1220 989 1220 989 1083 c 0,0,1
602 66 m 0,37,38
 819 66 819 66 972 219 c 1,39,-1
 473 676 l 1,40,41
 368 631 368 631 321 554 c 128,-1,42
 274 477 274 477 274 367 c 0,43,44
 274 222 274 222 358.5 144 c 128,-1,45
 443 66 443 66 602 66 c 0,37,38
434 1090 m 0,46,47
 434 927 434 927 588 811 c 1,48,49
 685 847 685 847 727.5 881.5 c 128,-1,50
 770 916 770 916 791.5 966 c 128,-1,51
 813 1016 813 1016 813 1090 c 0,52,53
 813 1282 813 1282 631 1282 c 0,54,55
 526 1282 526 1282 480 1234 c 128,-1,56
 434 1186 434 1186 434 1090 c 0,46,47
EndSplineSet
Validated: 1
EndChar

StartChar: quotesingle
Encoding: 39 39 10
Width: 369
GlyphClass: 2
Flags: W
LayerCount: 2
Fore
SplineSet
86 1341 m 1,0,-1
 283 1341 l 1,1,-1
 221 860 l 1,2,-1
 147 860 l 1,3,-1
 86 1341 l 1,0,-1
EndSplineSet
Validated: 1
EndChar

StartChar: parenleft
Encoding: 40 40 11
Width: 682
GlyphClass: 2
Flags: W
LayerCount: 2
Fore
SplineSet
283 494 m 0,0,1
 283 234 283 234 318 79.5 c 128,-1,2
 353 -75 353 -75 428 -181 c 128,-1,3
 503 -287 503 -287 616 -352 c 1,4,-1
 616 -436 l 1,5,6
 418 -331 418 -331 306.5 -206.5 c 128,-1,7
 195 -82 195 -82 142.5 86.5 c 128,-1,8
 90 255 90 255 90 494 c 0,9,10
 90 732 90 732 142 899.5 c 128,-1,11
 194 1067 194 1067 305 1191 c 128,-1,12
 416 1315 416 1315 616 1421 c 1,13,-1
 616 1337 l 1,14,15
 494 1267 494 1267 422 1157.5 c 128,-1,16
 350 1048 350 1048 316.5 902 c 128,-1,17
 283 756 283 756 283 494 c 0,0,1
EndSplineSet
Validated: 1
EndChar

StartChar: parenright
Encoding: 41 41 12
Width: 682
GlyphClass: 2
Flags: W
LayerCount: 2
Fore
SplineSet
66 -436 m 1,0,-1
 66 -352 l 1,1,2
 179 -287 179 -287 254 -180.5 c 128,-1,3
 329 -74 329 -74 364 80.5 c 128,-1,4
 399 235 399 235 399 494 c 0,5,6
 399 756 399 756 365.5 902 c 128,-1,7
 332 1048 332 1048 260 1157.5 c 128,-1,8
 188 1267 188 1267 66 1337 c 1,9,-1
 66 1421 l 1,10,11
 266 1314 266 1314 377 1190.5 c 128,-1,12
 488 1067 488 1067 540 899.5 c 128,-1,13
 592 732 592 732 592 494 c 256,14,15
 592 256 592 256 540 87.5 c 128,-1,16
 488 -81 488 -81 377 -205 c 128,-1,17
 266 -329 266 -329 66 -436 c 1,0,-1
EndSplineSet
Validated: 1
EndChar

StartChar: asterisk
Encoding: 42 42 13
Width: 1024
GlyphClass: 2
Flags: W
LayerCount: 2
Fore
SplineSet
100 1065 m 1,0,-1
 164 1208 l 1,1,-1
 479 1014 l 1,2,-1
 436 1341 l 1,3,-1
 592 1341 l 1,4,-1
 545 1014 l 1,5,-1
 862 1204 l 1,6,-1
 926 1063 l 1,7,-1
 594 965 l 1,8,-1
 926 868 l 1,9,-1
 862 727 l 1,10,-1
 545 915 l 1,11,-1
 592 590 l 1,12,-1
 436 590 l 1,13,-1
 479 918 l 1,14,-1
 164 723 l 1,15,-1
 100 866 l 1,16,-1
 428 965 l 1,17,-1
 100 1065 l 1,0,-1
EndSplineSet
Validated: 1
EndChar

StartChar: plus
Encoding: 43 43 14
Width: 1155
GlyphClass: 2
Flags: W
LayerCount: 2
Fore
SplineSet
629 629 m 1,0,-1
 629 203 l 1,1,-1
 526 203 l 1,2,-1
 526 629 l 1,3,-1
 102 629 l 1,4,-1
 102 731 l 1,5,-1
 526 731 l 1,6,-1
 526 1157 l 1,7,-1
 629 1157 l 1,8,-1
 629 731 l 1,9,-1
 1055 731 l 1,10,-1
 1055 629 l 1,11,-1
 629 629 l 1,0,-1
EndSplineSet
Validated: 1
EndChar

StartChar: comma
Encoding: 44 44 15
Width: 512
GlyphClass: 2
Flags: W
LayerCount: 2
Fore
SplineSet
383 49 m 0,0,1
 383 -88 383 -88 303.5 -180.5 c 128,-1,2
 224 -273 224 -273 78 -315 c 1,3,-1
 78 -238 l 1,4,5
 254 -182 254 -182 254 -70 c 0,6,7
 254 -50 254 -50 239 -34 c 128,-1,8
 224 -18 224 -18 187 1 c 0,9,10
 119 36 119 36 119 100 c 0,11,12
 119 154 119 154 153 182.5 c 128,-1,13
 187 211 187 211 240 211 c 0,14,15
 304 211 304 211 343.5 165 c 128,-1,16
 383 119 383 119 383 49 c 0,0,1
EndSplineSet
Validated: 1
EndChar

StartChar: hyphen
Encoding: 45 45 16
Width: 682
GlyphClass: 2
Flags: W
LayerCount: 2
Fore
SplineSet
76 406 m 1,0,-1
 76 559 l 1,1,-1
 608 559 l 1,2,-1
 608 406 l 1,3,-1
 76 406 l 1,0,-1
EndSplineSet
Validated: 1
EndChar

StartChar: period
Encoding: 46 46 17
Width: 512
GlyphClass: 2
Flags: W
LayerCount: 2
Fore
SplineSet
377 92 m 0,0,1
 377 43 377 43 342.5 7 c 128,-1,2
 308 -29 308 -29 256 -29 c 256,3,4
 204 -29 204 -29 169.5 7 c 128,-1,5
 135 43 135 43 135 92 c 0,6,7
 135 143 135 143 170 178 c 128,-1,8
 205 213 205 213 256 213 c 256,9,10
 307 213 307 213 342 178 c 128,-1,11
 377 143 377 143 377 92 c 0,0,1
EndSplineSet
Validated: 1
EndChar

StartChar: slash
Encoding: 47 47 18
Width: 569
GlyphClass: 2
Flags: W
LayerCount: 2
Fore
SplineSet
100 -20 m 1,0,-1
 0 -20 l 1,1,-1
 471 1350 l 1,2,-1
 569 1350 l 1,3,-1
 100 -20 l 1,0,-1
EndSplineSet
Validated: 1
EndChar

StartChar: zero
Encoding: 48 48 19
Width: 1024
GlyphClass: 2
Flags: W
LayerCount: 2
Fore
SplineSet
946 676 m 0,0,1
 946 -20 946 -20 506 -20 c 0,2,3
 294 -20 294 -20 186 158 c 128,-1,4
 78 336 78 336 78 676 c 0,5,6
 78 1009 78 1009 186 1185.5 c 128,-1,7
 294 1362 294 1362 514 1362 c 0,8,9
 726 1362 726 1362 836 1187.5 c 128,-1,10
 946 1013 946 1013 946 676 c 0,0,1
762 676 m 0,11,12
 762 998 762 998 701 1140 c 128,-1,13
 640 1282 640 1282 506 1282 c 0,14,15
 376 1282 376 1282 319 1148 c 128,-1,16
 262 1014 262 1014 262 676 c 0,17,18
 262 336 262 336 320 197.5 c 128,-1,19
 378 59 378 59 506 59 c 0,20,21
 638 59 638 59 700 204.5 c 128,-1,22
 762 350 762 350 762 676 c 0,11,12
EndSplineSet
Validated: 1
Substitution2: "'subs' Subscript lookup 6 subtable" zero.subs
EndChar

StartChar: one
Encoding: 49 49 20
Width: 1024
GlyphClass: 2
Flags: W
LayerCount: 2
Fore
SplineSet
627 80 m 1,0,-1
 901 53 l 1,1,-1
 901 0 l 1,2,-1
 180 0 l 1,3,-1
 180 53 l 1,4,-1
 455 80 l 1,5,-1
 455 1174 l 1,6,-1
 184 1077 l 1,7,-1
 184 1130 l 1,8,-1
 575 1352 l 1,9,-1
 627 1352 l 1,10,-1
 627 80 l 1,0,-1
EndSplineSet
Validated: 1
Substitution2: "'subs' Subscript lookup 6 subtable" one.subs
EndChar

StartChar: two
Encoding: 50 50 21
Width: 1024
GlyphClass: 2
Flags: W
LayerCount: 2
Fore
SplineSet
911 0 m 1,0,-1
 90 0 l 1,1,-1
 90 147 l 1,2,-1
 276 316 l 1,3,4
 455 473 455 473 539 570 c 128,-1,5
 623 667 623 667 659.5 770 c 128,-1,6
 696 873 696 873 696 1006 c 0,7,8
 696 1136 696 1136 637 1204 c 128,-1,9
 578 1272 578 1272 444 1272 c 0,10,11
 391 1272 391 1272 335 1257.5 c 128,-1,12
 279 1243 279 1243 236 1219 c 1,13,-1
 201 1055 l 1,14,-1
 135 1055 l 1,15,-1
 135 1313 l 1,16,17
 317 1356 317 1356 444 1356 c 0,18,19
 664 1356 664 1356 774.5 1264.5 c 128,-1,20
 885 1173 885 1173 885 1006 c 0,21,22
 885 894 885 894 841.5 794.5 c 128,-1,23
 798 695 798 695 708 596.5 c 128,-1,24
 618 498 618 498 410 321 c 0,25,26
 321 245 321 245 221 154 c 1,27,-1
 911 154 l 1,28,-1
 911 0 l 1,0,-1
EndSplineSet
Validated: 1
Substitution2: "'subs' Subscript lookup 6 subtable" two.subs
EndChar

StartChar: three
Encoding: 51 51 22
Width: 1024
GlyphClass: 2
Flags: W
LayerCount: 2
Fore
SplineSet
944 365 m 0,0,1
 944 184 944 184 820 82 c 128,-1,2
 696 -20 696 -20 469 -20 c 0,3,4
 279 -20 279 -20 109 23 c 1,5,-1
 98 305 l 1,6,-1
 164 305 l 1,7,-1
 209 117 l 1,8,9
 248 95 248 95 319.5 79 c 128,-1,10
 391 63 391 63 453 63 c 0,11,12
 610 63 610 63 685 135 c 128,-1,13
 760 207 760 207 760 375 c 0,14,15
 760 507 760 507 691 575.5 c 128,-1,16
 622 644 622 644 477 651 c 1,17,-1
 334 659 l 1,18,-1
 334 741 l 1,19,-1
 477 750 l 1,20,21
 590 756 590 756 644 820 c 128,-1,22
 698 884 698 884 698 1014 c 0,23,24
 698 1149 698 1149 639.5 1210.5 c 128,-1,25
 581 1272 581 1272 453 1272 c 0,26,27
 400 1272 400 1272 342 1257.5 c 128,-1,28
 284 1243 284 1243 240 1219 c 1,29,-1
 205 1055 l 1,30,-1
 139 1055 l 1,31,-1
 139 1313 l 1,32,33
 238 1339 238 1339 310 1347.5 c 128,-1,34
 382 1356 382 1356 453 1356 c 0,35,36
 883 1356 883 1356 883 1026 c 0,37,38
 883 887 883 887 806.5 804.5 c 128,-1,39
 730 722 730 722 590 702 c 1,40,41
 772 681 772 681 858 597.5 c 128,-1,42
 944 514 944 514 944 365 c 0,0,1
EndSplineSet
Validated: 1
Substitution2: "'subs' Subscript lookup 6 subtable" three.subs
EndChar

StartChar: four
Encoding: 52 52 23
Width: 1024
GlyphClass: 2
Flags: W
LayerCount: 2
Fore
SplineSet
810 295 m 1,0,-1
 810 0 l 1,1,-1
 638 0 l 1,2,-1
 638 295 l 1,3,-1
 40 295 l 1,4,-1
 40 428 l 1,5,-1
 695 1348 l 1,6,-1
 810 1348 l 1,7,-1
 810 438 l 1,8,-1
 992 438 l 1,9,-1
 992 295 l 1,10,-1
 810 295 l 1,0,-1
638 1113 m 1,11,-1
 633 1113 l 1,12,-1
 153 438 l 1,13,-1
 638 438 l 1,14,-1
 638 1113 l 1,11,-1
EndSplineSet
Validated: 1
Substitution2: "'subs' Subscript lookup 6 subtable" four.subs
Substitution2: "'sups' Superscript lookup 5 subtable" four.sups
EndChar

StartChar: five
Encoding: 53 53 24
Width: 1024
GlyphClass: 2
Flags: W
LayerCount: 2
Fore
SplineSet
485 784 m 0,0,1
 717 784 717 784 830.5 689 c 128,-1,2
 944 594 944 594 944 399 c 0,3,4
 944 197 944 197 821 88.5 c 128,-1,5
 698 -20 698 -20 469 -20 c 0,6,7
 279 -20 279 -20 130 23 c 1,8,-1
 119 305 l 1,9,-1
 185 305 l 1,10,-1
 230 117 l 1,11,12
 274 93 274 93 335.5 78 c 128,-1,13
 397 63 397 63 453 63 c 0,14,15
 611 63 611 63 685.5 137.5 c 128,-1,16
 760 212 760 212 760 389 c 0,17,18
 760 513 760 513 728 576.5 c 128,-1,19
 696 640 696 640 626 670 c 128,-1,20
 556 700 556 700 438 700 c 0,21,22
 347 700 347 700 260 676 c 1,23,-1
 164 676 l 1,24,-1
 164 1341 l 1,25,-1
 844 1341 l 1,26,-1
 844 1188 l 1,27,-1
 254 1188 l 1,28,-1
 254 760 l 1,29,30
 362 784 362 784 485 784 c 0,0,1
EndSplineSet
Validated: 1
Substitution2: "'subs' Subscript lookup 6 subtable" five.subs
Substitution2: "'sups' Superscript lookup 5 subtable" five.sups
EndChar

StartChar: six
Encoding: 54 54 25
Width: 1024
GlyphClass: 2
Flags: W
LayerCount: 2
Fore
SplineSet
963 416 m 0,0,1
 963 207 963 207 857.5 93.5 c 128,-1,2
 752 -20 752 -20 553 -20 c 0,3,4
 327 -20 327 -20 207.5 156 c 128,-1,5
 88 332 88 332 88 662 c 0,6,7
 88 878 88 878 151 1035 c 128,-1,8
 214 1192 214 1192 327.5 1274 c 128,-1,9
 441 1356 441 1356 590 1356 c 0,10,11
 736 1356 736 1356 881 1321 c 1,12,-1
 881 1090 l 1,13,-1
 815 1090 l 1,14,-1
 780 1227 l 1,15,16
 747 1245 747 1245 691 1258.5 c 128,-1,17
 635 1272 635 1272 590 1272 c 0,18,19
 444 1272 444 1272 362.5 1130.5 c 128,-1,20
 281 989 281 989 273 717 c 1,21,22
 436 803 436 803 600 803 c 0,23,24
 777 803 777 803 870 703.5 c 128,-1,25
 963 604 963 604 963 416 c 0,0,1
549 59 m 0,26,27
 670 59 670 59 724 137.5 c 128,-1,28
 778 216 778 216 778 397 c 0,29,30
 778 561 778 561 726.5 634 c 128,-1,31
 675 707 675 707 563 707 c 0,32,33
 426 707 426 707 272 657 c 1,34,35
 272 352 272 352 341 205.5 c 128,-1,36
 410 59 410 59 549 59 c 0,26,27
EndSplineSet
Validated: 1
Substitution2: "'subs' Subscript lookup 6 subtable" six.subs
Substitution2: "'sups' Superscript lookup 5 subtable" six.sups
EndChar

StartChar: seven
Encoding: 55 55 26
Width: 1024
GlyphClass: 2
Flags: W
LayerCount: 2
Fore
SplineSet
201 1024 m 1,0,-1
 135 1024 l 1,1,-1
 135 1341 l 1,2,-1
 965 1341 l 1,3,-1
 965 1264 l 1,4,-1
 367 0 l 1,5,-1
 238 0 l 1,6,-1
 825 1188 l 1,7,-1
 236 1188 l 1,8,-1
 201 1024 l 1,0,-1
EndSplineSet
Validated: 1
Substitution2: "'subs' Subscript lookup 6 subtable" seven.subs
Substitution2: "'sups' Superscript lookup 5 subtable" seven.sups
EndChar

StartChar: eight
Encoding: 56 56 27
Width: 1024
GlyphClass: 2
Flags: W
LayerCount: 2
Fore
SplineSet
905 1014 m 0,0,1
 905 904 905 904 851.5 827.5 c 128,-1,2
 798 751 798 751 707 711 c 1,3,4
 821 669 821 669 883.5 579.5 c 128,-1,5
 946 490 946 490 946 362 c 0,6,7
 946 172 946 172 839 76 c 128,-1,8
 732 -20 732 -20 506 -20 c 0,9,10
 78 -20 78 -20 78 362 c 0,11,12
 78 495 78 495 142 582.5 c 128,-1,13
 206 670 206 670 315 711 c 1,14,15
 228 751 228 751 173.5 827 c 128,-1,16
 119 903 119 903 119 1014 c 0,17,18
 119 1180 119 1180 220.5 1271 c 128,-1,19
 322 1362 322 1362 514 1362 c 0,20,21
 700 1362 700 1362 802.5 1271.5 c 128,-1,22
 905 1181 905 1181 905 1014 c 0,0,1
766 362 m 0,23,24
 766 522 766 522 703.5 594 c 128,-1,25
 641 666 641 666 506 666 c 0,26,27
 374 666 374 666 316 597.5 c 128,-1,28
 258 529 258 529 258 362 c 0,29,30
 258 193 258 193 317 126 c 128,-1,31
 376 59 376 59 506 59 c 0,32,33
 639 59 639 59 702.5 128.5 c 128,-1,34
 766 198 766 198 766 362 c 0,23,24
725 1014 m 0,35,36
 725 1152 725 1152 671 1217 c 128,-1,37
 617 1282 617 1282 508 1282 c 0,38,39
 402 1282 402 1282 350.5 1219 c 128,-1,40
 299 1156 299 1156 299 1014 c 0,41,42
 299 875 299 875 349 814.5 c 128,-1,43
 399 754 399 754 508 754 c 0,44,45
 620 754 620 754 672.5 815.5 c 128,-1,46
 725 877 725 877 725 1014 c 0,35,36
EndSplineSet
Validated: 1
Substitution2: "'subs' Subscript lookup 6 subtable" eight.subs
Substitution2: "'sups' Superscript lookup 5 subtable" eight.sups
EndChar

StartChar: nine
Encoding: 57 57 28
Width: 1024
GlyphClass: 2
Flags: W
LayerCount: 2
Fore
SplineSet
66 932 m 0,0,1
 66 1134 66 1134 179 1245 c 128,-1,2
 292 1356 292 1356 498 1356 c 0,3,4
 727 1356 727 1356 833.5 1191 c 128,-1,5
 940 1026 940 1026 940 674 c 0,6,7
 940 337 940 337 803 158.5 c 128,-1,8
 666 -20 666 -20 418 -20 c 0,9,10
 255 -20 255 -20 119 14 c 1,11,-1
 119 246 l 1,12,-1
 184 246 l 1,13,-1
 219 102 l 1,14,15
 251 87 251 87 305 75 c 128,-1,16
 359 63 359 63 414 63 c 0,17,18
 574 63 574 63 660 203.5 c 128,-1,19
 746 344 746 344 755 617 c 1,20,21
 603 532 603 532 446 532 c 0,22,23
 269 532 269 532 167.5 637.5 c 128,-1,24
 66 743 66 743 66 932 c 0,0,1
500 1276 m 0,25,26
 250 1276 250 1276 250 928 c 0,27,28
 250 775 250 775 310 702 c 128,-1,29
 370 629 370 629 496 629 c 0,30,31
 625 629 625 629 756 682 c 1,32,33
 756 989 756 989 695.5 1132.5 c 128,-1,34
 635 1276 635 1276 500 1276 c 0,25,26
EndSplineSet
Validated: 1
Substitution2: "'subs' Subscript lookup 6 subtable" nine.subs
Substitution2: "'sups' Superscript lookup 5 subtable" nine.sups
EndChar

StartChar: colon
Encoding: 58 58 29
Width: 569
GlyphClass: 2
Flags: W
LayerCount: 2
Fore
SplineSet
403 92 m 0,0,1
 403 43 403 43 368.5 7 c 128,-1,2
 334 -29 334 -29 283 -29 c 0,3,4
 231 -29 231 -29 196.5 7 c 128,-1,5
 162 43 162 43 162 92 c 0,6,7
 162 143 162 143 197 178 c 128,-1,8
 232 213 232 213 283 213 c 0,9,10
 333 213 333 213 368 178.5 c 128,-1,11
 403 144 403 144 403 92 c 0,0,1
403 840 m 0,12,13
 403 789 403 789 368 754 c 128,-1,14
 333 719 333 719 283 719 c 0,15,16
 232 719 232 719 197 754 c 128,-1,17
 162 789 162 789 162 840 c 0,18,19
 162 889 162 889 196.5 925 c 128,-1,20
 231 961 231 961 283 961 c 0,21,22
 334 961 334 961 368.5 925 c 128,-1,23
 403 889 403 889 403 840 c 0,12,13
EndSplineSet
Validated: 1
EndChar

StartChar: semicolon
Encoding: 59 59 30
Width: 569
GlyphClass: 2
Flags: W
LayerCount: 2
Fore
SplineSet
403 840 m 0,0,1
 403 789 403 789 368 754 c 128,-1,2
 333 719 333 719 283 719 c 0,3,4
 232 719 232 719 197 754 c 128,-1,5
 162 789 162 789 162 840 c 0,6,7
 162 889 162 889 196.5 925 c 128,-1,8
 231 961 231 961 283 961 c 0,9,10
 334 961 334 961 368.5 925 c 128,-1,11
 403 889 403 889 403 840 c 0,0,1
412 49 m 0,12,13
 412 -88 412 -88 332.5 -180.5 c 128,-1,14
 253 -273 253 -273 106 -315 c 1,15,-1
 106 -238 l 1,16,17
 283 -182 283 -182 283 -70 c 0,18,19
 283 -49 283 -49 267 -33 c 128,-1,20
 251 -17 251 -17 215 1 c 0,21,22
 147 35 147 35 147 100 c 0,23,24
 147 154 147 154 181.5 182.5 c 128,-1,25
 216 211 216 211 268 211 c 0,26,27
 332 211 332 211 372 165.5 c 128,-1,28
 412 120 412 120 412 49 c 0,12,13
EndSplineSet
Validated: 1
EndChar

StartChar: less
Encoding: 60 60 31
Width: 1155
GlyphClass: 2
Flags: W
LayerCount: 2
Fore
SplineSet
102 655 m 1,0,-1
 102 705 l 1,1,-1
 1055 1174 l 1,2,-1
 1055 1071 l 1,3,-1
 246 680 l 1,4,-1
 1055 289 l 1,5,-1
 1055 186 l 1,6,-1
 102 655 l 1,0,-1
EndSplineSet
Validated: 1
EndChar

StartChar: equal
Encoding: 61 61 32
Width: 1155
GlyphClass: 2
Flags: W
LayerCount: 2
Fore
SplineSet
1055 526 m 1,0,-1
 1055 424 l 1,1,-1
 102 424 l 1,2,-1
 102 526 l 1,3,-1
 1055 526 l 1,0,-1
1055 936 m 1,4,-1
 1055 834 l 1,5,-1
 102 834 l 1,6,-1
 102 936 l 1,7,-1
 1055 936 l 1,4,-1
EndSplineSet
Validated: 1
EndChar

StartChar: greater
Encoding: 62 62 33
Width: 1155
GlyphClass: 2
Flags: W
LayerCount: 2
Fore
SplineSet
104 186 m 1,0,-1
 104 289 l 1,1,-1
 913 680 l 1,2,-1
 104 1071 l 1,3,-1
 104 1174 l 1,4,-1
 1057 705 l 1,5,-1
 1057 655 l 1,6,-1
 104 186 l 1,0,-1
EndSplineSet
Validated: 1
EndChar

StartChar: question
Encoding: 63 63 34
Width: 909
GlyphClass: 2
Flags: W
LayerCount: 2
Fore
SplineSet
440 350 m 1,0,-1
 360 350 l 1,1,-1
 334 684 l 1,2,-1
 477 713 l 2,3,4
 563 730 563 730 602 800 c 128,-1,5
 641 870 641 870 641 1004 c 0,6,7
 641 1151 641 1151 588 1211.5 c 128,-1,8
 535 1272 535 1272 401 1272 c 0,9,10
 289 1272 289 1272 207 1223 c 1,11,-1
 172 1059 l 1,12,-1
 106 1059 l 1,13,-1
 106 1313 l 1,14,15
 264 1356 264 1356 401 1356 c 0,16,17
 825 1356 825 1356 825 1016 c 0,18,19
 825 853 825 853 744.5 754 c 128,-1,20
 664 655 664 655 510 623 c 1,21,-1
 453 610 l 1,22,-1
 440 350 l 1,0,-1
530 92 m 0,23,24
 530 43 530 43 495.5 7 c 128,-1,25
 461 -29 461 -29 410 -29 c 0,26,27
 358 -29 358 -29 323.5 7 c 128,-1,28
 289 43 289 43 289 92 c 0,29,30
 289 143 289 143 324 178 c 128,-1,31
 359 213 359 213 410 213 c 0,32,33
 460 213 460 213 495 178.5 c 128,-1,34
 530 144 530 144 530 92 c 0,23,24
EndSplineSet
Validated: 1
EndChar

StartChar: at
Encoding: 64 64 35
Width: 1886
GlyphClass: 2
Flags: W
LayerCount: 2
Fore
SplineSet
1458 -184 m 1,0,1
 1317 -294 1317 -294 1173.5 -341.5 c 128,-1,2
 1030 -389 1030 -389 864 -389 c 0,3,4
 639 -389 639 -389 467.5 -294.5 c 128,-1,5
 296 -200 296 -200 202.5 -28 c 128,-1,6
 109 144 109 144 109 362 c 0,7,8
 109 646 109 646 234.5 876 c 128,-1,9
 360 1106 360 1106 581.5 1235 c 128,-1,10
 803 1364 803 1364 1073 1364 c 0,11,12
 1409 1364 1409 1364 1593.5 1203 c 128,-1,13
 1778 1042 1778 1042 1778 752 c 0,14,15
 1778 562 1778 562 1681 394.5 c 128,-1,16
 1584 227 1584 227 1419 126 c 128,-1,17
 1254 25 1254 25 1075 25 c 0,18,19
 1010 25 1010 25 1010 76 c 0,20,21
 1010 126 1010 126 1018 201 c 1,22,23
 931 114 931 114 847 69.5 c 128,-1,24
 763 25 763 25 696 25 c 0,25,26
 624 25 624 25 584.5 79.5 c 128,-1,27
 545 134 545 134 545 225 c 0,28,29
 545 344 545 344 575.5 457.5 c 128,-1,30
 606 571 606 571 661.5 659 c 128,-1,31
 717 747 717 747 800.5 808.5 c 128,-1,32
 884 870 884 870 964 892.5 c 128,-1,33
 1044 915 1044 915 1174 915 c 2,34,-1
 1210 915 l 2,35,36
 1248 915 1248 915 1296 909 c 1,37,-1
 1182 379 l 2,38,39
 1174 344 1174 344 1166.5 287 c 128,-1,40
 1159 230 1159 230 1159 205 c 0,41,42
 1159 168 1159 168 1177.5 155.5 c 128,-1,43
 1196 143 1196 143 1233 143 c 0,44,45
 1349 143 1349 143 1445 224.5 c 128,-1,46
 1541 306 1541 306 1597 451 c 128,-1,47
 1653 596 1653 596 1653 750 c 0,48,49
 1653 1002 1653 1002 1497 1142 c 128,-1,50
 1341 1282 1341 1282 1067 1282 c 0,51,52
 834 1282 834 1282 647.5 1168.5 c 128,-1,53
 461 1055 461 1055 353.5 840.5 c 128,-1,54
 246 626 246 626 246 365 c 0,55,56
 246 170 246 170 323.5 18 c 128,-1,57
 401 -134 401 -134 548 -219.5 c 128,-1,58
 695 -305 695 -305 895 -305 c 0,59,60
 1043 -305 1043 -305 1167.5 -266.5 c 128,-1,61
 1292 -228 1292 -228 1425 -133 c 1,62,-1
 1458 -184 l 1,0,1
1139 807 m 1,63,-1
 1090 811 l 1,64,65
 960 811 960 811 872.5 766.5 c 128,-1,66
 785 722 785 722 732.5 590 c 128,-1,67
 680 458 680 458 680 309 c 256,68,69
 680 160 680 160 760 160 c 0,70,71
 816 160 816 160 889.5 191 c 128,-1,72
 963 222 963 222 1024 274 c 1,73,-1
 1139 807 l 1,63,-1
EndSplineSet
Validated: 1
EndChar

StartChar: A
Encoding: 65 65 36
Width: 1479
GlyphClass: 2
Flags: W
AnchorPoint: "bottom" 692 -2 basechar 0
AnchorPoint: "top" 732 1350 basechar 0
LayerCount: 2
Fore
SplineSet
461 53 m 1,0,-1
 461 0 l 1,1,-1
 20 0 l 1,2,-1
 20 53 l 1,3,-1
 172 80 l 1,4,-1
 629 1352 l 1,5,-1
 819 1352 l 1,6,-1
 1294 80 l 1,7,-1
 1464 53 l 1,8,-1
 1464 0 l 1,9,-1
 897 0 l 1,10,-1
 897 53 l 1,11,-1
 1077 80 l 1,12,-1
 944 467 l 1,13,-1
 416 467 l 1,14,-1
 281 80 l 1,15,-1
 461 53 l 1,0,-1
676 1208 m 1,16,-1
 446 557 l 1,17,-1
 913 557 l 1,18,-1
 676 1208 l 1,16,-1
EndSplineSet
EndChar

StartChar: B
Encoding: 66 66 37
Width: 1366
GlyphClass: 2
Flags: W
AnchorPoint: "bottom" 639 -7 basechar 0
AnchorPoint: "top" 653 1340 basechar 0
LayerCount: 2
Fore
SplineSet
958 1016 m 0,0,1
 958 1139 958 1139 881 1195 c 128,-1,2
 804 1251 804 1251 631 1251 c 2,3,-1
 424 1251 l 1,4,-1
 424 744 l 1,5,-1
 643 744 l 2,6,7
 805 744 805 744 881.5 808 c 128,-1,8
 958 872 958 872 958 1016 c 0,0,1
1059 382 m 0,9,10
 1059 523 1059 523 965 588.5 c 128,-1,11
 871 654 871 654 664 654 c 2,12,-1
 424 654 l 1,13,-1
 424 90 l 1,14,15
 562 84 562 84 718 84 c 0,16,17
 889 84 889 84 974 156.5 c 128,-1,18
 1059 229 1059 229 1059 382 c 0,9,10
59 0 m 1,19,-1
 59 53 l 1,20,-1
 231 80 l 1,21,-1
 231 1262 l 1,22,-1
 59 1288 l 1,23,-1
 59 1341 l 1,24,-1
 672 1341 l 2,25,26
 927 1341 927 1341 1045 1265.5 c 128,-1,27
 1163 1190 1163 1190 1163 1026 c 0,28,29
 1163 908 1163 908 1090.5 825 c 128,-1,30
 1018 742 1018 742 887 714 c 1,31,32
 1068 695 1068 695 1167 608.5 c 128,-1,33
 1266 522 1266 522 1266 386 c 0,34,35
 1266 193 1266 193 1132.5 93.5 c 128,-1,36
 999 -6 999 -6 743 -6 c 1,37,-1
 315 0 l 1,38,-1
 59 0 l 1,19,-1
EndSplineSet
EndChar

StartChar: C
Encoding: 67 67 38
Width: 1366
GlyphClass: 2
Flags: W
AnchorPoint: "bottom" 765 -23 basechar 0
AnchorPoint: "top" 797 1355 basechar 0
LayerCount: 2
Fore
SplineSet
774 -20 m 0,0,1
 448 -20 448 -20 266 157.5 c 128,-1,2
 84 335 84 335 84 655 c 0,3,4
 84 1001 84 1001 259 1178.5 c 128,-1,5
 434 1356 434 1356 778 1356 c 0,6,7
 987 1356 987 1356 1227 1305 c 1,8,-1
 1233 1012 l 1,9,-1
 1167 1012 l 1,10,-1
 1137 1186 l 1,11,12
 1067 1229 1067 1229 974.5 1252.5 c 128,-1,13
 882 1276 882 1276 786 1276 c 0,14,15
 529 1276 529 1276 411 1125 c 128,-1,16
 293 974 293 974 293 657 c 0,17,18
 293 365 293 365 416.5 211 c 128,-1,19
 540 57 540 57 776 57 c 0,20,21
 890 57 890 57 991 84.5 c 128,-1,22
 1092 112 1092 112 1151 158 c 1,23,-1
 1188 358 l 1,24,-1
 1253 358 l 1,25,-1
 1247 43 l 1,26,27
 1027 -20 1027 -20 774 -20 c 0,0,1
EndSplineSet
EndChar

StartChar: D
Encoding: 68 68 39
Width: 1479
GlyphClass: 2
Flags: W
AnchorPoint: "bottom" 639 -1 basechar 0
AnchorPoint: "top" 681 1341 basechar 0
LayerCount: 2
Fore
SplineSet
1188 680 m 0,0,1
 1188 961 1188 961 1036.5 1106 c 128,-1,2
 885 1251 885 1251 604 1251 c 2,3,-1
 424 1251 l 1,4,-1
 424 94 l 1,5,6
 544 86 544 86 709 86 c 0,7,8
 955 86 955 86 1071.5 231 c 128,-1,9
 1188 376 1188 376 1188 680 c 0,0,1
668 1341 m 2,10,11
 1039 1341 1039 1341 1218 1175.5 c 128,-1,12
 1397 1010 1397 1010 1397 678 c 0,13,14
 1397 342 1397 342 1224.5 169 c 128,-1,15
 1052 -4 1052 -4 709 -4 c 1,16,-1
 231 0 l 1,17,-1
 59 0 l 1,18,-1
 59 53 l 1,19,-1
 231 80 l 1,20,-1
 231 1262 l 1,21,-1
 59 1288 l 1,22,-1
 59 1341 l 1,23,-1
 668 1341 l 2,10,11
EndSplineSet
EndChar

StartChar: E
Encoding: 69 69 40
Width: 1251
GlyphClass: 2
Flags: W
AnchorPoint: "bottom" 646 -5 basechar 0
AnchorPoint: "top" 606 1338 basechar 0
LayerCount: 2
Fore
SplineSet
59 53 m 1,0,-1
 231 80 l 1,1,-1
 231 1262 l 1,2,-1
 59 1288 l 1,3,-1
 59 1341 l 1,4,-1
 1065 1341 l 1,5,-1
 1065 1020 l 1,6,-1
 999 1020 l 1,7,-1
 967 1237 l 1,8,9
 855 1251 855 1251 643 1251 c 2,10,-1
 424 1251 l 1,11,-1
 424 727 l 1,12,-1
 786 727 l 1,13,-1
 817 887 l 1,14,-1
 881 887 l 1,15,-1
 881 475 l 1,16,-1
 817 475 l 1,17,-1
 786 637 l 1,18,-1
 424 637 l 1,19,-1
 424 90 l 1,20,-1
 688 90 l 2,21,22
 946 90 946 90 1026 106 c 1,23,-1
 1083 354 l 1,24,-1
 1149 354 l 1,25,-1
 1130 0 l 1,26,-1
 59 0 l 1,27,-1
 59 53 l 1,0,-1
EndSplineSet
EndChar

StartChar: F
Encoding: 70 70 41
Width: 1139
GlyphClass: 2
Flags: W
AnchorPoint: "bottom" 634 2 basechar 0
AnchorPoint: "top" 645 1337 basechar 0
LayerCount: 2
Fore
SplineSet
424 602 m 1,0,-1
 424 80 l 1,1,-1
 647 53 l 1,2,-1
 647 0 l 1,3,-1
 72 0 l 1,4,-1
 72 53 l 1,5,-1
 231 80 l 1,6,-1
 231 1262 l 1,7,-1
 59 1288 l 1,8,-1
 59 1341 l 1,9,-1
 1065 1341 l 1,10,-1
 1065 1020 l 1,11,-1
 999 1020 l 1,12,-1
 967 1237 l 1,13,14
 855 1251 855 1251 643 1251 c 2,15,-1
 424 1251 l 1,16,-1
 424 692 l 1,17,-1
 819 692 l 1,18,-1
 850 852 l 1,19,-1
 911 852 l 1,20,-1
 911 440 l 1,21,-1
 850 440 l 1,22,-1
 819 602 l 1,23,-1
 424 602 l 1,0,-1
EndSplineSet
EndChar

StartChar: G
Encoding: 71 71 42
Width: 1479
GlyphClass: 2
Flags: W
AnchorPoint: "bottom" 821 -23 basechar 0
AnchorPoint: "top" 825 1353 basechar 0
LayerCount: 2
Fore
SplineSet
1284 70 m 1,0,1
 1168 32 1168 32 1043 6 c 128,-1,2
 918 -20 918 -20 774 -20 c 0,3,4
 448 -20 448 -20 266 156 c 128,-1,5
 84 332 84 332 84 655 c 0,6,7
 84 1007 84 1007 260.5 1181.5 c 128,-1,8
 437 1356 437 1356 778 1356 c 0,9,10
 1022 1356 1022 1356 1249 1296 c 1,11,-1
 1249 1008 l 1,12,-1
 1182 1008 l 1,13,-1
 1155 1174 l 1,14,15
 1086 1223 1086 1223 989.5 1249.5 c 128,-1,16
 893 1276 893 1276 786 1276 c 0,17,18
 530 1276 530 1276 411.5 1123.5 c 128,-1,19
 293 971 293 971 293 657 c 0,20,21
 293 362 293 362 415 209.5 c 128,-1,22
 537 57 537 57 776 57 c 0,23,24
 860 57 860 57 952 77 c 128,-1,25
 1044 97 1044 97 1092 125 c 1,26,-1
 1092 506 l 1,27,-1
 920 532 l 1,28,-1
 920 586 l 1,29,-1
 1415 586 l 1,30,-1
 1415 532 l 1,31,-1
 1284 506 l 1,32,-1
 1284 70 l 1,0,1
EndSplineSet
EndChar

StartChar: H
Encoding: 72 72 43
Width: 1479
GlyphClass: 2
Flags: W
AnchorPoint: "bottom" 746 -1 basechar 0
AnchorPoint: "top" 745 1337 basechar 0
LayerCount: 2
Fore
SplineSet
59 0 m 1,0,-1
 59 53 l 1,1,-1
 231 80 l 1,2,-1
 231 1262 l 1,3,-1
 59 1288 l 1,4,-1
 59 1341 l 1,5,-1
 596 1341 l 1,6,-1
 596 1288 l 1,7,-1
 424 1262 l 1,8,-1
 424 735 l 1,9,-1
 1055 735 l 1,10,-1
 1055 1262 l 1,11,-1
 883 1288 l 1,12,-1
 883 1341 l 1,13,-1
 1419 1341 l 1,14,-1
 1419 1288 l 1,15,-1
 1247 1262 l 1,16,-1
 1247 80 l 1,17,-1
 1419 53 l 1,18,-1
 1419 0 l 1,19,-1
 883 0 l 1,20,-1
 883 53 l 1,21,-1
 1055 80 l 1,22,-1
 1055 645 l 1,23,-1
 424 645 l 1,24,-1
 424 80 l 1,25,-1
 596 53 l 1,26,-1
 596 0 l 1,27,-1
 59 0 l 1,0,-1
EndSplineSet
EndChar

StartChar: I
Encoding: 73 73 44
Width: 682
GlyphClass: 2
Flags: W
AnchorPoint: "bottom" 340 -2 basechar 0
AnchorPoint: "top" 344 1344 basechar 0
LayerCount: 2
Fore
SplineSet
438 80 m 1,0,-1
 610 53 l 1,1,-1
 610 0 l 1,2,-1
 74 0 l 1,3,-1
 74 53 l 1,4,-1
 246 80 l 1,5,-1
 246 1262 l 1,6,-1
 74 1288 l 1,7,-1
 74 1341 l 1,8,-1
 610 1341 l 1,9,-1
 610 1288 l 1,10,-1
 438 1262 l 1,11,-1
 438 80 l 1,0,-1
EndSplineSet
EndChar

StartChar: J
Encoding: 74 74 45
Width: 797
GlyphClass: 2
Flags: W
AnchorPoint: "bottom" 307 -23 basechar 0
AnchorPoint: "top" 509 1334 basechar 0
LayerCount: 2
Fore
SplineSet
410 1262 m 1,0,-1
 238 1288 l 1,1,-1
 238 1341 l 1,2,-1
 754 1341 l 1,3,-1
 754 1288 l 1,4,-1
 602 1262 l 1,5,-1
 602 432 l 2,6,7
 602 298 602 298 561 197.5 c 128,-1,8
 520 97 520 97 436.5 38.5 c 128,-1,9
 353 -20 353 -20 250 -20 c 0,10,11
 122 -20 122 -20 43 10 c 1,12,-1
 43 254 l 1,13,-1
 109 254 l 1,14,-1
 139 115 l 1,15,16
 158 92 158 92 193 79 c 128,-1,17
 228 66 228 66 270 66 c 0,18,19
 410 66 410 66 410 256 c 2,20,-1
 410 1262 l 1,0,-1
EndSplineSet
EndChar

StartChar: K
Encoding: 75 75 46
Width: 1479
GlyphClass: 2
Flags: W
AnchorPoint: "bottom" 734 1 basechar 0
AnchorPoint: "top" 719 1337 basechar 0
LayerCount: 2
Fore
SplineSet
1353 1341 m 1,0,-1
 1353 1288 l 1,1,-1
 1198 1262 l 1,2,-1
 740 814 l 1,3,-1
 1313 80 l 1,4,-1
 1458 53 l 1,5,-1
 1458 0 l 1,6,-1
 1130 0 l 1,7,-1
 605 678 l 1,8,-1
 424 533 l 1,9,-1
 424 80 l 1,10,-1
 616 53 l 1,11,-1
 616 0 l 1,12,-1
 59 0 l 1,13,-1
 59 53 l 1,14,-1
 231 80 l 1,15,-1
 231 1262 l 1,16,-1
 59 1288 l 1,17,-1
 59 1341 l 1,18,-1
 596 1341 l 1,19,-1
 596 1288 l 1,20,-1
 424 1262 l 1,21,-1
 424 630 l 1,22,-1
 1066 1262 l 1,23,-1
 933 1288 l 1,24,-1
 933 1341 l 1,25,-1
 1353 1341 l 1,0,-1
EndSplineSet
EndChar

StartChar: L
Encoding: 76 76 47
Width: 1251
GlyphClass: 2
Flags: W
AnchorPoint: "bottom" 639 -3 basechar 0
AnchorPoint: "top" 623 1342 basechar 0
LayerCount: 2
Fore
SplineSet
631 1288 m 1,0,-1
 424 1262 l 1,1,-1
 424 86 l 1,2,-1
 688 86 l 2,3,4
 901 86 901 86 1001 106 c 1,5,-1
 1063 385 l 1,6,-1
 1128 385 l 1,7,-1
 1110 0 l 1,8,-1
 59 0 l 1,9,-1
 59 53 l 1,10,-1
 231 80 l 1,11,-1
 231 1262 l 1,12,-1
 59 1288 l 1,13,-1
 59 1341 l 1,14,-1
 631 1341 l 1,15,-1
 631 1288 l 1,0,-1
EndSplineSet
EndChar

StartChar: M
Encoding: 77 77 48
Width: 1821
GlyphClass: 2
Flags: W
AnchorPoint: "bottom" 841 -0 basechar 0
AnchorPoint: "top" 921 1333 basechar 0
LayerCount: 2
Fore
SplineSet
862 0 m 1,0,-1
 827 0 l 1,1,-1
 336 1153 l 1,2,-1
 336 80 l 1,3,-1
 516 53 l 1,4,-1
 516 0 l 1,5,-1
 59 0 l 1,6,-1
 59 53 l 1,7,-1
 231 80 l 1,8,-1
 231 1262 l 1,9,-1
 59 1288 l 1,10,-1
 59 1341 l 1,11,-1
 465 1341 l 1,12,-1
 901 321 l 1,13,-1
 1377 1341 l 1,14,-1
 1761 1341 l 1,15,-1
 1761 1288 l 1,16,-1
 1589 1262 l 1,17,-1
 1589 80 l 1,18,-1
 1761 53 l 1,19,-1
 1761 0 l 1,20,-1
 1217 0 l 1,21,-1
 1217 53 l 1,22,-1
 1397 80 l 1,23,-1
 1397 1153 l 1,24,-1
 862 0 l 1,0,-1
EndSplineSet
EndChar

StartChar: N
Encoding: 78 78 49
Width: 1479
GlyphClass: 2
Flags: W
AnchorPoint: "bottom" 669 2 basechar 0
AnchorPoint: "top" 687 1340 basechar 0
LayerCount: 2
Fore
SplineSet
1155 1262 m 1,0,-1
 975 1288 l 1,1,-1
 975 1341 l 1,2,-1
 1432 1341 l 1,3,-1
 1432 1288 l 1,4,-1
 1260 1262 l 1,5,-1
 1260 0 l 1,6,-1
 1163 0 l 1,7,-1
 336 1206 l 1,8,-1
 336 80 l 1,9,-1
 516 53 l 1,10,-1
 516 0 l 1,11,-1
 59 0 l 1,12,-1
 59 53 l 1,13,-1
 231 80 l 1,14,-1
 231 1262 l 1,15,-1
 59 1288 l 1,16,-1
 59 1341 l 1,17,-1
 465 1341 l 1,18,-1
 1155 348 l 1,19,-1
 1155 1262 l 1,0,-1
EndSplineSet
EndChar

StartChar: O
Encoding: 79 79 50
Width: 1479
GlyphClass: 2
Flags: W
AnchorPoint: "bottom" 742 -21 basechar 0
AnchorPoint: "top" 756 1352 basechar 0
LayerCount: 2
Fore
SplineSet
293 672 m 0,0,1
 293 349 293 349 401 204 c 128,-1,2
 509 59 509 59 739 59 c 0,3,4
 968 59 968 59 1077 204 c 128,-1,5
 1186 349 1186 349 1186 672 c 0,6,7
 1186 993 1186 993 1077.5 1134.5 c 128,-1,8
 969 1276 969 1276 739 1276 c 0,9,10
 508 1276 508 1276 400.5 1134.5 c 128,-1,11
 293 993 293 993 293 672 c 0,0,1
84 672 m 0,12,13
 84 1356 84 1356 739 1356 c 0,14,15
 1063 1356 1063 1356 1229 1182.5 c 128,-1,16
 1395 1009 1395 1009 1395 672 c 0,17,18
 1395 330 1395 330 1227 155 c 128,-1,19
 1059 -20 1059 -20 739 -20 c 0,20,21
 420 -20 420 -20 252 154.5 c 128,-1,22
 84 329 84 329 84 672 c 0,12,13
EndSplineSet
EndChar

StartChar: P
Encoding: 80 80 51
Width: 1139
GlyphClass: 2
Flags: W
AnchorPoint: "bottom" 366 2 basechar 0
AnchorPoint: "top" 591 1340 basechar 0
LayerCount: 2
Fore
SplineSet
858 944 m 0,0,1
 858 1109 858 1109 781 1180 c 128,-1,2
 704 1251 704 1251 522 1251 c 2,3,-1
 424 1251 l 1,4,-1
 424 616 l 1,5,-1
 528 616 l 2,6,7
 697 616 697 616 777.5 693 c 128,-1,8
 858 770 858 770 858 944 c 0,0,1
424 526 m 1,9,-1
 424 80 l 1,10,-1
 637 53 l 1,11,-1
 637 0 l 1,12,-1
 72 0 l 1,13,-1
 72 53 l 1,14,-1
 231 80 l 1,15,-1
 231 1262 l 1,16,-1
 59 1288 l 1,17,-1
 59 1341 l 1,18,-1
 565 1341 l 2,19,20
 1057 1341 1057 1341 1057 946 c 0,21,22
 1057 740 1057 740 932.5 633 c 128,-1,23
 808 526 808 526 575 526 c 2,24,-1
 424 526 l 1,9,-1
EndSplineSet
EndChar

StartChar: Q
Encoding: 81 81 52
Width: 1479
GlyphClass: 2
Flags: W
AnchorPoint: "bottom" 1039 -320 basechar 0
AnchorPoint: "top" 765 1351 basechar 0
LayerCount: 2
Fore
SplineSet
293 670 m 0,0,1
 293 347 293 347 401 203 c 128,-1,2
 509 59 509 59 739 59 c 0,3,4
 968 59 968 59 1077 202 c 128,-1,5
 1186 345 1186 345 1186 670 c 0,6,7
 1186 993 1186 993 1076.5 1134.5 c 128,-1,8
 967 1276 967 1276 739 1276 c 0,9,10
 509 1276 509 1276 401 1133.5 c 128,-1,11
 293 991 293 991 293 670 c 0,0,1
84 670 m 0,12,13
 84 1356 84 1356 739 1356 c 0,14,15
 1061 1356 1061 1356 1228 1182.5 c 128,-1,16
 1395 1009 1395 1009 1395 670 c 0,17,18
 1395 179 1395 179 1040 33 c 1,19,-1
 1090 -29 l 2,20,21
 1178 -139 1178 -139 1240 -186 c 128,-1,22
 1302 -233 1302 -233 1362 -233 c 1,23,-1
 1444 -229 l 1,24,-1
 1444 -295 l 1,25,26
 1421 -305 1421 -305 1357.5 -318.5 c 128,-1,27
 1294 -332 1294 -332 1247 -332 c 0,28,29
 1176 -332 1176 -332 1121 -308.5 c 128,-1,30
 1066 -285 1066 -285 1010 -233.5 c 128,-1,31
 954 -182 954 -182 823 -16 c 1,32,33
 787 -20 787 -20 739 -20 c 0,34,35
 418 -20 418 -20 251 155.5 c 128,-1,36
 84 331 84 331 84 670 c 0,12,13
EndSplineSet
EndChar

StartChar: R
Encoding: 82 82 53
Width: 1366
GlyphClass: 2
Flags: W
AnchorPoint: "bottom" 704 4 basechar 0
AnchorPoint: "top" 636 1342 basechar 0
LayerCount: 2
Fore
SplineSet
424 588 m 1,0,-1
 424 80 l 1,1,-1
 627 53 l 1,2,-1
 627 0 l 1,3,-1
 72 0 l 1,4,-1
 72 53 l 1,5,-1
 231 80 l 1,6,-1
 231 1262 l 1,7,-1
 59 1288 l 1,8,-1
 59 1341 l 1,9,-1
 638 1341 l 2,10,11
 890 1341 890 1341 1010 1256 c 128,-1,12
 1130 1171 1130 1171 1130 983 c 0,13,14
 1130 849 1130 849 1057 751.5 c 128,-1,15
 984 654 984 654 855 616 c 1,16,-1
 1218 80 l 1,17,-1
 1363 53 l 1,18,-1
 1363 0 l 1,19,-1
 1042 0 l 1,20,-1
 665 588 l 1,21,-1
 424 588 l 1,0,-1
931 969 m 0,22,23
 931 1122 931 1122 856.5 1186.5 c 128,-1,24
 782 1251 782 1251 595 1251 c 2,25,-1
 424 1251 l 1,26,-1
 424 678 l 1,27,-1
 601 678 l 2,28,29
 780 678 780 678 855.5 744.5 c 128,-1,30
 931 811 931 811 931 969 c 0,22,23
EndSplineSet
EndChar

StartChar: S
Encoding: 83 83 54
Width: 1139
GlyphClass: 2
Flags: W
AnchorPoint: "bottom" 544 -19 basechar 0
AnchorPoint: "top" 594 1354 basechar 0
LayerCount: 2
Fore
SplineSet
139 361 m 1,0,-1
 204 361 l 1,1,-1
 239 180 l 1,2,3
 276 133 276 133 366.5 97 c 128,-1,4
 457 61 457 61 545 61 c 0,5,6
 685 61 685 61 763.5 132.5 c 128,-1,7
 842 204 842 204 842 330 c 0,8,9
 842 402 842 402 811.5 449 c 128,-1,10
 781 496 781 496 731.5 528.5 c 128,-1,11
 682 561 682 561 619 583.5 c 128,-1,12
 556 606 556 606 489.5 629 c 128,-1,13
 423 652 423 652 360 680 c 128,-1,14
 297 708 297 708 247.5 751 c 128,-1,15
 198 794 198 794 167.5 857.5 c 128,-1,16
 137 921 137 921 137 1014 c 0,17,18
 137 1174 137 1174 257 1265 c 128,-1,19
 377 1356 377 1356 590 1356 c 0,20,21
 752 1356 752 1356 942 1313 c 1,22,-1
 942 1034 l 1,23,-1
 877 1034 l 1,24,-1
 842 1198 l 1,25,26
 740 1272 740 1272 590 1272 c 0,27,28
 456 1272 456 1272 380.5 1217.5 c 128,-1,29
 305 1163 305 1163 305 1067 c 0,30,31
 305 1002 305 1002 335.5 959 c 128,-1,32
 366 916 366 916 415.5 885.5 c 128,-1,33
 465 855 465 855 528.5 833 c 128,-1,34
 592 811 592 811 658.5 787.5 c 128,-1,35
 725 764 725 764 788.5 734.5 c 128,-1,36
 852 705 852 705 901.5 659.5 c 128,-1,37
 951 614 951 614 981.5 548.5 c 128,-1,38
 1012 483 1012 483 1012 387 c 0,39,40
 1012 193 1012 193 893 86.5 c 128,-1,41
 774 -20 774 -20 550 -20 c 0,42,43
 442 -20 442 -20 333 -1 c 128,-1,44
 224 18 224 18 139 51 c 1,45,-1
 139 361 l 1,0,-1
EndSplineSet
EndChar

StartChar: T
Encoding: 84 84 55
Width: 1251
GlyphClass: 2
Flags: W
AnchorPoint: "bottom" 632 -2 basechar 0
AnchorPoint: "top" 624 1342 basechar 0
LayerCount: 2
Fore
SplineSet
315 0 m 1,0,-1
 315 53 l 1,1,-1
 528 80 l 1,2,-1
 528 1255 l 1,3,-1
 477 1255 l 2,4,5
 224 1255 224 1255 131 1235 c 1,6,-1
 104 1026 l 1,7,-1
 37 1026 l 1,8,-1
 37 1341 l 1,9,-1
 1217 1341 l 1,10,-1
 1217 1026 l 1,11,-1
 1149 1026 l 1,12,-1
 1122 1235 l 1,13,14
 1092 1242 1092 1242 991 1247.5 c 128,-1,15
 890 1253 890 1253 770 1253 c 2,16,-1
 721 1253 l 1,17,-1
 721 80 l 1,18,-1
 934 53 l 1,19,-1
 934 0 l 1,20,-1
 315 0 l 1,0,-1
EndSplineSet
EndChar

StartChar: U
Encoding: 85 85 56
Width: 1479
GlyphClass: 2
Flags: W
AnchorPoint: "bottom" 756 -22 basechar 0
AnchorPoint: "top" 762 1342 basechar 0
LayerCount: 2
Fore
SplineSet
1159 1262 m 1,0,-1
 979 1288 l 1,1,-1
 979 1341 l 1,2,-1
 1436 1341 l 1,3,-1
 1436 1288 l 1,4,-1
 1264 1262 l 1,5,-1
 1264 461 l 2,6,7
 1264 220 1264 220 1131.5 100 c 128,-1,8
 999 -20 999 -20 747 -20 c 0,9,10
 480 -20 480 -20 347.5 100.5 c 128,-1,11
 215 221 215 221 215 442 c 2,12,-1
 215 1262 l 1,13,-1
 43 1288 l 1,14,-1
 43 1341 l 1,15,-1
 579 1341 l 1,16,-1
 579 1288 l 1,17,-1
 407 1262 l 1,18,-1
 407 457 l 2,19,20
 407 92 407 92 762 92 c 0,21,22
 954 92 954 92 1056.5 183 c 128,-1,23
 1159 274 1159 274 1159 453 c 2,24,-1
 1159 1262 l 1,0,-1
EndSplineSet
EndChar

StartChar: V
Encoding: 86 86 57
Width: 1479
GlyphClass: 2
Flags: W
AnchorPoint: "bottom" 742 -30 basechar 0
AnchorPoint: "top" 766 1336 basechar 0
LayerCount: 2
Fore
SplineSet
1456 1341 m 1,0,-1
 1456 1288 l 1,1,-1
 1309 1262 l 1,2,-1
 770 -31 l 1,3,-1
 719 -31 l 1,4,-1
 174 1262 l 1,5,-1
 23 1288 l 1,6,-1
 23 1341 l 1,7,-1
 565 1341 l 1,8,-1
 565 1288 l 1,9,-1
 385 1262 l 1,10,-1
 791 275 l 1,11,-1
 1196 1262 l 1,12,-1
 1020 1288 l 1,13,-1
 1020 1341 l 1,14,-1
 1456 1341 l 1,0,-1
EndSplineSet
EndChar

StartChar: W
Encoding: 87 87 58
Width: 1933
GlyphClass: 2
Flags: W
AnchorPoint: "bottom" 966 -45 basechar 0
AnchorPoint: "top" 1016 1324 basechar 0
LayerCount: 2
Fore
SplineSet
1374 -31 m 1,0,-1
 1321 -31 l 1,1,-1
 973 893 l 1,2,-1
 616 -31 l 1,3,-1
 563 -31 l 1,4,-1
 119 1262 l 1,5,-1
 2 1288 l 1,6,-1
 2 1341 l 1,7,-1
 514 1341 l 1,8,-1
 514 1288 l 1,9,-1
 317 1262 l 1,10,-1
 636 317 l 1,11,-1
 997 1247 l 1,12,-1
 1042 1247 l 1,13,-1
 1390 317 l 1,14,-1
 1694 1262 l 1,15,-1
 1485 1288 l 1,16,-1
 1485 1341 l 1,17,-1
 1929 1341 l 1,18,-1
 1929 1288 l 1,19,-1
 1812 1262 l 1,20,-1
 1374 -31 l 1,0,-1
EndSplineSet
EndChar

StartChar: X
Encoding: 88 88 59
Width: 1479
GlyphClass: 2
Flags: W
AnchorPoint: "bottom" 736 -2 basechar 0
AnchorPoint: "top" 790 1338 basechar 0
LayerCount: 2
Fore
SplineSet
317 80 m 1,0,-1
 483 53 l 1,1,-1
 483 0 l 1,2,-1
 45 0 l 1,3,-1
 45 53 l 1,4,-1
 193 80 l 1,5,-1
 649 686 l 1,6,-1
 260 1262 l 1,7,-1
 109 1288 l 1,8,-1
 109 1341 l 1,9,-1
 662 1341 l 1,10,-1
 662 1288 l 1,11,-1
 492 1262 l 1,12,-1
 770 848 l 1,13,-1
 1081 1262 l 1,14,-1
 915 1288 l 1,15,-1
 915 1341 l 1,16,-1
 1354 1341 l 1,17,-1
 1354 1288 l 1,18,-1
 1206 1262 l 1,19,-1
 829 760 l 1,20,-1
 1290 80 l 1,21,-1
 1442 53 l 1,22,-1
 1442 0 l 1,23,-1
 889 0 l 1,24,-1
 889 53 l 1,25,-1
 1059 80 l 1,26,-1
 707 600 l 1,27,-1
 317 80 l 1,0,-1
EndSplineSet
EndChar

StartChar: Y
Encoding: 89 89 60
Width: 1479
GlyphClass: 2
Flags: W
AnchorPoint: "bottom" 746 2 basechar 0
AnchorPoint: "top" 796 1334 basechar 0
LayerCount: 2
Fore
SplineSet
838 528 m 1,0,-1
 838 80 l 1,1,-1
 1051 53 l 1,2,-1
 1051 0 l 1,3,-1
 432 0 l 1,4,-1
 432 53 l 1,5,-1
 645 80 l 1,6,-1
 645 522 l 1,7,-1
 174 1262 l 1,8,-1
 23 1288 l 1,9,-1
 23 1341 l 1,10,-1
 590 1341 l 1,11,-1
 590 1288 l 1,12,-1
 410 1262 l 1,13,-1
 795 643 l 1,14,-1
 1161 1262 l 1,15,-1
 991 1288 l 1,16,-1
 991 1341 l 1,17,-1
 1427 1341 l 1,18,-1
 1427 1288 l 1,19,-1
 1280 1262 l 1,20,-1
 838 528 l 1,0,-1
EndSplineSet
EndChar

StartChar: Z
Encoding: 90 90 61
Width: 1251
GlyphClass: 2
Flags: W
AnchorPoint: "bottom" 614 5 basechar 0
AnchorPoint: "top" 620 1339 basechar 0
LayerCount: 2
Fore
SplineSet
98 94 m 1,0,-1
 850 1255 l 1,1,-1
 600 1255 l 2,2,3
 353 1255 353 1255 260 1235 c 1,4,-1
 229 1024 l 1,5,-1
 160 1024 l 1,6,-1
 160 1341 l 1,7,-1
 1073 1341 l 1,8,-1
 1073 1255 l 1,9,-1
 316 84 l 1,10,-1
 606 84 l 2,11,12
 722 84 722 84 841.5 95 c 128,-1,13
 961 106 961 106 1010 117 c 1,14,-1
 1069 373 l 1,15,-1
 1139 373 l 1,16,-1
 1112 0 l 1,17,-1
 98 0 l 1,18,-1
 98 94 l 1,0,-1
EndSplineSet
EndChar

StartChar: bracketleft
Encoding: 91 91 62
Width: 682
GlyphClass: 2
Flags: W
LayerCount: 2
Fore
SplineSet
152 -274 m 1,0,-1
 152 1421 l 1,1,-1
 608 1421 l 1,2,-1
 608 1374 l 1,3,-1
 311 1333 l 1,4,-1
 311 -186 l 1,5,-1
 608 -227 l 1,6,-1
 608 -274 l 1,7,-1
 152 -274 l 1,0,-1
EndSplineSet
Validated: 1
EndChar

StartChar: backslash
Encoding: 92 92 63
Width: 569
GlyphClass: 2
Flags: W
LayerCount: 2
Fore
SplineSet
0 1350 m 1,0,-1
 98 1350 l 1,1,-1
 569 -20 l 1,2,-1
 469 -20 l 1,3,-1
 0 1350 l 1,0,-1
EndSplineSet
Validated: 1
EndChar

StartChar: bracketright
Encoding: 93 93 64
Width: 682
GlyphClass: 2
Flags: W
LayerCount: 2
Fore
SplineSet
74 -274 m 1,0,-1
 74 -227 l 1,1,-1
 371 -186 l 1,2,-1
 371 1333 l 1,3,-1
 74 1374 l 1,4,-1
 74 1421 l 1,5,-1
 530 1421 l 1,6,-1
 530 -274 l 1,7,-1
 74 -274 l 1,0,-1
EndSplineSet
Validated: 1
EndChar

StartChar: asciicircum
Encoding: 94 94 65
Width: 961
GlyphClass: 2
Flags: W
LayerCount: 2
Fore
SplineSet
457 1341 m 1,0,-1
 506 1341 l 1,1,-1
 934 389 l 1,2,-1
 831 389 l 1,3,-1
 481 1198 l 1,4,-1
 131 389 l 1,5,-1
 29 389 l 1,6,-1
 457 1341 l 1,0,-1
EndSplineSet
Validated: 1
EndChar

StartChar: underscore
Encoding: 95 95 66
Width: 1024
GlyphClass: 2
Flags: W
LayerCount: 2
Fore
SplineSet
-16 -264 m 1,0,-1
 -16 -162 l 1,1,-1
 1040 -162 l 1,2,-1
 1040 -264 l 1,3,-1
 -16 -264 l 1,0,-1
EndSplineSet
Validated: 1
EndChar

StartChar: grave
Encoding: 96 96 67
Width: 682
GlyphClass: 2
Flags: W
LayerCount: 2
Fore
SplineSet
473 1119 m 1,0,-1
 119 1387 l 1,1,-1
 119 1424 l 1,2,-1
 332 1424 l 1,3,-1
 528 1152 l 1,4,-1
 528 1119 l 1,5,-1
 473 1119 l 1,0,-1
EndSplineSet
Validated: 1
EndChar

StartChar: a
Encoding: 97 97 68
Width: 909
GlyphClass: 2
Flags: W
AnchorPoint: "top" 464 959 basechar 0
AnchorPoint: "bottom" 442 -28 basechar 0
LayerCount: 2
Fore
SplineSet
465 961 m 0,0,1
 619 961 619 961 691.5 898 c 128,-1,2
 764 835 764 835 764 705 c 2,3,-1
 764 70 l 1,4,-1
 881 45 l 1,5,-1
 881 0 l 1,6,-1
 623 0 l 1,7,-1
 604 94 l 1,8,9
 490 -20 490 -20 313 -20 c 0,10,11
 72 -20 72 -20 72 260 c 0,12,13
 72 354 72 354 108.5 415.5 c 128,-1,14
 145 477 145 477 225 509.5 c 128,-1,15
 305 542 305 542 457 545 c 1,16,-1
 598 549 l 1,17,-1
 598 696 l 2,18,19
 598 793 598 793 562.5 839 c 128,-1,20
 527 885 527 885 453 885 c 0,21,22
 353 885 353 885 270 838 c 1,23,-1
 236 721 l 1,24,-1
 180 721 l 1,25,-1
 180 926 l 1,26,27
 342 961 342 961 465 961 c 0,0,1
598 479 m 1,28,-1
 467 475 l 2,29,30
 333 470 333 470 285.5 423 c 128,-1,31
 238 376 238 376 238 266 c 0,32,33
 238 90 238 90 381 90 c 0,34,35
 449 90 449 90 498.5 105.5 c 128,-1,36
 548 121 548 121 598 145 c 1,37,-1
 598 479 l 1,28,-1
EndSplineSet
EndChar

StartChar: b
Encoding: 98 98 69
Width: 1024
GlyphClass: 2
Flags: W
AnchorPoint: "bottom" 476 -28 basechar 0
AnchorPoint: "top" 491 1418 basechar 0
LayerCount: 2
Fore
SplineSet
766 496 m 0,0,1
 766 680 766 680 702 770 c 128,-1,2
 638 860 638 860 504 860 c 0,3,4
 445 860 445 860 387 849.5 c 128,-1,5
 329 839 329 839 303 827 c 1,6,-1
 303 82 l 1,7,8
 387 66 387 66 504 66 c 0,9,10
 642 66 642 66 704 174 c 128,-1,11
 766 282 766 282 766 496 c 0,0,1
137 1352 m 1,12,-1
 0 1376 l 1,13,-1
 0 1421 l 1,14,-1
 303 1421 l 1,15,-1
 303 1085 l 2,16,17
 303 1031 303 1031 297 887 c 1,18,19
 397 965 397 965 549 965 c 0,20,21
 741 965 741 965 843.5 848.5 c 128,-1,22
 946 732 946 732 946 496 c 0,23,24
 946 243 946 243 833.5 111.5 c 128,-1,25
 721 -20 721 -20 508 -20 c 0,26,27
 422 -20 422 -20 318.5 -1 c 128,-1,28
 215 18 215 18 137 49 c 1,29,-1
 137 1352 l 1,12,-1
EndSplineSet
EndChar

StartChar: c
Encoding: 99 99 70
Width: 909
GlyphClass: 2
Flags: W
AnchorPoint: "bottom" 526 -24 basechar 0
AnchorPoint: "top" 542 968 basechar 0
LayerCount: 2
Fore
SplineSet
846 57 m 1,0,1
 797 21 797 21 711 0.5 c 128,-1,2
 625 -20 625 -20 535 -20 c 0,3,4
 78 -20 78 -20 78 477 c 0,5,6
 78 712 78 712 194.5 838.5 c 128,-1,7
 311 965 311 965 528 965 c 0,8,9
 663 965 663 965 823 934 c 1,10,-1
 823 672 l 1,11,-1
 768 672 l 1,12,-1
 725 838 l 1,13,14
 642 885 642 885 526 885 c 0,15,16
 258 885 258 885 258 477 c 0,17,18
 258 265 258 265 339.5 174.5 c 128,-1,19
 421 84 421 84 592 84 c 0,20,21
 738 84 738 84 846 117 c 1,22,-1
 846 57 l 1,0,1
EndSplineSet
EndChar

StartChar: d
Encoding: 100 100 71
Width: 1024
GlyphClass: 2
Flags: W
AnchorPoint: "bottom" 526 -18 basechar 0
AnchorPoint: "top" 573 1422 basechar 0
LayerCount: 2
Fore
SplineSet
723 70 m 1,0,1
 610 -20 610 -20 459 -20 c 0,2,3
 74 -20 74 -20 74 461 c 0,4,5
 74 708 74 708 183 836.5 c 128,-1,6
 292 965 292 965 504 965 c 0,7,8
 612 965 612 965 723 942 c 1,9,10
 717 975 717 975 717 1108 c 2,11,-1
 717 1352 l 1,12,-1
 559 1376 l 1,13,-1
 559 1421 l 1,14,-1
 883 1421 l 1,15,-1
 883 70 l 1,16,-1
 999 45 l 1,17,-1
 999 0 l 1,18,-1
 735 0 l 1,19,-1
 723 70 l 1,0,1
254 461 m 0,20,21
 254 271 254 271 318 177.5 c 128,-1,22
 382 84 382 84 514 84 c 0,23,24
 627 84 627 84 717 123 c 1,25,-1
 717 866 l 1,26,27
 628 883 628 883 514 883 c 0,28,29
 254 883 254 883 254 461 c 0,20,21
EndSplineSet
EndChar

StartChar: e
Encoding: 101 101 72
Width: 909
GlyphClass: 2
Flags: W
AnchorPoint: "bottom" 493 -19 basechar 0
AnchorPoint: "top" 491 963 basechar 0
LayerCount: 2
Fore
SplineSet
260 473 m 1,0,-1
 260 455 l 2,1,2
 260 317 260 317 290.5 240.5 c 128,-1,3
 321 164 321 164 384.5 124 c 128,-1,4
 448 84 448 84 551 84 c 0,5,6
 605 84 605 84 679 93 c 128,-1,7
 753 102 753 102 801 113 c 1,8,-1
 801 57 l 1,9,10
 753 26 753 26 670.5 3 c 128,-1,11
 588 -20 588 -20 502 -20 c 0,12,13
 283 -20 283 -20 181.5 98 c 128,-1,14
 80 216 80 216 80 477 c 0,15,16
 80 723 80 723 183 844 c 128,-1,17
 286 965 286 965 477 965 c 0,18,19
 838 965 838 965 838 555 c 2,20,-1
 838 473 l 1,21,-1
 260 473 l 1,0,-1
477 885 m 0,22,23
 373 885 373 885 317.5 801 c 128,-1,24
 262 717 262 717 262 553 c 1,25,-1
 664 553 l 1,26,27
 664 732 664 732 618 808.5 c 128,-1,28
 572 885 572 885 477 885 c 0,22,23
EndSplineSet
EndChar

StartChar: f
Encoding: 102 102 73
Width: 682
GlyphClass: 2
Flags: W
AnchorPoint: "bottom" 348 -2 basechar 0
AnchorPoint: "top" 474 1440 basechar 0
LayerCount: 2
Fore
SplineSet
225 856 m 1,0,-1
 63 856 l 1,1,-1
 63 905 l 1,2,-1
 225 944 l 1,3,-1
 225 1010 l 2,4,5
 225 1218 225 1218 307.5 1330 c 128,-1,6
 390 1442 390 1442 539 1442 c 0,7,8
 616 1442 616 1442 682 1423 c 1,9,-1
 682 1218 l 1,10,-1
 633 1218 l 1,11,-1
 588 1341 l 1,12,13
 554 1362 554 1362 506 1362 c 0,14,15
 443 1362 443 1362 417 1306 c 128,-1,16
 391 1250 391 1250 391 1096 c 2,17,-1
 391 940 l 1,18,-1
 641 940 l 1,19,-1
 641 856 l 1,20,-1
 391 856 l 1,21,-1
 391 78 l 1,22,-1
 594 45 l 1,23,-1
 594 0 l 1,24,-1
 86 0 l 1,25,-1
 86 45 l 1,26,-1
 225 78 l 1,27,-1
 225 856 l 1,0,-1
EndSplineSet
EndChar

StartChar: g
Encoding: 103 103 74
Width: 1024
GlyphClass: 2
Flags: W
AnchorPoint: "bottom" 514 -444 basechar 0
AnchorPoint: "top" 522 996 basechar 0
LayerCount: 2
Fore
SplineSet
870 643 m 0,0,1
 870 481 870 481 773 398 c 128,-1,2
 676 315 676 315 494 315 c 0,3,4
 412 315 412 315 342 330 c 1,5,-1
 279 199 l 1,6,7
 282 182 282 182 318 167 c 128,-1,8
 354 152 354 152 408 152 c 2,9,-1
 686 152 l 2,10,11
 838 152 838 152 911.5 86 c 128,-1,12
 985 20 985 20 985 -96 c 0,13,14
 985 -201 985 -201 926.5 -279 c 128,-1,15
 868 -357 868 -357 755 -399.5 c 128,-1,16
 642 -442 642 -442 481 -442 c 0,17,18
 289 -442 289 -442 188.5 -383 c 128,-1,19
 88 -324 88 -324 88 -215 c 0,20,21
 88 -162 88 -162 124 -110.5 c 128,-1,22
 160 -59 160 -59 256 10 c 1,23,24
 199 29 199 29 160 75 c 128,-1,25
 121 121 121 121 121 174 c 1,26,-1
 279 352 l 1,27,28
 121 426 121 426 121 643 c 0,29,30
 121 797 121 797 218.5 881 c 128,-1,31
 316 965 316 965 502 965 c 0,32,33
 539 965 539 965 597 957.5 c 128,-1,34
 655 950 655 950 686 940 c 1,35,-1
 907 1051 l 1,36,-1
 942 1008 l 1,37,-1
 803 864 l 1,38,39
 870 789 870 789 870 643 c 0,0,1
829 -127 m 0,40,41
 829 -70 829 -70 794 -38 c 128,-1,42
 759 -6 759 -6 688 -6 c 2,43,-1
 324 -6 l 1,44,45
 282 -42 282 -42 255.5 -97.5 c 128,-1,46
 229 -153 229 -153 229 -201 c 0,47,48
 229 -287 229 -287 291 -324.5 c 128,-1,49
 353 -362 353 -362 481 -362 c 0,50,51
 648 -362 648 -362 738.5 -300 c 128,-1,52
 829 -238 829 -238 829 -127 c 0,40,41
496 391 m 0,53,54
 605 391 605 391 650.5 453.5 c 128,-1,55
 696 516 696 516 696 643 c 0,56,57
 696 776 696 776 649 832.5 c 128,-1,58
 602 889 602 889 498 889 c 0,59,60
 393 889 393 889 344 832 c 128,-1,61
 295 775 295 775 295 643 c 256,62,63
 295 511 295 511 343 451 c 128,-1,64
 391 391 391 391 496 391 c 0,53,54
EndSplineSet
EndChar

StartChar: h
Encoding: 104 104 75
Width: 1024
GlyphClass: 2
Flags: W
AnchorPoint: "bottom" 520 2 basechar 0
AnchorPoint: "top" 496 1419 basechar 0
LayerCount: 2
Fore
SplineSet
326 1014 m 2,0,1
 326 910 326 910 319 864 c 1,2,3
 391 905 391 905 482.5 935 c 128,-1,4
 574 965 574 965 637 965 c 0,5,6
 759 965 759 965 821 894 c 128,-1,7
 883 823 883 823 883 688 c 2,8,-1
 883 70 l 1,9,-1
 997 45 l 1,10,-1
 997 0 l 1,11,-1
 592 0 l 1,12,-1
 592 45 l 1,13,-1
 717 70 l 1,14,-1
 717 676 l 2,15,16
 717 848 717 848 551 848 c 0,17,18
 457 848 457 848 326 819 c 1,19,-1
 326 70 l 1,20,-1
 453 45 l 1,21,-1
 453 0 l 1,22,-1
 41 0 l 1,23,-1
 41 45 l 1,24,-1
 160 70 l 1,25,-1
 160 1352 l 1,26,-1
 20 1376 l 1,27,-1
 20 1421 l 1,28,-1
 326 1421 l 1,29,-1
 326 1014 l 2,0,1
EndSplineSet
EndChar

StartChar: i
Encoding: 105 105 76
Width: 569
GlyphClass: 2
Flags: W
AnchorPoint: "bottom" 290 3 basechar 0
AnchorPoint: "top" 272 1358 basechar 0
LayerCount: 2
Fore
SplineSet
379 1247 m 0,0,1
 379 1203 379 1203 347 1171 c 128,-1,2
 315 1139 315 1139 270 1139 c 0,3,4
 226 1139 226 1139 194 1171 c 128,-1,5
 162 1203 162 1203 162 1247 c 0,6,7
 162 1292 162 1292 194 1324 c 128,-1,8
 226 1356 226 1356 270 1356 c 0,9,10
 315 1356 315 1356 347 1324 c 128,-1,11
 379 1292 379 1292 379 1247 c 0,0,1
369 70 m 1,12,-1
 530 45 l 1,13,-1
 530 0 l 1,14,-1
 43 0 l 1,15,-1
 43 45 l 1,16,-1
 203 70 l 1,17,-1
 203 870 l 1,18,-1
 70 895 l 1,19,-1
 70 940 l 1,20,-1
 369 940 l 1,21,-1
 369 70 l 1,12,-1
EndSplineSet
EndChar

StartChar: j
Encoding: 106 106 77
Width: 569
GlyphClass: 2
Flags: W
AnchorPoint: "bottom" 174 -435 basechar 0
AnchorPoint: "top" 288 1356 basechar 0
LayerCount: 2
Fore
SplineSet
393 1247 m 0,0,1
 393 1203 393 1203 361 1171 c 128,-1,2
 329 1139 329 1139 285 1139 c 0,3,4
 240 1139 240 1139 208 1171 c 128,-1,5
 176 1203 176 1203 176 1247 c 0,6,7
 176 1292 176 1292 208 1324 c 128,-1,8
 240 1356 240 1356 285 1356 c 0,9,10
 329 1356 329 1356 361 1324 c 128,-1,11
 393 1292 393 1292 393 1247 c 0,0,1
383 -39 m 2,12,13
 383 -234 383 -234 307.5 -335 c 128,-1,14
 232 -436 232 -436 86 -436 c 0,15,16
 24 -436 24 -436 -59 -418 c 1,17,-1
 -59 -219 l 1,18,-1
 -12 -219 l 1,19,-1
 15 -328 l 1,20,21
 48 -356 48 -356 98 -356 c 0,22,23
 157 -356 157 -356 187 -293 c 128,-1,24
 217 -230 217 -230 217 -90 c 2,25,-1
 217 870 l 1,26,-1
 76 895 l 1,27,-1
 76 940 l 1,28,-1
 383 940 l 1,29,-1
 383 -39 l 2,12,13
EndSplineSet
EndChar

StartChar: k
Encoding: 107 107 78
Width: 1024
GlyphClass: 2
Flags: W
AnchorPoint: "bottom" 506 1 basechar 0
AnchorPoint: "top" 461 1421 basechar 0
LayerCount: 2
Fore
SplineSet
344 453 m 1,0,-1
 729 868 l 1,1,-1
 631 895 l 1,2,-1
 631 940 l 1,3,-1
 963 940 l 1,4,-1
 963 895 l 1,5,-1
 846 872 l 1,6,-1
 578 598 l 1,7,-1
 922 68 l 1,8,-1
 1024 45 l 1,9,-1
 1024 0 l 1,10,-1
 639 0 l 1,11,-1
 639 45 l 1,12,-1
 725 70 l 1,13,-1
 467 475 l 1,14,-1
 344 340 l 1,15,-1
 344 70 l 1,16,-1
 444 45 l 1,17,-1
 444 0 l 1,18,-1
 59 0 l 1,19,-1
 59 45 l 1,20,-1
 178 70 l 1,21,-1
 178 1352 l 1,22,-1
 39 1376 l 1,23,-1
 39 1421 l 1,24,-1
 344 1421 l 1,25,-1
 344 453 l 1,0,-1
EndSplineSet
EndChar

StartChar: l
Encoding: 108 108 79
Width: 569
GlyphClass: 2
Flags: W
AnchorPoint: "bottom" 287 -4 basechar 0
AnchorPoint: "top" 231 1422 basechar 0
LayerCount: 2
Fore
SplineSet
367 70 m 1,0,-1
 528 45 l 1,1,-1
 528 0 l 1,2,-1
 41 0 l 1,3,-1
 41 45 l 1,4,-1
 201 70 l 1,5,-1
 201 1352 l 1,6,-1
 41 1376 l 1,7,-1
 41 1421 l 1,8,-1
 367 1421 l 1,9,-1
 367 70 l 1,0,-1
EndSplineSet
EndChar

StartChar: m
Encoding: 109 109 80
Width: 1593
GlyphClass: 2
Flags: W
AnchorPoint: "bottom" 812 -2 basechar 0
AnchorPoint: "top" 789 960 basechar 0
LayerCount: 2
Fore
SplineSet
326 864 m 1,0,1
 401 907 401 907 485 936 c 128,-1,2
 569 965 569 965 633 965 c 0,3,4
 702 965 702 965 760.5 939 c 128,-1,5
 819 913 819 913 848 856 c 1,6,7
 925 899 925 899 1028.5 932 c 128,-1,8
 1132 965 1132 965 1200 965 c 0,9,10
 1440 965 1440 965 1440 688 c 2,11,-1
 1440 70 l 1,12,-1
 1561 45 l 1,13,-1
 1561 0 l 1,14,-1
 1134 0 l 1,15,-1
 1134 45 l 1,16,-1
 1274 70 l 1,17,-1
 1274 670 l 2,18,19
 1274 842 1274 842 1114 842 c 0,20,21
 1088 842 1088 842 1053.5 838 c 128,-1,22
 1019 834 1019 834 984.5 829 c 128,-1,23
 950 824 950 824 918.5 817.5 c 128,-1,24
 887 811 887 811 866 807 c 1,25,26
 883 753 883 753 883 688 c 2,27,-1
 883 70 l 1,28,-1
 1024 45 l 1,29,-1
 1024 0 l 1,30,-1
 578 0 l 1,31,-1
 578 45 l 1,32,-1
 717 70 l 1,33,-1
 717 670 l 2,34,35
 717 753 717 753 674.5 797.5 c 128,-1,36
 632 842 632 842 547 842 c 0,37,38
 459 842 459 842 328 813 c 1,39,-1
 328 70 l 1,40,-1
 469 45 l 1,41,-1
 469 0 l 1,42,-1
 43 0 l 1,43,-1
 43 45 l 1,44,-1
 162 70 l 1,45,-1
 162 870 l 1,46,-1
 43 895 l 1,47,-1
 43 940 l 1,48,-1
 318 940 l 1,49,-1
 326 864 l 1,0,1
EndSplineSet
EndChar

StartChar: n
Encoding: 110 110 81
Width: 1024
GlyphClass: 2
Flags: W
AnchorPoint: "bottom" 492 -4 basechar 0
AnchorPoint: "top" 525 957 basechar 0
LayerCount: 2
Fore
SplineSet
324 864 m 1,0,1
 401 908 401 908 488 936.5 c 128,-1,2
 575 965 575 965 633 965 c 0,3,4
 755 965 755 965 817 894 c 128,-1,5
 879 823 879 823 879 688 c 2,6,-1
 879 70 l 1,7,-1
 993 45 l 1,8,-1
 993 0 l 1,9,-1
 588 0 l 1,10,-1
 588 45 l 1,11,-1
 713 70 l 1,12,-1
 713 670 l 2,13,14
 713 753 713 753 672.5 800.5 c 128,-1,15
 632 848 632 848 547 848 c 0,16,17
 457 848 457 848 326 819 c 1,18,-1
 326 70 l 1,19,-1
 453 45 l 1,20,-1
 453 0 l 1,21,-1
 47 0 l 1,22,-1
 47 45 l 1,23,-1
 160 70 l 1,24,-1
 160 870 l 1,25,-1
 47 895 l 1,26,-1
 47 940 l 1,27,-1
 315 940 l 1,28,-1
 324 864 l 1,0,1
EndSplineSet
EndChar

StartChar: o
Encoding: 111 111 82
Width: 1024
GlyphClass: 2
Flags: W
AnchorPoint: "bottom" 510 -24 basechar 0
AnchorPoint: "top" 514 964 basechar 0
LayerCount: 2
Fore
SplineSet
946 475 m 0,0,1
 946 -20 946 -20 506 -20 c 0,2,3
 294 -20 294 -20 186 107 c 128,-1,4
 78 234 78 234 78 475 c 0,5,6
 78 713 78 713 186 839 c 128,-1,7
 294 965 294 965 514 965 c 0,8,9
 728 965 728 965 837 841.5 c 128,-1,10
 946 718 946 718 946 475 c 0,0,1
766 475 m 0,11,12
 766 691 766 691 703 788 c 128,-1,13
 640 885 640 885 506 885 c 0,14,15
 375 885 375 885 316.5 792 c 128,-1,16
 258 699 258 699 258 475 c 0,17,18
 258 248 258 248 317.5 153.5 c 128,-1,19
 377 59 377 59 506 59 c 0,20,21
 638 59 638 59 702 157 c 128,-1,22
 766 255 766 255 766 475 c 0,11,12
EndSplineSet
EndChar

StartChar: p
Encoding: 112 112 83
Width: 1024
GlyphClass: 2
Flags: W
AnchorPoint: "bottom" 453 -432 basechar 0
AnchorPoint: "top" 506 970 basechar 0
LayerCount: 2
Fore
SplineSet
152 870 m 1,0,-1
 45 895 l 1,1,-1
 45 940 l 1,2,-1
 309 940 l 1,3,-1
 311 885 l 1,4,5
 353 921 353 921 423.5 943 c 128,-1,6
 494 965 494 965 567 965 c 0,7,8
 747 965 747 965 845.5 840 c 128,-1,9
 944 715 944 715 944 481 c 0,10,11
 944 242 944 242 836.5 111 c 128,-1,12
 729 -20 729 -20 526 -20 c 0,13,14
 413 -20 413 -20 311 2 c 1,15,16
 317 -70 317 -70 317 -111 c 2,17,-1
 317 -365 l 1,18,-1
 481 -389 l 1,19,-1
 481 -436 l 1,20,-1
 33 -436 l 1,21,-1
 33 -389 l 1,22,-1
 152 -365 l 1,23,-1
 152 870 l 1,0,-1
764 481 m 0,24,25
 764 673 764 673 701.5 766.5 c 128,-1,26
 639 860 639 860 512 860 c 0,27,28
 395 860 395 860 317 827 c 1,29,-1
 317 76 l 1,30,31
 406 59 406 59 512 59 c 0,32,33
 764 59 764 59 764 481 c 0,24,25
EndSplineSet
EndChar

StartChar: q
Encoding: 113 113 84
Width: 1024
GlyphClass: 2
Flags: W
AnchorPoint: "bottom" 610 -433 basechar 0
AnchorPoint: "top" 604 974 basechar 0
LayerCount: 2
Fore
SplineSet
813 985 m 1,0,-1
 883 985 l 1,1,-1
 883 -365 l 1,2,-1
 987 -389 l 1,3,-1
 987 -436 l 1,4,-1
 588 -436 l 1,5,-1
 588 -389 l 1,6,-1
 717 -365 l 1,7,-1
 717 -104 l 2,8,9
 717 -7 717 -7 727 63 c 1,10,11
 620 -20 620 -20 459 -20 c 0,12,13
 74 -20 74 -20 74 467 c 0,14,15
 74 708 74 708 182.5 836.5 c 128,-1,16
 291 965 291 965 500 965 c 0,17,18
 612 965 612 965 723 942 c 1,19,-1
 813 985 l 1,0,-1
254 467 m 0,20,21
 254 276 254 276 317.5 180 c 128,-1,22
 381 84 381 84 514 84 c 0,23,24
 573 84 573 84 630.5 94 c 128,-1,25
 688 104 688 104 717 117 c 1,26,-1
 717 866 l 1,27,28
 628 883 628 883 514 883 c 0,29,30
 254 883 254 883 254 467 c 0,20,21
EndSplineSet
EndChar

StartChar: r
Encoding: 114 114 85
Width: 682
GlyphClass: 2
Flags: W
AnchorPoint: "bottom" 247 2 basechar 0
AnchorPoint: "top" 457 945 basechar 0
LayerCount: 2
Fore
SplineSet
664 965 m 1,0,-1
 664 711 l 1,1,-1
 621 711 l 1,2,-1
 563 821 l 1,3,4
 513 821 513 821 444.5 807.5 c 128,-1,5
 376 794 376 794 326 772 c 1,6,-1
 326 70 l 1,7,-1
 487 45 l 1,8,-1
 487 0 l 1,9,-1
 41 0 l 1,10,-1
 41 45 l 1,11,-1
 160 70 l 1,12,-1
 160 870 l 1,13,-1
 41 895 l 1,14,-1
 41 940 l 1,15,-1
 315 940 l 1,16,-1
 324 823 l 1,17,18
 384 873 384 873 486.5 919 c 128,-1,19
 589 965 589 965 649 965 c 2,20,-1
 664 965 l 1,0,-1
EndSplineSet
EndChar

StartChar: s
Encoding: 115 115 86
Width: 797
GlyphClass: 2
Flags: W
AnchorPoint: "bottom" 414 -25 basechar 0
AnchorPoint: "top" 416 965 basechar 0
LayerCount: 2
Fore
SplineSet
723 264 m 0,0,1
 723 124 723 124 634.5 52 c 128,-1,2
 546 -20 546 -20 373 -20 c 0,3,4
 303 -20 303 -20 218.5 -5.5 c 128,-1,5
 134 9 134 9 86 27 c 1,6,-1
 86 258 l 1,7,-1
 131 258 l 1,8,-1
 180 127 l 1,9,10
 255 59 255 59 375 59 c 0,11,12
 569 59 569 59 569 225 c 0,13,14
 569 347 569 347 416 399 c 1,15,-1
 327 428 l 2,16,17
 226 461 226 461 180 495 c 128,-1,18
 134 529 134 529 109 578.5 c 128,-1,19
 84 628 84 628 84 698 c 0,20,21
 84 822 84 822 168.5 893.5 c 128,-1,22
 253 965 253 965 397 965 c 0,23,24
 500 965 500 965 655 934 c 1,25,-1
 655 729 l 1,26,-1
 608 729 l 1,27,-1
 566 838 l 1,28,29
 513 885 513 885 399 885 c 0,30,31
 318 885 318 885 275.5 845 c 128,-1,32
 233 805 233 805 233 737 c 0,33,34
 233 680 233 680 271.5 641 c 128,-1,35
 310 602 310 602 388 576 c 0,36,37
 535 526 535 526 580 503 c 128,-1,38
 625 480 625 480 656.5 446.5 c 128,-1,39
 688 413 688 413 705.5 370 c 128,-1,40
 723 327 723 327 723 264 c 0,0,1
EndSplineSet
EndChar

StartChar: t
Encoding: 116 116 87
Width: 569
GlyphClass: 2
Flags: W
AnchorPoint: "bottom" 300 -15 basechar 0
AnchorPoint: "top" 276 1149 basechar 0
LayerCount: 2
Fore
SplineSet
334 -20 m 0,0,1
 238 -20 238 -20 190.5 37 c 128,-1,2
 143 94 143 94 143 197 c 2,3,-1
 143 856 l 1,4,-1
 20 856 l 1,5,-1
 20 901 l 1,6,-1
 145 940 l 1,7,-1
 246 1153 l 1,8,-1
 309 1153 l 1,9,-1
 309 940 l 1,10,-1
 524 940 l 1,11,-1
 524 856 l 1,12,-1
 309 856 l 1,13,-1
 309 215 l 2,14,15
 309 150 309 150 338.5 117 c 128,-1,16
 368 84 368 84 416 84 c 0,17,18
 474 84 474 84 557 100 c 1,19,-1
 557 35 l 1,20,21
 522 11 522 11 456 -4.5 c 128,-1,22
 390 -20 390 -20 334 -20 c 0,0,1
EndSplineSet
EndChar

StartChar: u
Encoding: 117 117 88
Width: 1024
GlyphClass: 2
Flags: W
AnchorPoint: "bottom" 500 -38 basechar 0
AnchorPoint: "top" 460 934 basechar 0
LayerCount: 2
Fore
SplineSet
313 268 m 2,0,1
 313 96 313 96 473 96 c 0,2,3
 597 96 597 96 705 127 c 1,4,-1
 705 870 l 1,5,-1
 563 895 l 1,6,-1
 563 940 l 1,7,-1
 870 940 l 1,8,-1
 870 70 l 1,9,-1
 989 45 l 1,10,-1
 989 0 l 1,11,-1
 715 0 l 1,12,-1
 707 76 l 1,13,14
 636 37 636 37 543 8.5 c 128,-1,15
 450 -20 450 -20 387 -20 c 0,16,17
 147 -20 147 -20 147 256 c 2,18,-1
 147 870 l 1,19,-1
 27 895 l 1,20,-1
 27 940 l 1,21,-1
 313 940 l 1,22,-1
 313 268 l 2,0,1
EndSplineSet
EndChar

StartChar: v
Encoding: 118 118 89
Width: 1024
GlyphClass: 2
Flags: W
AnchorPoint: "bottom" 522 -18 basechar 0
AnchorPoint: "top" 525 926 basechar 0
LayerCount: 2
Fore
SplineSet
557 -20 m 1,0,-1
 483 -20 l 1,1,-1
 96 870 l 1,2,-1
 0 895 l 1,3,-1
 0 940 l 1,4,-1
 438 940 l 1,5,-1
 438 895 l 1,6,-1
 289 868 l 1,7,-1
 563 219 l 1,8,-1
 825 870 l 1,9,-1
 676 895 l 1,10,-1
 676 940 l 1,11,-1
 1024 940 l 1,12,-1
 1024 895 l 1,13,-1
 934 874 l 1,14,-1
 557 -20 l 1,0,-1
EndSplineSet
EndChar

StartChar: w
Encoding: 119 119 90
Width: 1479
GlyphClass: 2
Flags: W
AnchorPoint: "bottom" 724 -22 basechar 0
AnchorPoint: "top" 782 927 basechar 0
LayerCount: 2
Fore
SplineSet
1051 -20 m 1,0,-1
 973 -20 l 1,1,-1
 741 600 l 1,2,-1
 512 -20 l 1,3,-1
 438 -20 l 1,4,-1
 113 870 l 1,5,-1
 2 895 l 1,6,-1
 2 940 l 1,7,-1
 449 940 l 1,8,-1
 449 895 l 1,9,-1
 293 868 l 1,10,-1
 516 233 l 1,11,-1
 743 846 l 1,12,-1
 827 846 l 1,13,-1
 1053 229 l 1,14,-1
 1266 870 l 1,15,-1
 1112 895 l 1,16,-1
 1112 940 l 1,17,-1
 1470 940 l 1,18,-1
 1470 895 l 1,19,-1
 1366 874 l 1,20,-1
 1051 -20 l 1,0,-1
EndSplineSet
EndChar

StartChar: x
Encoding: 120 120 91
Width: 1024
GlyphClass: 2
Flags: W
AnchorPoint: "bottom" 479 -1 basechar 0
AnchorPoint: "top" 526 940 basechar 0
LayerCount: 2
Fore
SplineSet
999 45 m 1,0,-1
 999 0 l 1,1,-1
 573 0 l 1,2,-1
 573 45 l 1,3,-1
 698 68 l 1,4,-1
 481 401 l 1,5,-1
 227 66 l 1,6,-1
 356 45 l 1,7,-1
 356 0 l 1,8,-1
 18 0 l 1,9,-1
 18 45 l 1,10,-1
 127 61 l 1,11,-1
 436 469 l 1,12,-1
 164 870 l 1,13,-1
 53 895 l 1,14,-1
 53 940 l 1,15,-1
 479 940 l 1,16,-1
 479 895 l 1,17,-1
 354 868 l 1,18,-1
 535 598 l 1,19,-1
 743 870 l 1,20,-1
 614 895 l 1,21,-1
 614 940 l 1,22,-1
 952 940 l 1,23,-1
 952 895 l 1,24,-1
 844 874 l 1,25,-1
 580 532 l 1,26,-1
 889 66 l 1,27,-1
 999 45 l 1,0,-1
EndSplineSet
EndChar

StartChar: y
Encoding: 121 121 92
Width: 1024
GlyphClass: 2
Flags: W
AnchorPoint: "bottom" 357 -440 basechar 0
AnchorPoint: "top" 526 929 basechar 0
LayerCount: 2
Fore
SplineSet
199 -442 m 0,0,1
 121 -442 121 -442 45 -424 c 1,2,-1
 45 -221 l 1,3,-1
 92 -221 l 1,4,-1
 125 -317 l 1,5,6
 156 -340 156 -340 211 -340 c 0,7,8
 263 -340 263 -340 307 -310 c 128,-1,9
 351 -280 351 -280 387.5 -221 c 128,-1,10
 424 -162 424 -162 479 -10 c 1,11,-1
 121 870 l 1,12,-1
 25 895 l 1,13,-1
 25 940 l 1,14,-1
 461 940 l 1,15,-1
 461 895 l 1,16,-1
 313 868 l 1,17,-1
 567 211 l 1,18,-1
 813 870 l 1,19,-1
 666 895 l 1,20,-1
 666 940 l 1,21,-1
 1016 940 l 1,22,-1
 1016 895 l 1,23,-1
 918 874 l 1,24,-1
 551 -59 l 2,25,26
 486 -224 486 -224 438 -296 c 128,-1,27
 390 -368 390 -368 332 -405 c 128,-1,28
 274 -442 274 -442 199 -442 c 0,0,1
EndSplineSet
EndChar

StartChar: z
Encoding: 122 122 93
Width: 909
GlyphClass: 2
Flags: W
AnchorPoint: "bottom" 441 5 basechar 0
AnchorPoint: "top" 444 938 basechar 0
LayerCount: 2
Fore
SplineSet
55 0 m 1,0,-1
 55 45 l 1,1,-1
 571 860 l 1,2,-1
 350 860 l 2,3,4
 294 860 294 860 242 850.5 c 128,-1,5
 190 841 190 841 170 825 c 1,6,-1
 139 690 l 1,7,-1
 92 690 l 1,8,-1
 92 940 l 1,9,-1
 786 940 l 1,10,-1
 786 891 l 1,11,-1
 270 80 l 1,12,-1
 545 80 l 2,13,14
 602 80 602 80 665 93.5 c 128,-1,15
 728 107 728 107 754 127 c 1,16,-1
 805 324 l 1,17,-1
 852 324 l 1,18,-1
 827 0 l 1,19,-1
 55 0 l 1,0,-1
EndSplineSet
EndChar

StartChar: braceleft
Encoding: 123 123 94
Width: 983
GlyphClass: 2
Flags: W
LayerCount: 2
Fore
SplineSet
662 -274 m 2,0,1
 536 -274 536 -274 468.5 -197 c 128,-1,2
 401 -120 401 -120 401 20 c 2,3,-1
 401 315 l 2,4,5
 401 432 401 432 348.5 490.5 c 128,-1,6
 296 549 296 549 186 553 c 1,7,-1
 186 598 l 1,8,9
 401 602 401 602 401 834 c 2,10,-1
 401 1128 l 2,11,12
 401 1269 401 1269 466 1345 c 128,-1,13
 531 1421 531 1421 662 1421 c 2,14,-1
 797 1421 l 1,15,-1
 797 1374 l 1,16,-1
 735 1374 l 2,17,18
 644 1374 644 1374 605.5 1319.5 c 128,-1,19
 567 1265 567 1265 567 1159 c 2,20,-1
 567 829 l 2,21,22
 567 734 567 734 515 665.5 c 128,-1,23
 463 597 463 597 375 578 c 1,24,-1
 375 575 l 1,25,26
 464 554 464 554 515.5 486.5 c 128,-1,27
 567 419 567 419 567 322 c 2,28,-1
 567 -12 l 2,29,30
 567 -118 567 -118 605.5 -172.5 c 128,-1,31
 644 -227 644 -227 735 -227 c 2,32,-1
 797 -227 l 1,33,-1
 797 -274 l 1,34,-1
 662 -274 l 2,0,1
EndSplineSet
Validated: 1
EndChar

StartChar: bar
Encoding: 124 124 95
Width: 410
GlyphClass: 2
Flags: W
LayerCount: 2
Fore
SplineSet
154 -442 m 1,0,-1
 154 1421 l 1,1,-1
 256 1421 l 1,2,-1
 256 -442 l 1,3,-1
 154 -442 l 1,0,-1
EndSplineSet
Validated: 1
EndChar

StartChar: braceright
Encoding: 125 125 96
Width: 983
GlyphClass: 2
Flags: W
LayerCount: 2
Fore
SplineSet
186 -274 m 1,0,-1
 186 -227 l 1,1,-1
 248 -227 l 2,2,3
 339 -227 339 -227 377.5 -172.5 c 128,-1,4
 416 -118 416 -118 416 -12 c 2,5,-1
 416 322 l 2,6,7
 416 419 416 419 467 486.5 c 128,-1,8
 518 554 518 554 608 575 c 1,9,-1
 608 578 l 1,10,11
 520 597 520 597 468 666 c 128,-1,12
 416 735 416 735 416 829 c 2,13,-1
 416 1159 l 2,14,15
 416 1265 416 1265 377.5 1319.5 c 128,-1,16
 339 1374 339 1374 248 1374 c 2,17,-1
 186 1374 l 1,18,-1
 186 1421 l 1,19,-1
 322 1421 l 2,20,21
 452 1421 452 1421 517 1345 c 128,-1,22
 582 1269 582 1269 582 1128 c 2,23,-1
 582 834 l 2,24,25
 582 602 582 602 797 598 c 1,26,-1
 797 553 l 1,27,28
 689 549 689 549 635.5 491 c 128,-1,29
 582 433 582 433 582 315 c 2,30,-1
 582 20 l 2,31,32
 582 -119 582 -119 514.5 -196.5 c 128,-1,33
 447 -274 447 -274 322 -274 c 2,34,-1
 186 -274 l 1,0,-1
EndSplineSet
Validated: 1
EndChar

StartChar: asciitilde
Encoding: 126 126 97
Width: 1108
GlyphClass: 2
Flags: W
LayerCount: 2
Fore
SplineSet
780 502 m 0,0,1
 674 502 674 502 535 623 c 1,2,3
 461 686 461 686 412.5 714.5 c 128,-1,4
 364 743 364 743 326 743 c 0,5,6
 249 743 249 743 210 688.5 c 128,-1,7
 171 634 171 634 158 502 c 1,8,-1
 57 502 l 1,9,10
 75 689 75 689 141.5 767.5 c 128,-1,11
 208 846 208 846 326 846 c 0,12,13
 382 846 382 846 441.5 817 c 128,-1,14
 501 788 501 788 576 725 c 0,15,16
 662 653 662 653 703.5 628.5 c 128,-1,17
 745 604 745 604 780 604 c 0,18,19
 849 604 849 604 888 656.5 c 128,-1,20
 927 709 927 709 946 846 c 1,21,-1
 1049 846 l 1,22,23
 1032 716 1032 716 1000 647 c 128,-1,24
 968 578 968 578 915 540 c 128,-1,25
 862 502 862 502 780 502 c 0,0,1
EndSplineSet
Validated: 1
EndChar

StartChar: dagger
Encoding: 8224 8224 130
Width: 1024
GlyphClass: 2
Flags: W
LayerCount: 2
Fore
SplineSet
612 780 m 1,0,-1
 535 -240 l 1,1,-1
 489 -240 l 1,2,-1
 416 780 l 1,3,-1
 479 940 l 1,4,-1
 63 893 l 1,5,-1
 63 1049 l 1,6,-1
 479 1006 l 1,7,-1
 436 1421 l 1,8,-1
 592 1421 l 1,9,-1
 545 1006 l 1,10,-1
 961 1049 l 1,11,-1
 961 893 l 1,12,-1
 545 940 l 1,13,-1
 612 780 l 1,0,-1
EndSplineSet
Validated: 1
EndChar

StartChar: degree
Encoding: 176 176 131
Width: 819
GlyphClass: 2
Flags: W
LayerCount: 2
Fore
SplineSet
98 1051 m 0,0,1
 98 1134 98 1134 139 1206 c 128,-1,2
 180 1278 180 1278 252.5 1320 c 128,-1,3
 325 1362 325 1362 408 1362 c 256,4,5
 491 1362 491 1362 563 1320.5 c 128,-1,6
 635 1279 635 1279 677 1207 c 128,-1,7
 719 1135 719 1135 719 1051 c 256,8,9
 719 967 719 967 676.5 894.5 c 128,-1,10
 634 822 634 822 562 781.5 c 128,-1,11
 490 741 490 741 408 741 c 0,12,13
 278 741 278 741 188 831 c 128,-1,14
 98 921 98 921 98 1051 c 0,0,1
200 1051 m 0,15,16
 200 962 200 962 261.5 901.5 c 128,-1,17
 323 841 323 841 408 841 c 0,18,19
 496 841 496 841 556.5 902 c 128,-1,20
 617 963 617 963 617 1051 c 0,21,22
 617 1140 617 1140 556.5 1201 c 128,-1,23
 496 1262 496 1262 408 1262 c 0,24,25
 323 1262 323 1262 261.5 1201.5 c 128,-1,26
 200 1141 200 1141 200 1051 c 0,15,16
EndSplineSet
Validated: 1
EndChar

StartChar: cent
Encoding: 162 162 132
Width: 1024
GlyphClass: 2
Flags: W
LayerCount: 2
Fore
SplineSet
536 186 m 1,0,1
 329 199 329 199 228 323 c 128,-1,2
 127 447 127 447 127 684 c 0,3,4
 127 905 127 905 232.5 1031.5 c 128,-1,5
 338 1158 338 1158 536 1169 c 1,6,-1
 536 1341 l 1,7,-1
 618 1341 l 1,8,-1
 618 1171 l 1,9,10
 753 1165 753 1165 872 1141 c 1,11,-1
 872 879 l 1,12,-1
 817 879 l 1,13,-1
 774 1044 l 1,14,15
 708 1080 708 1080 618 1090 c 1,16,-1
 618 291 l 1,17,-1
 641 291 l 2,18,19
 787 291 787 291 895 324 c 1,20,-1
 895 264 l 1,21,22
 860 236 860 236 789 214.5 c 128,-1,23
 718 193 718 193 618 186 c 1,24,-1
 618 0 l 1,25,-1
 536 0 l 1,26,-1
 536 186 l 1,0,1
307 684 m 0,27,28
 307 506 307 506 362 415.5 c 128,-1,29
 417 325 417 325 536 301 c 1,30,-1
 536 1090 l 1,31,32
 307 1061 307 1061 307 684 c 0,27,28
EndSplineSet
Validated: 1
EndChar

StartChar: sterling
Encoding: 163 163 133
Width: 1024
GlyphClass: 2
Flags: W
LayerCount: 2
Fore
SplineSet
961 154 m 1,0,-1
 961 0 l 1,1,-1
 123 0 l 1,2,-1
 123 117 l 1,3,-1
 195 181 l 1,4,5
 338 305 338 305 338 430 c 0,6,7
 338 477 338 477 321.5 526 c 128,-1,8
 305 575 305 575 283 629 c 1,9,-1
 121 629 l 1,10,-1
 121 711 l 1,11,-1
 248 711 l 1,12,13
 181 867 181 867 181 1006 c 0,14,15
 181 1174 181 1174 285.5 1265 c 128,-1,16
 390 1356 390 1356 598 1356 c 0,17,18
 654 1356 654 1356 713 1348.5 c 128,-1,19
 772 1341 772 1341 891 1313 c 1,20,-1
 891 1055 l 1,21,-1
 826 1055 l 1,22,-1
 791 1219 l 1,23,24
 698 1272 698 1272 598 1272 c 0,25,26
 369 1272 369 1272 369 1006 c 0,27,28
 369 869 369 869 398 711 c 1,29,-1
 676 711 l 1,30,-1
 676 629 l 1,31,-1
 414 629 l 1,32,33
 430 520 430 520 430 459 c 0,34,35
 430 370 430 370 394 299 c 128,-1,36
 358 228 358 228 271 154 c 1,37,-1
 961 154 l 1,0,-1
EndSplineSet
Validated: 1
EndChar

StartChar: section
Encoding: 167 167 134
Width: 1024
GlyphClass: 2
Flags: W
LayerCount: 2
Fore
SplineSet
842 29 m 0,0,1
 842 -109 842 -109 749 -182.5 c 128,-1,2
 656 -256 656 -256 481 -256 c 0,3,4
 402 -256 402 -256 311.5 -239.5 c 128,-1,5
 221 -223 221 -223 184 -209 c 1,6,-1
 184 23 l 1,7,-1
 229 23 l 1,8,-1
 268 -109 l 1,9,10
 298 -137 298 -137 360.5 -156.5 c 128,-1,11
 423 -176 423 -176 483 -176 c 0,12,13
 581 -176 581 -176 634.5 -133.5 c 128,-1,14
 688 -91 688 -91 688 -10 c 0,15,16
 688 40 688 40 665.5 78 c 128,-1,17
 643 116 643 116 606 146 c 128,-1,18
 569 176 569 176 521.5 202 c 128,-1,19
 474 228 474 228 425 254.5 c 128,-1,20
 376 281 376 281 328.5 310.5 c 128,-1,21
 281 340 281 340 244 378.5 c 128,-1,22
 207 417 207 417 184.5 466.5 c 128,-1,23
 162 516 162 516 162 582 c 0,24,25
 162 678 162 678 228 747.5 c 128,-1,26
 294 817 294 817 399 838 c 1,27,28
 291 893 291 893 242 962.5 c 128,-1,29
 193 1032 193 1032 193 1122 c 0,30,31
 193 1246 193 1246 277.5 1317.5 c 128,-1,32
 362 1389 362 1389 506 1389 c 0,33,34
 621 1389 621 1389 764 1364 c 1,35,-1
 764 1153 l 1,36,-1
 717 1153 l 1,37,-1
 684 1262 l 1,38,39
 660 1283 660 1283 613.5 1296 c 128,-1,40
 567 1309 567 1309 508 1309 c 0,41,42
 426 1309 426 1309 384 1269 c 128,-1,43
 342 1229 342 1229 342 1161 c 0,44,45
 342 1113 342 1113 366 1078 c 128,-1,46
 390 1043 390 1043 431.5 1015 c 128,-1,47
 473 987 473 987 607 925 c 0,48,49
 716 875 716 875 766 834 c 128,-1,50
 816 793 816 793 844 741 c 128,-1,51
 872 689 872 689 872 623 c 0,52,53
 872 517 872 517 804 442.5 c 128,-1,54
 736 368 736 368 614 342 c 1,55,56
 706 289 706 289 750 245.5 c 128,-1,57
 794 202 794 202 818 149 c 128,-1,58
 842 96 842 96 842 29 c 0,0,1
719 580 m 0,59,60
 719 623 719 623 698 656 c 128,-1,61
 677 689 677 689 637 718 c 128,-1,62
 597 747 597 747 506 788 c 1,63,64
 421 784 421 784 366 736 c 128,-1,65
 311 688 311 688 311 618 c 0,66,67
 311 572 311 572 329 539.5 c 128,-1,68
 347 507 347 507 380 480 c 128,-1,69
 413 453 413 453 522 393 c 1,70,71
 614 404 614 404 666.5 454 c 128,-1,72
 719 504 719 504 719 580 c 0,59,60
EndSplineSet
Validated: 1
EndChar

StartChar: bullet
Encoding: 8226 8226 135
Width: 717
GlyphClass: 2
Flags: W
LayerCount: 2
Fore
SplineSet
602 678 m 256,0,1
 602 576 602 576 531 505 c 128,-1,2
 460 434 460 434 358 434 c 0,3,4
 257 434 257 434 186 505 c 128,-1,5
 115 576 115 576 115 678 c 256,6,7
 115 780 115 780 186 851 c 128,-1,8
 257 922 257 922 358 922 c 0,9,10
 460 922 460 922 531 851 c 128,-1,11
 602 780 602 780 602 678 c 256,0,1
EndSplineSet
Validated: 1
EndChar

StartChar: paragraph
Encoding: 182 182 136
Width: 928
GlyphClass: 2
Flags: W
LayerCount: 2
Fore
SplineSet
811 1266 m 1,0,-1
 811 -258 l 1,1,-1
 717 -258 l 1,2,-1
 717 1266 l 1,3,-1
 547 1266 l 1,4,-1
 547 -258 l 1,5,-1
 453 -258 l 1,6,-1
 455 565 l 1,7,8
 246 565 246 565 127 670.5 c 128,-1,9
 8 776 8 776 8 963 c 0,10,11
 8 1146 8 1146 120 1243.5 c 128,-1,12
 232 1341 232 1341 442 1341 c 2,13,-1
 905 1341 l 1,14,-1
 905 1288 l 1,15,-1
 811 1266 l 1,0,-1
EndSplineSet
Validated: 1
EndChar

StartChar: germandbls
Encoding: 223 223 137
Width: 1024
GlyphClass: 2
Flags: W
LayerCount: 2
Fore
SplineSet
877 997 m 1,0,1
 832 992 832 992 784.5 985.5 c 128,-1,2
 737 979 737 979 699 961 c 128,-1,3
 661 943 661 943 636.5 910 c 128,-1,4
 612 877 612 877 612 819 c 0,5,6
 612 746 612 746 651.5 690.5 c 128,-1,7
 691 635 691 635 782 571 c 0,8,9
 868 510 868 510 910 435 c 128,-1,10
 952 360 952 360 952 256 c 0,11,12
 952 119 952 119 875.5 49.5 c 128,-1,13
 799 -20 799 -20 651 -20 c 0,14,15
 589 -20 589 -20 520.5 -7 c 128,-1,16
 452 6 452 6 418 27 c 1,17,-1
 418 219 l 1,18,-1
 463 219 l 1,19,-1
 496 125 l 1,20,21
 519 97 519 97 558.5 78 c 128,-1,22
 598 59 598 59 649 59 c 0,23,24
 799 59 799 59 799 225 c 0,25,26
 799 306 799 306 758.5 366 c 128,-1,27
 718 426 718 426 631 485 c 0,28,29
 548 542 548 542 505.5 613.5 c 128,-1,30
 463 685 463 685 463 784 c 0,31,32
 463 892 463 892 526 959 c 128,-1,33
 589 1026 589 1026 713 1047 c 1,34,35
 713 1214 713 1214 670 1288 c 128,-1,36
 627 1362 627 1362 520 1362 c 0,37,38
 326 1362 326 1362 326 1110 c 2,39,-1
 326 0 l 1,40,-1
 20 0 l 1,41,-1
 20 45 l 1,42,-1
 160 70 l 1,43,-1
 160 1061 l 2,44,45
 160 1249 160 1249 250.5 1345.5 c 128,-1,46
 341 1442 341 1442 520 1442 c 0,47,48
 707 1442 707 1442 792 1336 c 128,-1,49
 877 1230 877 1230 877 997 c 1,0,1
EndSplineSet
Validated: 1
EndChar

StartChar: registered
Encoding: 174 174 138
Width: 1556
GlyphClass: 2
Flags: W
LayerCount: 2
Fore
SplineSet
88 670 m 0,0,1
 88 859 88 859 181.5 1019.5 c 128,-1,2
 275 1180 275 1180 433.5 1271 c 128,-1,3
 592 1362 592 1362 778 1362 c 0,4,5
 965 1362 965 1362 1125 1270 c 128,-1,6
 1285 1178 1285 1178 1377.5 1018.5 c 128,-1,7
 1470 859 1470 859 1470 670 c 0,8,9
 1470 485 1470 485 1379.5 326.5 c 128,-1,10
 1289 168 1289 168 1128.5 74 c 128,-1,11
 968 -20 968 -20 778 -20 c 0,12,13
 592 -20 592 -20 432 72 c 128,-1,14
 272 164 272 164 180 324 c 128,-1,15
 88 484 88 484 88 670 c 0,0,1
158 670 m 0,16,17
 158 503 158 503 241.5 358.5 c 128,-1,18
 325 214 325 214 468.5 131.5 c 128,-1,19
 612 49 612 49 778 49 c 0,20,21
 945 49 945 49 1089 131.5 c 128,-1,22
 1233 214 1233 214 1317 358 c 128,-1,23
 1401 502 1401 502 1401 670 c 256,24,25
 1401 838 1401 838 1316 983 c 128,-1,26
 1231 1128 1231 1128 1088 1210 c 128,-1,27
 945 1292 945 1292 778 1292 c 256,28,29
 611 1292 611 1292 467 1208.5 c 128,-1,30
 323 1125 323 1125 240.5 980.5 c 128,-1,31
 158 836 158 836 158 670 c 0,16,17
668 625 m 1,32,-1
 668 336 l 1,33,-1
 782 319 l 1,34,-1
 782 276 l 1,35,-1
 436 276 l 1,36,-1
 436 319 l 1,37,-1
 532 336 l 1,38,-1
 532 1024 l 1,39,-1
 428 1040 l 1,40,-1
 428 1081 l 1,41,-1
 758 1081 l 2,42,43
 914 1081 914 1081 993.5 1023.5 c 128,-1,44
 1073 966 1073 966 1073 860 c 0,45,46
 1073 783 1073 783 1028 727 c 128,-1,47
 983 671 983 671 895 643 c 1,48,-1
 1108 336 l 1,49,-1
 1192 319 l 1,50,-1
 1192 276 l 1,51,-1
 987 276 l 1,52,-1
 758 625 l 1,53,-1
 668 625 l 1,32,-1
932 858 m 0,54,55
 932 947 932 947 889 983.5 c 128,-1,56
 846 1020 846 1020 731 1020 c 2,57,-1
 668 1020 l 1,58,-1
 668 688 l 1,59,-1
 735 688 l 2,60,61
 841 688 841 688 886.5 725 c 128,-1,62
 932 762 932 762 932 858 c 0,54,55
EndSplineSet
Validated: 1
EndChar

StartChar: copyright
Encoding: 169 169 139
Width: 1556
GlyphClass: 2
Flags: W
LayerCount: 2
Fore
SplineSet
88 670 m 0,0,1
 88 859 88 859 181.5 1019.5 c 128,-1,2
 275 1180 275 1180 433.5 1271 c 128,-1,3
 592 1362 592 1362 778 1362 c 0,4,5
 965 1362 965 1362 1125 1270 c 128,-1,6
 1285 1178 1285 1178 1377.5 1018.5 c 128,-1,7
 1470 859 1470 859 1470 670 c 0,8,9
 1470 485 1470 485 1379.5 326.5 c 128,-1,10
 1289 168 1289 168 1128.5 74 c 128,-1,11
 968 -20 968 -20 778 -20 c 0,12,13
 592 -20 592 -20 432 72 c 128,-1,14
 272 164 272 164 180 324 c 128,-1,15
 88 484 88 484 88 670 c 0,0,1
158 670 m 0,16,17
 158 503 158 503 241.5 358.5 c 128,-1,18
 325 214 325 214 468.5 131.5 c 128,-1,19
 612 49 612 49 778 49 c 0,20,21
 945 49 945 49 1089 131.5 c 128,-1,22
 1233 214 1233 214 1317 358 c 128,-1,23
 1401 502 1401 502 1401 670 c 256,24,25
 1401 838 1401 838 1316 983 c 128,-1,26
 1231 1128 1231 1128 1088 1210 c 128,-1,27
 945 1292 945 1292 778 1292 c 256,28,29
 611 1292 611 1292 467 1208.5 c 128,-1,30
 323 1125 323 1125 240.5 980.5 c 128,-1,31
 158 836 158 836 158 670 c 0,16,17
795 258 m 0,32,33
 600 258 600 258 489.5 364.5 c 128,-1,34
 379 471 379 471 379 664 c 0,35,36
 379 873 379 873 484.5 979 c 128,-1,37
 590 1085 590 1085 797 1085 c 0,38,39
 912 1085 912 1085 1065 1055 c 1,40,-1
 1069 868 l 1,41,-1
 1020 868 l 1,42,-1
 1001 973 l 1,43,44
 919 1024 919 1024 801 1024 c 0,45,46
 654 1024 654 1024 590 939 c 128,-1,47
 526 854 526 854 526 666 c 0,48,49
 526 317 526 317 795 317 c 0,50,51
 936 317 936 317 1010 377 c 1,52,-1
 1032 496 l 1,53,-1
 1081 496 l 1,54,-1
 1077 297 l 1,55,56
 953 258 953 258 795 258 c 0,32,33
EndSplineSet
Validated: 1
EndChar

StartChar: trademark
Encoding: 8482 8482 140
Width: 2007
GlyphClass: 2
Flags: W
LayerCount: 2
Fore
SplineSet
254 537 m 1,0,-1
 254 580 l 1,1,-1
 381 596 l 1,2,-1
 381 1280 l 1,3,-1
 350 1280 l 2,4,5
 204 1280 204 1280 154 1268 c 1,6,-1
 137 1143 l 1,7,-1
 96 1143 l 1,8,-1
 96 1341 l 1,9,-1
 805 1341 l 1,10,-1
 805 1143 l 1,11,-1
 764 1143 l 1,12,-1
 748 1268 l 1,13,14
 704 1278 704 1278 547 1278 c 2,15,-1
 518 1278 l 1,16,-1
 518 596 l 1,17,-1
 645 580 l 1,18,-1
 645 537 l 1,19,-1
 254 537 l 1,0,-1
1380 537 m 1,20,-1
 1352 537 l 1,21,-1
 1067 1206 l 1,22,-1
 1067 596 l 1,23,-1
 1176 580 l 1,24,-1
 1176 537 l 1,25,-1
 891 537 l 1,26,-1
 891 580 l 1,27,-1
 995 596 l 1,28,-1
 995 1284 l 1,29,-1
 891 1300 l 1,30,-1
 891 1341 l 1,31,-1
 1161 1341 l 1,32,-1
 1405 758 l 1,33,-1
 1669 1341 l 1,34,-1
 1923 1341 l 1,35,-1
 1923 1300 l 1,36,-1
 1821 1284 l 1,37,-1
 1821 596 l 1,38,-1
 1923 580 l 1,39,-1
 1923 537 l 1,40,-1
 1575 537 l 1,41,-1
 1575 580 l 1,42,-1
 1683 596 l 1,43,-1
 1683 1204 l 1,44,-1
 1380 537 l 1,20,-1
EndSplineSet
Validated: 1
EndChar

StartChar: acute
Encoding: 180 180 141
Width: 682
GlyphClass: 2
Flags: W
LayerCount: 2
Fore
SplineSet
156 1119 m 1,0,-1
 156 1152 l 1,1,-1
 352 1424 l 1,2,-1
 565 1424 l 1,3,-1
 565 1387 l 1,4,-1
 211 1119 l 1,5,-1
 156 1119 l 1,0,-1
EndSplineSet
Validated: 1
EndChar

StartChar: dieresis
Encoding: 168 168 142
Width: 682
GlyphClass: 2
Flags: W
LayerCount: 2
Fore
SplineSet
618 1194 m 256,0,1
 618 1152 618 1152 590 1122.5 c 128,-1,2
 562 1093 562 1093 520 1093 c 256,3,4
 478 1093 478 1093 449 1124 c 128,-1,5
 420 1155 420 1155 420 1194 c 0,6,7
 420 1236 420 1236 449 1265 c 128,-1,8
 478 1294 478 1294 520 1294 c 256,9,10
 562 1294 562 1294 590 1265 c 128,-1,11
 618 1236 618 1236 618 1194 c 256,0,1
262 1194 m 256,12,13
 262 1152 262 1152 234 1122.5 c 128,-1,14
 206 1093 206 1093 164 1093 c 0,15,16
 123 1093 123 1093 93 1123 c 128,-1,17
 63 1153 63 1153 63 1194 c 0,18,19
 63 1236 63 1236 94 1265 c 128,-1,20
 125 1294 125 1294 164 1294 c 0,21,22
 206 1294 206 1294 234 1265 c 128,-1,23
 262 1236 262 1236 262 1194 c 256,12,13
EndSplineSet
Validated: 1
EndChar

StartChar: notequal
Encoding: 8800 8800 143
Width: 1124
GlyphClass: 2
Flags: W
LayerCount: 2
Fore
SplineSet
802 936 m 1,0,-1
 1038 936 l 1,1,-1
 1038 834 l 1,2,-1
 731 834 l 1,3,-1
 516 526 l 1,4,-1
 1038 526 l 1,5,-1
 1038 424 l 1,6,-1
 444 424 l 1,7,-1
 246 140 l 1,8,-1
 123 140 l 1,9,-1
 321 424 l 1,10,-1
 85 424 l 1,11,-1
 85 526 l 1,12,-1
 392 526 l 1,13,-1
 607 834 l 1,14,-1
 85 834 l 1,15,-1
 85 936 l 1,16,-1
 678 936 l 1,17,-1
 876 1220 l 1,18,-1
 1001 1220 l 1,19,-1
 802 936 l 1,0,-1
EndSplineSet
Validated: 1
EndChar

StartChar: AE
Encoding: 198 198 144
Width: 1821
GlyphClass: 2
Flags: W
AnchorPoint: "bottom" 995 -74 basechar 0
AnchorPoint: "top" 1145 1428 basechar 0
LayerCount: 2
Fore
SplineSet
731 53 m 1,0,-1
 883 80 l 1,1,-1
 883 467 l 1,2,-1
 471 467 l 1,3,-1
 264 80 l 1,4,-1
 422 53 l 1,5,-1
 422 0 l 1,6,-1
 20 0 l 1,7,-1
 20 53 l 1,8,-1
 156 80 l 1,9,-1
 803 1270 l 1,10,-1
 639 1288 l 1,11,-1
 639 1341 l 1,12,-1
 1634 1341 l 1,13,-1
 1634 1020 l 1,14,-1
 1569 1020 l 1,15,-1
 1536 1237 l 1,16,17
 1424 1251 1424 1251 1212 1251 c 2,18,-1
 1075 1251 l 1,19,-1
 1075 727 l 1,20,-1
 1356 727 l 1,21,-1
 1386 887 l 1,22,-1
 1450 887 l 1,23,-1
 1450 475 l 1,24,-1
 1386 475 l 1,25,-1
 1356 637 l 1,26,-1
 1075 637 l 1,27,-1
 1075 90 l 1,28,-1
 1257 90 l 2,29,30
 1515 90 1515 90 1595 106 c 1,31,-1
 1653 354 l 1,32,-1
 1718 354 l 1,33,-1
 1700 0 l 1,34,-1
 731 0 l 1,35,-1
 731 53 l 1,0,-1
883 557 m 1,36,-1
 883 1231 l 1,37,-1
 520 557 l 1,38,-1
 883 557 l 1,36,-1
EndSplineSet
EndChar

StartChar: Oslash
Encoding: 216 216 145
Width: 1479
GlyphClass: 2
Flags: W
LayerCount: 2
Fore
SplineSet
84 672 m 0,0,1
 84 1356 84 1356 739 1356 c 0,2,3
 998 1356 998 1356 1157 1243 c 1,4,-1
 1280 1391 l 1,5,-1
 1395 1391 l 1,6,-1
 1225 1186 l 1,7,8
 1395 1008 1395 1008 1395 672 c 0,9,10
 1395 330 1395 330 1227 155 c 128,-1,11
 1059 -20 1059 -20 739 -20 c 0,12,13
 480 -20 480 -20 326 90 c 1,14,-1
 205 -55 l 1,15,-1
 86 -55 l 1,16,-1
 256 150 l 1,17,18
 84 326 84 326 84 672 c 0,0,1
293 672 m 0,19,20
 293 419 293 419 358 274 c 1,21,-1
 1073 1139 l 1,22,23
 965 1276 965 1276 739 1276 c 0,24,25
 508 1276 508 1276 400.5 1134.5 c 128,-1,26
 293 993 293 993 293 672 c 0,19,20
1186 672 m 0,27,28
 1186 916 1186 916 1122 1059 c 1,29,-1
 410 193 l 1,30,31
 516 59 516 59 739 59 c 0,32,33
 968 59 968 59 1077 204 c 128,-1,34
 1186 349 1186 349 1186 672 c 0,27,28
EndSplineSet
Validated: 1
EndChar

StartChar: infinity
Encoding: 8734 8734 146
Width: 1460
GlyphClass: 2
Flags: W
LayerCount: 2
Fore
SplineSet
1382 590 m 0,0,1
 1382 425 1382 425 1292.5 314 c 128,-1,2
 1203 203 1203 203 1067 203 c 0,3,4
 857 203 857 203 716 467 c 1,5,6
 652 340 652 340 570 274.5 c 128,-1,7
 488 209 488 209 395 209 c 0,8,9
 253 209 253 209 165 315 c 128,-1,10
 77 421 77 421 77 596 c 0,11,12
 77 765 77 765 166 874 c 128,-1,13
 255 983 255 983 395 983 c 0,14,15
 500 983 500 983 589 919 c 128,-1,16
 678 855 678 855 743 725 c 1,17,18
 807 850 807 850 885.5 913.5 c 128,-1,19
 964 977 964 977 1069 977 c 0,20,21
 1211 977 1211 977 1296.5 869.5 c 128,-1,22
 1382 762 1382 762 1382 590 c 0,0,1
1088 872 m 0,23,24
 1008 872 1008 872 941.5 802 c 128,-1,25
 875 732 875 732 811 590 c 1,26,27
 871 449 871 449 937.5 378 c 128,-1,28
 1004 307 1004 307 1090 307 c 0,29,30
 1186 307 1186 307 1246.5 387 c 128,-1,31
 1307 467 1307 467 1307 592 c 0,32,33
 1307 712 1307 712 1246 792 c 128,-1,34
 1185 872 1185 872 1088 872 c 0,23,24
645 596 m 1,35,36
 588 736 588 736 521.5 807.5 c 128,-1,37
 455 879 455 879 365 879 c 0,38,39
 272 879 272 879 212.5 798.5 c 128,-1,40
 153 718 153 718 153 594 c 0,41,42
 153 468 153 468 211.5 390.5 c 128,-1,43
 270 313 270 313 369 313 c 0,44,45
 450 313 450 313 517 383.5 c 128,-1,46
 584 454 584 454 645 596 c 1,35,36
EndSplineSet
Validated: 1
EndChar

StartChar: plusminus
Encoding: 177 177 147
Width: 1124
GlyphClass: 2
Flags: W
LayerCount: 2
Fore
SplineSet
612 629 m 1,0,-1
 612 203 l 1,1,-1
 509 203 l 1,2,-1
 509 629 l 1,3,-1
 85 629 l 1,4,-1
 85 731 l 1,5,-1
 509 731 l 1,6,-1
 509 1157 l 1,7,-1
 612 1157 l 1,8,-1
 612 731 l 1,9,-1
 1038 731 l 1,10,-1
 1038 629 l 1,11,-1
 612 629 l 1,0,-1
1038 102 m 1,12,-1
 1038 0 l 1,13,-1
 85 0 l 1,14,-1
 85 102 l 1,15,-1
 1038 102 l 1,12,-1
EndSplineSet
Validated: 1
EndChar

StartChar: lessequal
Encoding: 8804 8804 148
Width: 1124
GlyphClass: 2
Flags: W
LayerCount: 2
Fore
SplineSet
85 655 m 1,0,-1
 85 705 l 1,1,-1
 1038 1174 l 1,2,-1
 1038 1071 l 1,3,-1
 229 680 l 1,4,-1
 1038 289 l 1,5,-1
 1038 186 l 1,6,-1
 85 655 l 1,0,-1
1038 102 m 1,7,-1
 1038 0 l 1,8,-1
 85 0 l 1,9,-1
 85 102 l 1,10,-1
 1038 102 l 1,7,-1
EndSplineSet
Validated: 1
EndChar

StartChar: greaterequal
Encoding: 8805 8805 149
Width: 1124
GlyphClass: 2
Flags: W
LayerCount: 2
Fore
SplineSet
86 186 m 1,0,-1
 86 289 l 1,1,-1
 895 680 l 1,2,-1
 86 1071 l 1,3,-1
 86 1174 l 1,4,-1
 1039 705 l 1,5,-1
 1039 655 l 1,6,-1
 86 186 l 1,0,-1
1037 102 m 1,7,-1
 1037 0 l 1,8,-1
 84 0 l 1,9,-1
 84 102 l 1,10,-1
 1037 102 l 1,7,-1
EndSplineSet
Validated: 1
EndChar

StartChar: yen
Encoding: 165 165 150
Width: 1024
GlyphClass: 2
Flags: W
LayerCount: 2
Fore
SplineSet
885 393 m 1,0,-1
 885 311 l 1,1,-1
 606 311 l 1,2,-1
 606 80 l 1,3,-1
 778 53 l 1,4,-1
 778 0 l 1,5,-1
 242 0 l 1,6,-1
 242 53 l 1,7,-1
 414 80 l 1,8,-1
 414 311 l 1,9,-1
 135 311 l 1,10,-1
 135 393 l 1,11,-1
 414 393 l 1,12,-1
 414 522 l 1,13,-1
 399 557 l 1,14,-1
 135 557 l 1,15,-1
 135 639 l 1,16,-1
 365 639 l 1,17,-1
 102 1262 l 1,18,-1
 2 1288 l 1,19,-1
 2 1341 l 1,20,-1
 455 1341 l 1,21,-1
 455 1288 l 1,22,-1
 324 1262 l 1,23,-1
 563 643 l 1,24,-1
 809 1262 l 1,25,-1
 686 1288 l 1,26,-1
 686 1341 l 1,27,-1
 1022 1341 l 1,28,-1
 1022 1288 l 1,29,-1
 918 1262 l 1,30,-1
 653 639 l 1,31,-1
 885 639 l 1,32,-1
 885 557 l 1,33,-1
 618 557 l 1,34,-1
 606 528 l 1,35,-1
 606 393 l 1,36,-1
 885 393 l 1,0,-1
EndSplineSet
Validated: 1
EndChar

StartChar: mu
Encoding: 181 181 151
Width: 1180
GlyphClass: 2
Flags: W
LayerCount: 2
Fore
SplineSet
816 121 m 1,0,1
 725 38 725 38 664 9 c 128,-1,2
 603 -20 603 -20 546 -20 c 0,3,4
 427 -20 427 -20 366 58 c 1,5,6
 366 -230 366 -230 332 -436 c 1,7,-1
 154 -436 l 1,8,-1
 154 -391 l 1,9,10
 175 -324 175 -324 190.5 -187 c 128,-1,11
 206 -50 206 -50 206 69 c 2,12,-1
 206 870 l 1,13,-1
 66 895 l 1,14,-1
 66 940 l 1,15,-1
 372 940 l 1,16,-1
 372 288 l 2,17,18
 372 201 372 201 427.5 148.5 c 128,-1,19
 483 96 483 96 579 96 c 0,20,21
 630 96 630 96 693.5 120 c 128,-1,22
 757 144 757 144 811 183 c 1,23,-1
 811 870 l 1,24,-1
 669 895 l 1,25,-1
 669 940 l 1,26,-1
 976 940 l 1,27,-1
 976 70 l 1,28,-1
 1113 45 l 1,29,-1
 1113 0 l 1,30,-1
 835 0 l 1,31,-1
 816 121 l 1,0,1
EndSplineSet
Validated: 1
EndChar

StartChar: partialdiff
Encoding: 8706 8706 152
Width: 1012
GlyphClass: 2
Flags: W
LayerCount: 2
Fore
SplineSet
928 938 m 0,0,1
 928 768 928 768 892 579 c 128,-1,2
 856 390 856 390 784.5 252.5 c 128,-1,3
 713 115 713 115 612.5 44 c 128,-1,4
 512 -27 512 -27 388 -27 c 0,5,6
 236 -27 236 -27 152 66.5 c 128,-1,7
 68 160 68 160 68 332 c 0,8,9
 68 487 68 487 138 638 c 128,-1,10
 208 789 208 789 318 864.5 c 128,-1,11
 428 940 428 940 564 940 c 0,12,13
 657 940 657 940 728.5 890.5 c 128,-1,14
 800 841 800 841 834 758 c 1,15,-1
 838 758 l 1,16,-1
 842 874 l 1,17,18
 842 1101 842 1101 767.5 1222 c 128,-1,19
 693 1343 693 1343 551 1343 c 0,20,21
 444 1343 444 1343 323 1259 c 1,22,-1
 287 1292 l 1,23,-1
 392 1442 l 1,24,25
 471 1477 471 1477 549 1477 c 0,26,27
 732 1477 732 1477 830 1338.5 c 128,-1,28
 928 1200 928 1200 928 938 c 0,0,1
813 643 m 1,29,30
 795 735 795 735 734.5 795.5 c 128,-1,31
 674 856 674 856 596 856 c 0,32,33
 505 856 505 856 430 787 c 128,-1,34
 355 718 355 718 306.5 581 c 128,-1,35
 258 444 258 444 258 305 c 0,36,37
 258 181 258 181 310 112 c 128,-1,38
 362 43 362 43 451 43 c 0,39,40
 532 43 532 43 605.5 113.5 c 128,-1,41
 679 184 679 184 735 325 c 128,-1,42
 791 466 791 466 813 643 c 1,29,30
EndSplineSet
Validated: 1
EndChar

StartChar: summation
Encoding: 8721 8721 153
Width: 1460
GlyphClass: 2
Flags: W
LayerCount: 2
Fore
SplineSet
831 587 m 1,0,-1
 831 548 l 1,1,-1
 274 -266 l 1,2,-1
 719 -266 l 2,3,4
 760 -266 760 -266 808.5 -265.5 c 128,-1,5
 857 -265 857 -265 906.5 -264 c 128,-1,6
 956 -263 956 -263 1003.5 -261 c 128,-1,7
 1051 -259 1051 -259 1089.5 -257.5 c 128,-1,8
 1128 -256 1128 -256 1156 -254 c 128,-1,9
 1184 -252 1184 -252 1194 -250 c 1,10,-1
 1251 -22 l 1,11,-1
 1317 -22 l 1,12,-1
 1298 -436 l 1,13,-1
 92 -436 l 1,14,-1
 92 -362 l 1,15,-1
 670 481 l 1,16,-1
 137 1262 l 1,17,-1
 137 1341 l 1,18,-1
 1242 1341 l 1,19,-1
 1242 990 l 1,20,-1
 1176 990 l 1,21,-1
 1134 1237 l 1,22,23
 1038 1249 1038 1249 921.5 1249 c 128,-1,24
 805 1249 805 1249 782 1249 c 2,25,-1
 378 1251 l 1,26,-1
 831 587 l 1,0,-1
EndSplineSet
Validated: 1
EndChar

StartChar: product
Encoding: 8719 8719 154
Width: 1686
GlyphClass: 2
Flags: W
LayerCount: 2
Fore
SplineSet
114 -436 m 1,0,-1
 114 -383 l 1,1,-1
 286 -356 l 1,2,-1
 286 1262 l 1,3,-1
 114 1288 l 1,4,-1
 114 1341 l 1,5,-1
 1574 1341 l 1,6,-1
 1574 1288 l 1,7,-1
 1402 1262 l 1,8,-1
 1402 -356 l 1,9,-1
 1574 -383 l 1,10,-1
 1574 -436 l 1,11,-1
 1038 -436 l 1,12,-1
 1038 -383 l 1,13,-1
 1210 -356 l 1,14,-1
 1210 1251 l 1,15,-1
 479 1251 l 1,16,-1
 479 -356 l 1,17,-1
 651 -383 l 1,18,-1
 651 -436 l 1,19,-1
 114 -436 l 1,0,-1
EndSplineSet
Validated: 1
EndChar

StartChar: integral
Encoding: 8747 8747 155
Width: 561
GlyphClass: 2
Flags: W
LayerCount: 2
Fore
SplineSet
16 -549 m 0,0,1
 -13 -549 -13 -549 -54 -537.5 c 128,-1,2
 -95 -526 -95 -526 -107 -516 c 1,3,-1
 -107 -508 l 1,4,5
 -103 -495 -103 -495 -92.5 -447.5 c 128,-1,6
 -82 -400 -82 -400 -78 -377 c 1,7,-1
 -58 -377 l 1,8,9
 11 -446 11 -446 69 -446 c 0,10,11
 122 -446 122 -446 157 -367.5 c 128,-1,12
 192 -289 192 -289 192 -166 c 1,13,-1
 186 506 l 1,14,15
 186 774 186 774 200 1047 c 1,16,17
 207 1153 207 1153 256.5 1247.5 c 128,-1,18
 306 1342 306 1342 386 1402 c 128,-1,19
 466 1462 466 1462 536 1462 c 0,20,21
 561 1462 561 1462 605.5 1452 c 128,-1,22
 650 1442 650 1442 665 1430 c 1,23,-1
 665 1421 l 1,24,-1
 647 1355 l 1,25,-1
 631 1290 l 1,26,-1
 610 1290 l 1,27,28
 540 1360 540 1360 483 1360 c 0,29,30
 430 1360 430 1360 395 1281.5 c 128,-1,31
 360 1203 360 1203 360 1079 c 2,32,-1
 364 541 l 2,33,34
 364 468 364 468 360.5 307 c 128,-1,35
 357 146 357 146 348 -137 c 1,36,37
 342 -247 342 -247 291.5 -341 c 128,-1,38
 241 -435 241 -435 163.5 -492 c 128,-1,39
 86 -549 86 -549 16 -549 c 0,0,1
EndSplineSet
Validated: 1
EndChar

StartChar: ordfeminine
Encoding: 170 170 156
Width: 565
GlyphClass: 2
Flags: W
LayerCount: 2
Fore
SplineSet
281 1362 m 0,0,1
 391 1362 391 1362 441.5 1317.5 c 128,-1,2
 492 1273 492 1273 492 1190 c 2,3,-1
 492 838 l 1,4,-1
 561 823 l 1,5,-1
 561 786 l 1,6,-1
 387 786 l 1,7,-1
 375 848 l 1,8,9
 343 816 343 816 290 795 c 128,-1,10
 237 774 237 774 184 774 c 0,11,12
 111 774 111 774 73 816.5 c 128,-1,13
 35 859 35 859 35 942 c 0,14,15
 35 1024 35 1024 92.5 1067.5 c 128,-1,16
 150 1111 150 1111 287 1114 c 2,17,-1
 371 1116 l 1,18,-1
 371 1196 l 2,19,20
 371 1307 371 1307 274 1307 c 0,21,22
 212 1307 212 1307 164 1278 c 1,23,-1
 143 1219 l 1,24,-1
 100 1219 l 1,25,-1
 100 1341 l 1,26,27
 182 1362 182 1362 281 1362 c 0,0,1
371 1063 m 1,28,29
 250 1060 250 1060 226.5 1055 c 128,-1,30
 203 1050 203 1050 187.5 1038 c 128,-1,31
 172 1026 172 1026 164 1004.5 c 128,-1,32
 156 983 156 983 156 946 c 0,33,34
 156 892 156 892 177 871 c 128,-1,35
 198 850 198 850 242 850 c 0,36,37
 300 850 300 850 371 889 c 1,38,-1
 371 1063 l 1,28,29
EndSplineSet
Validated: 1
EndChar

StartChar: ordmasculine
Encoding: 186 186 157
Width: 635
GlyphClass: 2
Flags: W
LayerCount: 2
Fore
SplineSet
598 1069 m 0,0,1
 598 924 598 924 524 847 c 128,-1,2
 450 770 450 770 313 770 c 0,3,4
 184 770 184 770 110.5 847.5 c 128,-1,5
 37 925 37 925 37 1069 c 256,6,7
 37 1213 37 1213 111.5 1287.5 c 128,-1,8
 186 1362 186 1362 319 1362 c 256,9,10
 452 1362 452 1362 525 1284 c 128,-1,11
 598 1206 598 1206 598 1069 c 0,0,1
469 1069 m 0,12,13
 469 1198 469 1198 432 1251.5 c 128,-1,14
 395 1305 395 1305 313 1305 c 0,15,16
 236 1305 236 1305 201 1254 c 128,-1,17
 166 1203 166 1203 166 1069 c 0,18,19
 166 934 166 934 201.5 881.5 c 128,-1,20
 237 829 237 829 313 829 c 0,21,22
 395 829 395 829 432 883.5 c 128,-1,23
 469 938 469 938 469 1069 c 0,12,13
EndSplineSet
Validated: 1
EndChar

StartChar: Ohm
Encoding: 8486 8486 158
Width: 1573
GlyphClass: 2
Flags: W
LayerCount: 2
Fore
SplineSet
786 1276 m 256,0,1
 560 1276 560 1276 450 1162.5 c 128,-1,2
 340 1049 340 1049 340 801 c 0,3,4
 340 602 340 602 432 483 c 128,-1,5
 524 364 524 364 693 343 c 1,6,-1
 720 0 l 1,7,-1
 151 0 l 1,8,-1
 132 330 l 1,9,-1
 198 330 l 1,10,-1
 255 186 l 1,11,12
 335 170 335 170 539 170 c 2,13,-1
 611 170 l 1,14,-1
 601 271 l 1,15,16
 386 304 386 304 258.5 447 c 128,-1,17
 131 590 131 590 131 801 c 0,18,19
 131 1073 131 1073 297 1214.5 c 128,-1,20
 463 1356 463 1356 786 1356 c 256,21,22
 1109 1356 1109 1356 1275 1214.5 c 128,-1,23
 1441 1073 1441 1073 1441 801 c 0,24,25
 1441 590 1441 590 1313 447 c 128,-1,26
 1185 304 1185 304 971 271 c 1,27,-1
 961 170 l 1,28,-1
 1033 170 l 2,29,30
 1237 170 1237 170 1317 186 c 1,31,-1
 1374 330 l 1,32,-1
 1440 330 l 1,33,-1
 1421 0 l 1,34,-1
 852 0 l 1,35,-1
 879 343 l 1,36,37
 1049 364 1049 364 1140.5 483 c 128,-1,38
 1232 602 1232 602 1232 801 c 0,39,40
 1232 1050 1232 1050 1122 1163 c 128,-1,41
 1012 1276 1012 1276 786 1276 c 256,0,1
EndSplineSet
Validated: 1
EndChar

StartChar: ae
Encoding: 230 230 159
Width: 1366
GlyphClass: 2
Flags: W
AnchorPoint: "bottom" 651 -62 basechar 0
AnchorPoint: "top" 701 1031 basechar 0
LayerCount: 2
Fore
SplineSet
764 473 m 1,0,-1
 764 383 l 1,1,2
 766 259 766 259 791.5 201 c 128,-1,3
 817 143 817 143 870.5 113.5 c 128,-1,4
 924 84 924 84 1012 84 c 0,5,6
 1066 84 1066 84 1140 93 c 128,-1,7
 1214 102 1214 102 1262 113 c 1,8,-1
 1262 57 l 1,9,10
 1212 25 1212 25 1134 2.5 c 128,-1,11
 1056 -20 1056 -20 973 -20 c 0,12,13
 743 -20 743 -20 651 109 c 1,14,15
 506 -20 506 -20 313 -20 c 0,16,17
 72 -20 72 -20 72 260 c 0,18,19
 72 354 72 354 108.5 415.5 c 128,-1,20
 145 477 145 477 225 509.5 c 128,-1,21
 305 542 305 542 457 545 c 1,22,-1
 598 549 l 1,23,-1
 598 696 l 2,24,25
 598 793 598 793 562.5 839 c 128,-1,26
 527 885 527 885 453 885 c 0,27,28
 353 885 353 885 270 838 c 1,29,-1
 236 721 l 1,30,-1
 180 721 l 1,31,-1
 180 926 l 1,32,33
 342 961 342 961 465 961 c 0,34,35
 632 961 632 961 702 887 c 1,36,37
 790 965 790 965 946 965 c 0,38,39
 1121 965 1121 965 1209.5 861 c 128,-1,40
 1298 757 1298 757 1298 555 c 2,41,-1
 1298 473 l 1,42,-1
 764 473 l 1,0,-1
381 90 m 0,43,44
 496 90 496 90 625 158 c 1,45,46
 616 175 616 175 607 223 c 128,-1,47
 598 271 598 271 598 319 c 2,48,-1
 598 479 l 1,49,-1
 467 475 l 2,50,51
 333 470 333 470 285.5 423 c 128,-1,52
 238 376 238 376 238 266 c 0,53,54
 238 90 238 90 381 90 c 0,43,44
946 885 m 0,55,56
 851 885 851 885 807.5 811 c 128,-1,57
 764 737 764 737 764 553 c 1,58,-1
 1124 553 l 1,59,60
 1124 724 1124 724 1080.5 804.5 c 128,-1,61
 1037 885 1037 885 946 885 c 0,55,56
EndSplineSet
EndChar

StartChar: oslash
Encoding: 248 248 160
Width: 1024
GlyphClass: 2
Flags: W
LayerCount: 2
Fore
SplineSet
952 1022 m 1,0,-1
 829 848 l 1,1,2
 946 721 946 721 946 475 c 0,3,4
 946 -20 946 -20 506 -20 c 0,5,6
 361 -20 361 -20 264 39 c 1,7,-1
 178 -84 l 1,8,-1
 70 -84 l 1,9,-1
 197 94 l 1,10,11
 78 219 78 219 78 475 c 0,12,13
 78 713 78 713 186 839 c 128,-1,14
 294 965 294 965 514 965 c 0,15,16
 663 965 663 965 764 901 c 1,17,-1
 848 1022 l 1,18,-1
 952 1022 l 1,0,-1
258 475 m 0,19,20
 258 314 258 314 287 223 c 1,21,-1
 692 801 l 1,22,23
 630 885 630 885 506 885 c 0,24,25
 375 885 375 885 316.5 792 c 128,-1,26
 258 699 258 699 258 475 c 0,19,20
766 475 m 0,27,28
 766 622 766 622 735 715 c 1,29,-1
 330 135 l 1,30,31
 390 59 390 59 506 59 c 0,32,33
 638 59 638 59 702 157 c 128,-1,34
 766 255 766 255 766 475 c 0,27,28
EndSplineSet
Validated: 1
EndChar

StartChar: questiondown
Encoding: 191 191 161
Width: 909
GlyphClass: 2
Flags: W
LayerCount: 2
Fore
SplineSet
469 582 m 1,0,-1
 549 582 l 1,1,-1
 575 248 l 1,2,-1
 432 219 l 2,3,4
 346 202 346 202 307 132 c 128,-1,5
 268 62 268 62 268 -72 c 0,6,7
 268 -220 268 -220 322 -280 c 128,-1,8
 376 -340 376 -340 508 -340 c 0,9,10
 620 -340 620 -340 702 -291 c 1,11,-1
 737 -127 l 1,12,-1
 803 -127 l 1,13,-1
 803 -381 l 1,14,15
 655 -424 655 -424 508 -424 c 0,16,17
 84 -424 84 -424 84 -84 c 0,18,19
 84 77 84 77 164.5 177 c 128,-1,20
 245 277 245 277 399 309 c 1,21,-1
 457 322 l 1,22,-1
 469 582 l 1,0,-1
379 840 m 0,23,24
 379 889 379 889 413.5 925 c 128,-1,25
 448 961 448 961 500 961 c 0,26,27
 550 961 550 961 585.5 925.5 c 128,-1,28
 621 890 621 890 621 840 c 0,29,30
 621 788 621 788 585 753.5 c 128,-1,31
 549 719 549 719 500 719 c 0,32,33
 449 719 449 719 414 754 c 128,-1,34
 379 789 379 789 379 840 c 0,23,24
EndSplineSet
Validated: 1
EndChar

StartChar: exclamdown
Encoding: 161 161 162
Width: 682
GlyphClass: 2
Flags: W
LayerCount: 2
Fore
SplineSet
219 840 m 0,0,1
 219 889 219 889 253.5 925 c 128,-1,2
 288 961 288 961 340 961 c 256,3,4
 392 961 392 961 426.5 925 c 128,-1,5
 461 889 461 889 461 840 c 0,6,7
 461 789 461 789 426 754 c 128,-1,8
 391 719 391 719 340 719 c 256,9,10
 289 719 289 719 254 754 c 128,-1,11
 219 789 219 789 219 840 c 0,0,1
449 -410 m 1,12,-1
 231 -410 l 1,13,-1
 293 543 l 1,14,-1
 387 543 l 1,15,-1
 449 -410 l 1,12,-1
EndSplineSet
Validated: 1
EndChar

StartChar: logicalnot
Encoding: 172 172 163
Width: 1155
GlyphClass: 2
Flags: W
LayerCount: 2
Fore
SplineSet
1055 731 m 1,0,-1
 1055 203 l 1,1,-1
 952 203 l 1,2,-1
 952 629 l 1,3,-1
 102 629 l 1,4,-1
 102 731 l 1,5,-1
 1055 731 l 1,0,-1
EndSplineSet
Validated: 1
EndChar

StartChar: radical
Encoding: 8730 8730 164
Width: 1124
GlyphClass: 2
Flags: W
LayerCount: 2
Fore
SplineSet
623 -14 m 1,0,-1
 516 -14 l 1,1,-1
 219 815 l 1,2,-1
 51 815 l 1,3,-1
 51 895 l 1,4,-1
 322 895 l 1,5,-1
 580 158 l 1,6,-1
 1032 1620 l 1,7,-1
 1122 1620 l 1,8,-1
 623 -14 l 1,0,-1
EndSplineSet
Validated: 1
EndChar

StartChar: florin
Encoding: 402 402 165
Width: 1024
GlyphClass: 2
Flags: W
LayerCount: 2
Fore
SplineSet
219 -285 m 1,0,-1
 356 702 l 1,1,-1
 195 702 l 1,2,-1
 203 752 l 1,3,-1
 369 786 l 1,4,-1
 401 1018 l 2,5,6
 423 1179 423 1179 513 1270.5 c 128,-1,7
 603 1362 603 1362 739 1362 c 0,8,9
 830 1362 830 1362 893 1343 c 1,10,-1
 893 1161 l 1,11,-1
 846 1161 l 1,12,-1
 813 1257 l 1,13,14
 782 1280 782 1280 727 1280 c 0,15,16
 681 1280 681 1280 651.5 1254 c 128,-1,17
 622 1228 622 1228 603.5 1177.5 c 128,-1,18
 585 1127 585 1127 567 1001 c 2,19,-1
 537 786 l 1,20,-1
 786 786 l 1,21,-1
 772 702 l 1,22,-1
 524 702 l 1,23,-1
 381 -285 l 1,24,-1
 219 -285 l 1,0,-1
EndSplineSet
Validated: 1
EndChar

StartChar: approxequal
Encoding: 8776 8776 166
Width: 1124
GlyphClass: 2
Flags: W
LayerCount: 2
Fore
SplineSet
780 711 m 0,0,1
 674 711 674 711 535 832 c 1,2,3
 461 895 461 895 412.5 923.5 c 128,-1,4
 364 952 364 952 326 952 c 0,5,6
 249 952 249 952 210 897.5 c 128,-1,7
 171 843 171 843 158 711 c 1,8,-1
 57 711 l 1,9,10
 75 898 75 898 141.5 976.5 c 128,-1,11
 208 1055 208 1055 326 1055 c 0,12,13
 382 1055 382 1055 441.5 1026 c 128,-1,14
 501 997 501 997 576 934 c 0,15,16
 662 862 662 862 703.5 837.5 c 128,-1,17
 745 813 745 813 780 813 c 0,18,19
 849 813 849 813 888 865.5 c 128,-1,20
 927 918 927 918 946 1055 c 1,21,-1
 1049 1055 l 1,22,23
 1032 925 1032 925 1000 856 c 128,-1,24
 968 787 968 787 915 749 c 128,-1,25
 862 711 862 711 780 711 c 0,0,1
780 301 m 0,26,27
 674 301 674 301 535 422 c 1,28,29
 461 485 461 485 412.5 513.5 c 128,-1,30
 364 542 364 542 326 542 c 0,31,32
 249 542 249 542 210 487.5 c 128,-1,33
 171 433 171 433 158 301 c 1,34,-1
 57 301 l 1,35,36
 75 488 75 488 141.5 566.5 c 128,-1,37
 208 645 208 645 326 645 c 0,38,39
 382 645 382 645 441.5 616 c 128,-1,40
 501 587 501 587 576 524 c 0,41,42
 662 452 662 452 703.5 427.5 c 128,-1,43
 745 403 745 403 780 403 c 0,44,45
 849 403 849 403 888 455.5 c 128,-1,46
 927 508 927 508 946 645 c 1,47,-1
 1049 645 l 1,48,49
 1032 515 1032 515 1000 446 c 128,-1,50
 968 377 968 377 915 339 c 128,-1,51
 862 301 862 301 780 301 c 0,26,27
EndSplineSet
Validated: 1
EndChar

StartChar: Delta
Encoding: 8710 8710 167
Width: 1253
GlyphClass: 2
Flags: W
LayerCount: 2
Fore
SplineSet
1207 0 m 1,0,-1
 46 0 l 1,1,-1
 45 80 l 1,2,-1
 522 1352 l 1,3,-1
 712 1352 l 1,4,-1
 1207 80 l 1,5,-1
 1207 0 l 1,0,-1
573 1196 m 1,6,-1
 173 109 l 1,7,-1
 979 109 l 1,8,-1
 573 1196 l 1,6,-1
EndSplineSet
Validated: 1
EndChar

StartChar: guillemotleft
Encoding: 171 171 168
Width: 1024
GlyphClass: 2
Flags: W
LayerCount: 2
Fore
SplineSet
117 496 m 1,0,-1
 451 852 l 1,1,-1
 532 852 l 1,2,-1
 305 463 l 1,3,-1
 532 74 l 1,4,-1
 451 74 l 1,5,-1
 117 430 l 1,6,-1
 117 496 l 1,0,-1
526 496 m 1,7,-1
 861 852 l 1,8,-1
 942 852 l 1,9,-1
 714 463 l 1,10,-1
 942 74 l 1,11,-1
 861 74 l 1,12,-1
 526 430 l 1,13,-1
 526 496 l 1,7,-1
EndSplineSet
Validated: 1
EndChar

StartChar: guillemotright
Encoding: 187 187 169
Width: 1024
GlyphClass: 2
Flags: W
LayerCount: 2
Fore
SplineSet
907 430 m 1,0,-1
 573 74 l 1,1,-1
 492 74 l 1,2,-1
 719 463 l 1,3,-1
 492 852 l 1,4,-1
 573 852 l 1,5,-1
 907 496 l 1,6,-1
 907 430 l 1,0,-1
498 430 m 1,7,-1
 163 74 l 1,8,-1
 82 74 l 1,9,-1
 310 463 l 1,10,-1
 82 852 l 1,11,-1
 163 852 l 1,12,-1
 498 496 l 1,13,-1
 498 430 l 1,7,-1
EndSplineSet
Validated: 1
EndChar

StartChar: ellipsis
Encoding: 8230 8230 170
Width: 2048
GlyphClass: 2
Flags: W
LayerCount: 2
Fore
SplineSet
459 92 m 0,0,1
 459 43 459 43 424.5 7 c 128,-1,2
 390 -29 390 -29 338 -29 c 256,3,4
 286 -29 286 -29 251.5 7 c 128,-1,5
 217 43 217 43 217 92 c 0,6,7
 217 143 217 143 252 178 c 128,-1,8
 287 213 287 213 338 213 c 256,9,10
 389 213 389 213 424 178 c 128,-1,11
 459 143 459 143 459 92 c 0,0,1
1145 92 m 0,12,13
 1145 43 1145 43 1110.5 7 c 128,-1,14
 1076 -29 1076 -29 1024 -29 c 256,15,16
 972 -29 972 -29 937.5 7 c 128,-1,17
 903 43 903 43 903 92 c 0,18,19
 903 143 903 143 938 178 c 128,-1,20
 973 213 973 213 1024 213 c 256,21,22
 1075 213 1075 213 1110 178 c 128,-1,23
 1145 143 1145 143 1145 92 c 0,12,13
1831 92 m 0,24,25
 1831 43 1831 43 1796.5 7 c 128,-1,26
 1762 -29 1762 -29 1710 -29 c 256,27,28
 1658 -29 1658 -29 1623.5 7 c 128,-1,29
 1589 43 1589 43 1589 92 c 0,30,31
 1589 143 1589 143 1624 178 c 128,-1,32
 1659 213 1659 213 1710 213 c 256,33,34
 1761 213 1761 213 1796 178 c 128,-1,35
 1831 143 1831 143 1831 92 c 0,24,25
EndSplineSet
Validated: 1
EndChar

StartChar: OE
Encoding: 338 338 174
Width: 1821
GlyphClass: 2
Flags: W
LayerCount: 2
Fore
SplineSet
1016 0 m 1,0,-1
 739 -6 l 1,1,2
 414 -6 414 -6 249 164.5 c 128,-1,3
 84 335 84 335 84 672 c 0,4,5
 84 1011 84 1011 246 1179.5 c 128,-1,6
 408 1348 408 1348 739 1348 c 1,7,-1
 1012 1341 l 1,8,-1
 1634 1341 l 1,9,-1
 1634 1020 l 1,10,-1
 1569 1020 l 1,11,-1
 1536 1237 l 1,12,13
 1424 1251 1424 1251 1212 1251 c 2,14,-1
 1075 1251 l 1,15,-1
 1075 727 l 1,16,-1
 1356 727 l 1,17,-1
 1386 887 l 1,18,-1
 1450 887 l 1,19,-1
 1450 475 l 1,20,-1
 1386 475 l 1,21,-1
 1356 637 l 1,22,-1
 1075 637 l 1,23,-1
 1075 90 l 1,24,-1
 1257 90 l 2,25,26
 1515 90 1515 90 1595 106 c 1,27,-1
 1653 354 l 1,28,-1
 1718 354 l 1,29,-1
 1700 0 l 1,30,-1
 1016 0 l 1,0,-1
739 74 m 0,31,32
 817 74 817 74 881 84 c 1,33,-1
 881 1257 l 1,34,35
 831 1268 831 1268 739 1268 c 0,36,37
 508 1268 508 1268 400.5 1129.5 c 128,-1,38
 293 991 293 991 293 672 c 0,39,40
 293 352 293 352 400.5 213 c 128,-1,41
 508 74 508 74 739 74 c 0,31,32
EndSplineSet
Validated: 1
EndChar

StartChar: oe
Encoding: 339 339 175
Width: 1479
GlyphClass: 2
Flags: W
LayerCount: 2
Fore
SplineSet
864 473 m 1,0,-1
 864 455 l 2,1,2
 864 255 864 255 932 169.5 c 128,-1,3
 1000 84 1000 84 1137 84 c 0,4,5
 1188 84 1188 84 1257.5 93 c 128,-1,6
 1327 102 1327 102 1370 113 c 1,7,-1
 1370 57 l 1,8,9
 1323 25 1323 25 1243 2.5 c 128,-1,10
 1163 -20 1163 -20 1085 -20 c 0,11,12
 867 -20 867 -20 770 111 c 1,13,14
 671 -20 671 -20 465 -20 c 0,15,16
 272 -20 272 -20 175 106.5 c 128,-1,17
 78 233 78 233 78 475 c 0,18,19
 78 713 78 713 175.5 839 c 128,-1,20
 273 965 273 965 473 965 c 256,21,22
 673 965 673 965 772 829 c 1,23,24
 867 965 867 965 1063 965 c 0,25,26
 1407 965 1407 965 1407 555 c 2,27,-1
 1407 473 l 1,28,-1
 864 473 l 1,0,-1
465 885 m 0,29,30
 355 885 355 885 306.5 791.5 c 128,-1,31
 258 698 258 698 258 475 c 0,32,33
 258 251 258 251 307 155 c 128,-1,34
 356 59 356 59 465 59 c 0,35,36
 578 59 578 59 631 159 c 128,-1,37
 684 259 684 259 684 475 c 2,38,-1
 684 502 l 1,39,40
 679 709 679 709 626 797 c 128,-1,41
 573 885 573 885 465 885 c 0,29,30
1063 885 m 0,42,43
 967 885 967 885 916.5 801 c 128,-1,44
 866 717 866 717 866 553 c 1,45,-1
 1233 553 l 1,46,47
 1233 729 1233 729 1191.5 807 c 128,-1,48
 1150 885 1150 885 1063 885 c 0,42,43
EndSplineSet
Validated: 1
EndChar

StartChar: endash
Encoding: 8211 8211 176
Width: 1024
GlyphClass: 2
Flags: W
LayerCount: 2
Fore
SplineSet
1038 528 m 1,0,-1
 1038 426 l 1,1,-1
 -14 426 l 1,2,-1
 -14 528 l 1,3,-1
 1038 528 l 1,0,-1
EndSplineSet
Validated: 1
EndChar

StartChar: emdash
Encoding: 8212 8212 177
Width: 2048
GlyphClass: 2
Flags: W
LayerCount: 2
Fore
SplineSet
2062 528 m 1,0,-1
 2062 426 l 1,1,-1
 -14 426 l 1,2,-1
 -14 528 l 1,3,-1
 2062 528 l 1,0,-1
EndSplineSet
Validated: 1
EndChar

StartChar: quotedblleft
Encoding: 8220 8220 178
Width: 909
GlyphClass: 2
Flags: W
LayerCount: 2
Fore
SplineSet
518 999 m 0,0,1
 518 1134 518 1134 596 1226.5 c 128,-1,2
 674 1319 674 1319 823 1364 c 1,3,-1
 823 1286 l 1,4,5
 647 1230 647 1230 647 1118 c 0,6,7
 647 1097 647 1097 662 1082.5 c 128,-1,8
 677 1068 677 1068 715 1048 c 0,9,10
 782 1013 782 1013 782 948 c 0,11,12
 782 894 782 894 748 866 c 128,-1,13
 714 838 714 838 662 838 c 0,14,15
 598 838 598 838 558 883.5 c 128,-1,16
 518 929 518 929 518 999 c 0,0,1
98 999 m 0,17,18
 98 1134 98 1134 176 1226.5 c 128,-1,19
 254 1319 254 1319 403 1364 c 1,20,-1
 403 1286 l 1,21,22
 227 1230 227 1230 227 1118 c 0,23,24
 227 1097 227 1097 242 1082.5 c 128,-1,25
 257 1068 257 1068 295 1048 c 0,26,27
 362 1013 362 1013 362 948 c 0,28,29
 362 894 362 894 328 866 c 128,-1,30
 294 838 294 838 242 838 c 0,31,32
 178 838 178 838 138 883.5 c 128,-1,33
 98 929 98 929 98 999 c 0,17,18
EndSplineSet
Validated: 1
EndChar

StartChar: quotedblright
Encoding: 8221 8221 179
Width: 909
GlyphClass: 2
Flags: W
LayerCount: 2
Fore
SplineSet
391 1200 m 0,0,1
 391 1063 391 1063 311.5 970.5 c 128,-1,2
 232 878 232 878 86 836 c 1,3,-1
 86 913 l 1,4,5
 262 969 262 969 262 1081 c 0,6,7
 262 1101 262 1101 247 1117 c 128,-1,8
 232 1133 232 1133 195 1152 c 0,9,10
 127 1187 127 1187 127 1251 c 0,11,12
 127 1305 127 1305 161 1333.5 c 128,-1,13
 195 1362 195 1362 248 1362 c 0,14,15
 309 1362 309 1362 350 1318.5 c 128,-1,16
 391 1275 391 1275 391 1200 c 0,0,1
811 1200 m 0,17,18
 811 1063 811 1063 731.5 970.5 c 128,-1,19
 652 878 652 878 506 836 c 1,20,-1
 506 913 l 1,21,22
 682 969 682 969 682 1081 c 0,23,24
 682 1101 682 1101 667 1117 c 128,-1,25
 652 1133 652 1133 615 1152 c 0,26,27
 547 1187 547 1187 547 1251 c 0,28,29
 547 1305 547 1305 581 1333.5 c 128,-1,30
 615 1362 615 1362 668 1362 c 0,31,32
 732 1362 732 1362 771.5 1316 c 128,-1,33
 811 1270 811 1270 811 1200 c 0,17,18
EndSplineSet
Validated: 1
EndChar

StartChar: quoteleft
Encoding: 8216 8216 180
Width: 682
GlyphClass: 2
Flags: W
LayerCount: 2
Fore
SplineSet
197 999 m 0,0,1
 197 1134 197 1134 275 1226.5 c 128,-1,2
 353 1319 353 1319 502 1364 c 1,3,-1
 502 1286 l 1,4,5
 326 1230 326 1230 326 1118 c 0,6,7
 326 1097 326 1097 341 1082.5 c 128,-1,8
 356 1068 356 1068 394 1048 c 0,9,10
 461 1013 461 1013 461 948 c 0,11,12
 461 894 461 894 427 866 c 128,-1,13
 393 838 393 838 340 838 c 0,14,15
 279 838 279 838 238 881.5 c 128,-1,16
 197 925 197 925 197 999 c 0,0,1
EndSplineSet
Validated: 1
EndChar

StartChar: quoteright
Encoding: 8217 8217 181
Width: 682
GlyphClass: 2
Flags: W
LayerCount: 2
Fore
SplineSet
485 1200 m 0,0,1
 485 1063 485 1063 405.5 970.5 c 128,-1,2
 326 878 326 878 180 836 c 1,3,-1
 180 913 l 1,4,5
 356 969 356 969 356 1081 c 0,6,7
 356 1101 356 1101 341 1117 c 128,-1,8
 326 1133 326 1133 289 1152 c 0,9,10
 221 1187 221 1187 221 1251 c 0,11,12
 221 1305 221 1305 255 1333.5 c 128,-1,13
 289 1362 289 1362 342 1362 c 0,14,15
 403 1362 403 1362 444 1318.5 c 128,-1,16
 485 1275 485 1275 485 1200 c 0,0,1
EndSplineSet
Validated: 1
EndChar

StartChar: divide
Encoding: 247 247 182
Width: 1124
GlyphClass: 2
Flags: W
LayerCount: 2
Fore
SplineSet
657 1063 m 256,0,1
 657 1023 657 1023 629 995 c 128,-1,2
 601 967 601 967 561 967 c 0,3,4
 520 967 520 967 492 995 c 128,-1,5
 464 1023 464 1023 464 1063 c 256,6,7
 464 1103 464 1103 492 1131 c 128,-1,8
 520 1159 520 1159 561 1159 c 0,9,10
 601 1159 601 1159 629 1131 c 128,-1,11
 657 1103 657 1103 657 1063 c 256,0,1
657 297 m 256,12,13
 657 257 657 257 629 229 c 128,-1,14
 601 201 601 201 561 201 c 0,15,16
 520 201 520 201 492 229 c 128,-1,17
 464 257 464 257 464 297 c 256,18,19
 464 337 464 337 492 365 c 128,-1,20
 520 393 520 393 561 393 c 0,21,22
 601 393 601 393 629 365 c 128,-1,23
 657 337 657 337 657 297 c 256,12,13
1038 731 m 1,24,-1
 1038 629 l 1,25,-1
 85 629 l 1,26,-1
 85 731 l 1,27,-1
 1038 731 l 1,24,-1
EndSplineSet
Validated: 1
EndChar

StartChar: lozenge
Encoding: 9674 9674 183
Width: 1012
GlyphClass: 2
Flags: W
LayerCount: 2
Fore
SplineSet
547 0 m 1,0,-1
 465 0 l 1,1,-1
 8 719 l 1,2,-1
 465 1440 l 1,3,-1
 547 1440 l 1,4,-1
 1006 721 l 1,5,-1
 547 0 l 1,0,-1
508 1286 m 1,6,-1
 154 721 l 1,7,-1
 508 147 l 1,8,-1
 860 721 l 1,9,-1
 508 1286 l 1,6,-1
EndSplineSet
Validated: 1
EndChar

StartChar: fraction
Encoding: 8260 8260 186
Width: 342
GlyphClass: 2
Flags: W
LayerCount: 2
Fore
SplineSet
-260 0 m 1,0,-1
 -362 0 l 1,1,-1
 602 1341 l 1,2,-1
 702 1341 l 1,3,-1
 -260 0 l 1,0,-1
EndSplineSet
Validated: 1
EndChar

StartChar: Euro
Encoding: 8364 8364 187
Width: 1024
GlyphClass: 2
Flags: W
LayerCount: 2
Fore
SplineSet
143 829 m 1,0,1
 174 1098 174 1098 302 1227 c 128,-1,2
 430 1356 430 1356 641 1356 c 0,3,4
 715 1356 715 1356 790.5 1345.5 c 128,-1,5
 866 1335 866 1335 969 1305 c 1,6,-1
 973 1053 l 1,7,-1
 905 1053 l 1,8,-1
 885 1186 l 1,9,10
 840 1229 840 1229 781 1252.5 c 128,-1,11
 722 1276 722 1276 662 1276 c 0,12,13
 518 1276 518 1276 443 1164.5 c 128,-1,14
 368 1053 368 1053 350 829 c 1,15,-1
 700 829 l 1,16,-1
 700 748 l 1,17,-1
 346 748 l 1,18,19
 344 680 344 680 344 657 c 0,20,21
 344 601 344 601 346 584 c 1,22,-1
 700 584 l 1,23,-1
 700 502 l 1,24,-1
 350 502 l 1,25,26
 370 276 370 276 449.5 166.5 c 128,-1,27
 529 57 529 57 657 57 c 0,28,29
 734 57 734 57 798.5 85 c 128,-1,30
 863 113 863 113 901 158 c 1,31,-1
 926 317 l 1,32,-1
 993 317 l 1,33,-1
 989 43 l 1,34,35
 821 -20 821 -20 641 -20 c 0,36,37
 433 -20 433 -20 303.5 115 c 128,-1,38
 174 250 174 250 143 502 c 1,39,-1
 31 502 l 1,40,-1
 31 584 l 1,41,-1
 137 584 l 1,42,43
 135 637 135 637 135 655 c 0,44,45
 135 725 135 725 137 748 c 1,46,-1
 31 748 l 1,47,-1
 31 829 l 1,48,-1
 143 829 l 1,0,1
EndSplineSet
Validated: 1
EndChar

StartChar: guilsinglleft
Encoding: 8249 8249 188
Width: 682
GlyphClass: 2
Flags: W
LayerCount: 2
Fore
SplineSet
133 496 m 1,0,-1
 467 852 l 1,1,-1
 549 852 l 1,2,-1
 321 463 l 1,3,-1
 549 74 l 1,4,-1
 467 74 l 1,5,-1
 133 430 l 1,6,-1
 133 496 l 1,0,-1
EndSplineSet
Validated: 1
EndChar

StartChar: guilsinglright
Encoding: 8250 8250 189
Width: 682
GlyphClass: 2
Flags: W
LayerCount: 2
Fore
SplineSet
549 430 m 1,0,-1
 215 74 l 1,1,-1
 133 74 l 1,2,-1
 361 463 l 1,3,-1
 133 852 l 1,4,-1
 215 852 l 1,5,-1
 549 496 l 1,6,-1
 549 430 l 1,0,-1
EndSplineSet
Validated: 1
EndChar

StartChar: daggerdbl
Encoding: 8225 8225 190
Width: 1024
GlyphClass: 2
Flags: W
LayerCount: 2
Fore
SplineSet
416 401 m 1,0,-1
 489 590 l 1,1,-1
 416 780 l 1,2,-1
 479 940 l 1,3,-1
 63 893 l 1,4,-1
 63 1049 l 1,5,-1
 479 1006 l 1,6,-1
 436 1421 l 1,7,-1
 592 1421 l 1,8,-1
 545 1006 l 1,9,-1
 961 1049 l 1,10,-1
 961 893 l 1,11,-1
 545 940 l 1,12,-1
 612 780 l 1,13,-1
 535 590 l 1,14,-1
 612 401 l 1,15,-1
 545 242 l 1,16,-1
 961 289 l 1,17,-1
 961 133 l 1,18,-1
 545 176 l 1,19,-1
 592 -240 l 1,20,-1
 436 -240 l 1,21,-1
 479 176 l 1,22,-1
 63 133 l 1,23,-1
 63 289 l 1,24,-1
 479 242 l 1,25,-1
 416 401 l 1,0,-1
EndSplineSet
Validated: 1
EndChar

StartChar: bulletoperator
Encoding: 8729 8729 191
Width: 512
GlyphClass: 2
Flags: W
LayerCount: 2
Fore
SplineSet
377 678 m 0,0,1
 377 627 377 627 342 592 c 128,-1,2
 307 557 307 557 256 557 c 256,3,4
 205 557 205 557 170 592 c 128,-1,5
 135 627 135 627 135 678 c 0,6,7
 135 727 135 727 169.5 763 c 128,-1,8
 204 799 204 799 256 799 c 256,9,10
 308 799 308 799 342.5 763 c 128,-1,11
 377 727 377 727 377 678 c 0,0,1
EndSplineSet
Validated: 1
EndChar

StartChar: quotesinglbase
Encoding: 8218 8218 192
Width: 682
GlyphClass: 2
Flags: W
LayerCount: 2
Fore
SplineSet
483 49 m 0,0,1
 483 -88 483 -88 403.5 -180.5 c 128,-1,2
 324 -273 324 -273 178 -315 c 1,3,-1
 178 -238 l 1,4,5
 354 -182 354 -182 354 -70 c 0,6,7
 354 -50 354 -50 339 -34 c 128,-1,8
 324 -18 324 -18 287 1 c 0,9,10
 219 36 219 36 219 100 c 0,11,12
 219 154 219 154 253 182.5 c 128,-1,13
 287 211 287 211 340 211 c 0,14,15
 401 211 401 211 442 167.5 c 128,-1,16
 483 124 483 124 483 49 c 0,0,1
EndSplineSet
Validated: 1
EndChar

StartChar: quotedblbase
Encoding: 8222 8222 193
Width: 909
GlyphClass: 2
Flags: W
LayerCount: 2
Fore
SplineSet
391 49 m 0,0,1
 391 -88 391 -88 311.5 -180.5 c 128,-1,2
 232 -273 232 -273 86 -315 c 1,3,-1
 86 -238 l 1,4,5
 262 -182 262 -182 262 -70 c 0,6,7
 262 -50 262 -50 247 -34 c 128,-1,8
 232 -18 232 -18 195 1 c 0,9,10
 127 36 127 36 127 100 c 0,11,12
 127 154 127 154 161 182.5 c 128,-1,13
 195 211 195 211 248 211 c 0,14,15
 309 211 309 211 350 167.5 c 128,-1,16
 391 124 391 124 391 49 c 0,0,1
811 49 m 0,17,18
 811 -88 811 -88 731.5 -180.5 c 128,-1,19
 652 -273 652 -273 506 -315 c 1,20,-1
 506 -238 l 1,21,22
 682 -182 682 -182 682 -70 c 0,23,24
 682 -50 682 -50 667 -34 c 128,-1,25
 652 -18 652 -18 615 1 c 0,26,27
 547 36 547 36 547 100 c 0,28,29
 547 154 547 154 581 182.5 c 128,-1,30
 615 211 615 211 668 211 c 0,31,32
 732 211 732 211 771.5 165 c 128,-1,33
 811 119 811 119 811 49 c 0,17,18
EndSplineSet
Validated: 1
EndChar

StartChar: perthousand
Encoding: 8240 8240 194
Width: 2048
GlyphClass: 2
Flags: W
LayerCount: 2
Fore
SplineSet
676 1016 m 0,0,1
 676 839 676 839 601 751.5 c 128,-1,2
 526 664 526 664 367 664 c 0,3,4
 45 664 45 664 45 1016 c 0,5,6
 45 1194 45 1194 126 1278 c 128,-1,7
 207 1362 207 1362 373 1362 c 0,8,9
 676 1362 676 1362 676 1016 c 0,0,1
520 1016 m 0,10,11
 520 1155 520 1155 486 1221.5 c 128,-1,12
 452 1288 452 1288 367 1288 c 0,13,14
 278 1288 278 1288 239.5 1228.5 c 128,-1,15
 201 1169 201 1169 201 1016 c 0,16,17
 201 861 201 861 240 799 c 128,-1,18
 279 737 279 737 367 737 c 0,19,20
 452 737 452 737 486 808 c 128,-1,21
 520 879 520 879 520 1016 c 0,10,11
1323 324 m 0,22,23
 1323 147 1323 147 1248 59 c 128,-1,24
 1173 -29 1173 -29 1014 -29 c 0,25,26
 692 -29 692 -29 692 324 c 0,27,28
 692 502 692 502 773 586 c 128,-1,29
 854 670 854 670 1020 670 c 0,30,31
 1168 670 1168 670 1245.5 587.5 c 128,-1,32
 1323 505 1323 505 1323 324 c 0,22,23
1167 324 m 0,33,34
 1167 463 1167 463 1133 529.5 c 128,-1,35
 1099 596 1099 596 1014 596 c 0,36,37
 925 596 925 596 886.5 536.5 c 128,-1,38
 848 477 848 477 848 324 c 0,39,40
 848 169 848 169 887 107 c 128,-1,41
 926 45 926 45 1014 45 c 0,42,43
 1099 45 1099 45 1133 116 c 128,-1,44
 1167 187 1167 187 1167 324 c 0,33,34
2001 324 m 0,45,46
 2001 147 2001 147 1926 59 c 128,-1,47
 1851 -29 1851 -29 1692 -29 c 0,48,49
 1370 -29 1370 -29 1370 324 c 0,50,51
 1370 502 1370 502 1451 586 c 128,-1,52
 1532 670 1532 670 1698 670 c 0,53,54
 2001 670 2001 670 2001 324 c 0,45,46
1845 324 m 0,55,56
 1845 463 1845 463 1811 529.5 c 128,-1,57
 1777 596 1777 596 1692 596 c 0,58,59
 1603 596 1603 596 1564.5 536.5 c 128,-1,60
 1526 477 1526 477 1526 324 c 0,61,62
 1526 169 1526 169 1565 107 c 128,-1,63
 1604 45 1604 45 1692 45 c 0,64,65
 1777 45 1777 45 1811 116 c 128,-1,66
 1845 187 1845 187 1845 324 c 0,55,56
266 -20 m 1,67,-1
 156 -20 l 1,68,-1
 1104 1362 l 1,69,-1
 1214 1362 l 1,70,-1
 266 -20 l 1,67,-1
EndSplineSet
Validated: 1
EndChar

StartChar: dotlessi
Encoding: 305 305 210
Width: 569
GlyphClass: 2
Flags: W
LayerCount: 2
Fore
SplineSet
369 70 m 1,0,-1
 530 45 l 1,1,-1
 530 0 l 1,2,-1
 43 0 l 1,3,-1
 43 45 l 1,4,-1
 203 70 l 1,5,-1
 203 870 l 1,6,-1
 70 895 l 1,7,-1
 70 940 l 1,8,-1
 369 940 l 1,9,-1
 369 70 l 1,0,-1
EndSplineSet
Validated: 1
EndChar

StartChar: circumflex
Encoding: 710 710 211
Width: 682
GlyphClass: 2
Flags: W
LayerCount: 2
Fore
SplineSet
18 1119 m 1,0,-1
 18 1152 l 1,1,-1
 236 1425 l 1,2,-1
 449 1425 l 1,3,-1
 666 1152 l 1,4,-1
 666 1119 l 1,5,-1
 610 1119 l 1,6,-1
 342 1302 l 1,7,-1
 74 1119 l 1,8,-1
 18 1119 l 1,0,-1
EndSplineSet
Validated: 1
EndChar

StartChar: tilde
Encoding: 732 732 212
Width: 682
GlyphClass: 2
Flags: W
LayerCount: 2
Fore
SplineSet
471 1118 m 0,0,1
 423 1118 423 1118 382.5 1139.5 c 128,-1,2
 342 1161 342 1161 306 1187.5 c 128,-1,3
 270 1214 270 1214 236.5 1235.5 c 128,-1,4
 203 1257 203 1257 170 1257 c 0,5,6
 138 1257 138 1257 118.5 1245 c 128,-1,7
 99 1233 99 1233 88 1210.5 c 128,-1,8
 77 1188 77 1188 70 1138 c 1,9,-1
 18 1138 l 1,10,11
 33 1380 33 1380 213 1380 c 0,12,13
 261 1380 261 1380 301.5 1358.5 c 128,-1,14
 342 1337 342 1337 378.5 1310.5 c 128,-1,15
 415 1284 415 1284 448.5 1262.5 c 128,-1,16
 482 1241 482 1241 514 1241 c 0,17,18
 557 1241 557 1241 581 1266 c 128,-1,19
 605 1291 605 1291 614 1359 c 1,20,-1
 666 1359 l 1,21,22
 651 1118 651 1118 471 1118 c 0,0,1
EndSplineSet
Validated: 1
EndChar

StartChar: firsttonechinese
Encoding: 713 713 213
Width: 682
GlyphClass: 2
Flags: W
LayerCount: 2
Fore
SplineSet
27 1141 m 1,0,-1
 27 1250 l 1,1,-1
 655 1250 l 1,2,-1
 655 1141 l 1,3,-1
 27 1141 l 1,0,-1
EndSplineSet
Validated: 1
EndChar

StartChar: breve
Encoding: 728 728 214
Width: 682
GlyphClass: 2
Flags: W
LayerCount: 2
Fore
SplineSet
340 1119 m 0,0,1
 206 1119 206 1119 131 1195.5 c 128,-1,2
 56 1272 56 1272 53 1399 c 1,3,-1
 127 1399 l 1,4,5
 143 1332 143 1332 199.5 1296 c 128,-1,6
 256 1260 256 1260 340 1260 c 256,7,8
 424 1260 424 1260 480 1296 c 128,-1,9
 536 1332 536 1332 553 1399 c 1,10,-1
 627 1399 l 1,11,12
 622 1268 622 1268 547 1193.5 c 128,-1,13
 472 1119 472 1119 340 1119 c 0,0,1
EndSplineSet
Validated: 1
EndChar

StartChar: dotaccent
Encoding: 729 729 215
Width: 682
GlyphClass: 2
Flags: W
LayerCount: 2
Fore
SplineSet
452 1247 m 0,0,1
 452 1203 452 1203 420 1171 c 128,-1,2
 388 1139 388 1139 343 1139 c 0,3,4
 299 1139 299 1139 267 1171 c 128,-1,5
 235 1203 235 1203 235 1247 c 0,6,7
 235 1292 235 1292 267 1324 c 128,-1,8
 299 1356 299 1356 343 1356 c 0,9,10
 388 1356 388 1356 420 1324 c 128,-1,11
 452 1292 452 1292 452 1247 c 0,0,1
EndSplineSet
Validated: 1
EndChar

StartChar: ring
Encoding: 730 730 216
Width: 682
GlyphClass: 2
Flags: W
LayerCount: 2
Fore
SplineSet
543 1280 m 256,0,1
 543 1196 543 1196 483.5 1136.5 c 128,-1,2
 424 1077 424 1077 340 1077 c 256,3,4
 256 1077 256 1077 196.5 1136.5 c 128,-1,5
 137 1196 137 1196 137 1280 c 256,6,7
 137 1364 137 1364 196.5 1423.5 c 128,-1,8
 256 1483 256 1483 340 1483 c 256,9,10
 424 1483 424 1483 483.5 1423.5 c 128,-1,11
 543 1364 543 1364 543 1280 c 256,0,1
463 1280 m 0,12,13
 463 1331 463 1331 427 1367 c 128,-1,14
 391 1403 391 1403 340 1403 c 256,15,16
 289 1403 289 1403 253 1367 c 128,-1,17
 217 1331 217 1331 217 1280 c 0,18,19
 217 1228 217 1228 254 1192.5 c 128,-1,20
 291 1157 291 1157 340 1157 c 0,21,22
 388 1157 388 1157 425.5 1192 c 128,-1,23
 463 1227 463 1227 463 1280 c 0,12,13
EndSplineSet
Validated: 1
EndChar

StartChar: cedilla
Encoding: 184 184 217
Width: 682
GlyphClass: 2
Flags: W
LayerCount: 2
Fore
SplineSet
528 -234 m 0,0,1
 528 -326 528 -326 458.5 -381 c 128,-1,2
 389 -436 389 -436 281 -436 c 0,3,4
 205 -436 205 -436 143 -414 c 1,5,-1
 143 -340 l 1,6,7
 165 -347 165 -347 203 -351.5 c 128,-1,8
 241 -356 241 -356 263 -356 c 0,9,10
 323 -356 323 -356 350 -326.5 c 128,-1,11
 377 -297 377 -297 377 -252 c 0,12,13
 377 -203 377 -203 337 -172 c 128,-1,14
 297 -141 297 -141 225 -135 c 1,15,-1
 266 18 l 1,16,-1
 352 18 l 1,17,-1
 334 -64 l 1,18,19
 425 -73 425 -73 476.5 -117 c 128,-1,20
 528 -161 528 -161 528 -234 c 0,0,1
EndSplineSet
Validated: 1
EndChar

StartChar: hungarumlaut
Encoding: 733 733 218
Width: 682
GlyphClass: 2
Flags: W
LayerCount: 2
Fore
SplineSet
-8 1119 m 1,0,-1
 -8 1152 l 1,1,-1
 148 1424 l 1,2,-1
 340 1424 l 1,3,-1
 340 1387 l 1,4,-1
 47 1119 l 1,5,-1
 -8 1119 l 1,0,-1
342 1119 m 1,6,-1
 342 1152 l 1,7,-1
 498 1424 l 1,8,-1
 690 1424 l 1,9,-1
 690 1387 l 1,10,-1
 398 1119 l 1,11,-1
 342 1119 l 1,6,-1
EndSplineSet
Validated: 1
EndChar

StartChar: ogonek
Encoding: 731 731 219
Width: 682
GlyphClass: 2
Flags: W
LayerCount: 2
Fore
SplineSet
356 -403 m 0,0,1
 245 -403 245 -403 185 -345.5 c 128,-1,2
 125 -288 125 -288 125 -186 c 0,3,4
 125 -133 125 -133 148.5 -80.5 c 128,-1,5
 172 -28 172 -28 215 16 c 1,6,-1
 324 16 l 1,7,8
 301 -17 301 -17 285.5 -69 c 128,-1,9
 270 -121 270 -121 270 -162 c 0,10,11
 270 -236 270 -236 305.5 -275.5 c 128,-1,12
 341 -315 341 -315 408 -315 c 0,13,14
 468 -315 468 -315 524 -293 c 1,15,-1
 524 -357 l 1,16,17
 456 -403 456 -403 356 -403 c 0,0,1
EndSplineSet
Validated: 1
EndChar

StartChar: caron
Encoding: 711 711 220
Width: 682
GlyphClass: 2
Flags: W
LayerCount: 2
Fore
SplineSet
74 1425 m 1,0,-1
 342 1242 l 1,1,-1
 610 1425 l 1,2,-1
 666 1425 l 1,3,-1
 666 1392 l 1,4,-1
 449 1119 l 1,5,-1
 236 1119 l 1,6,-1
 18 1392 l 1,7,-1
 18 1425 l 1,8,-1
 74 1425 l 1,0,-1
EndSplineSet
Validated: 1
EndChar

StartChar: Lslash
Encoding: 321 321 221
Width: 1251
GlyphClass: 2
Flags: W
LayerCount: 2
Fore
SplineSet
43 518 m 1,0,-1
 231 627 l 1,1,-1
 231 1262 l 1,2,-1
 59 1288 l 1,3,-1
 59 1341 l 1,4,-1
 631 1341 l 1,5,-1
 631 1288 l 1,6,-1
 424 1262 l 1,7,-1
 424 737 l 1,8,-1
 731 915 l 1,9,-1
 731 821 l 1,10,-1
 424 643 l 1,11,-1
 424 86 l 1,12,-1
 688 86 l 2,13,14
 901 86 901 86 1001 106 c 1,15,-1
 1063 385 l 1,16,-1
 1128 385 l 1,17,-1
 1110 0 l 1,18,-1
 59 0 l 1,19,-1
 59 53 l 1,20,-1
 231 80 l 1,21,-1
 231 532 l 1,22,-1
 43 422 l 1,23,-1
 43 518 l 1,0,-1
EndSplineSet
Validated: 1
EndChar

StartChar: lslash
Encoding: 322 322 222
Width: 569
GlyphClass: 2
Flags: W
LayerCount: 2
Fore
SplineSet
20 518 m 1,0,-1
 201 621 l 1,1,-1
 201 1352 l 1,2,-1
 41 1376 l 1,3,-1
 41 1421 l 1,4,-1
 367 1421 l 1,5,-1
 367 717 l 1,6,-1
 559 829 l 1,7,-1
 559 735 l 1,8,-1
 367 623 l 1,9,-1
 367 70 l 1,10,-1
 528 45 l 1,11,-1
 528 0 l 1,12,-1
 41 0 l 1,13,-1
 41 45 l 1,14,-1
 201 70 l 1,15,-1
 201 526 l 1,16,-1
 20 422 l 1,17,-1
 20 518 l 1,0,-1
EndSplineSet
Validated: 1
EndChar

StartChar: brokenbar
Encoding: 166 166 227
Width: 410
GlyphClass: 2
Flags: W
LayerCount: 2
Fore
SplineSet
154 801 m 1,0,-1
 154 1421 l 1,1,-1
 256 1421 l 1,2,-1
 256 801 l 1,3,-1
 154 801 l 1,0,-1
154 -442 m 1,4,-1
 154 180 l 1,5,-1
 256 180 l 1,6,-1
 256 -442 l 1,7,-1
 154 -442 l 1,4,-1
EndSplineSet
Validated: 1
EndChar

StartChar: Eth
Encoding: 208 208 228
Width: 1479
GlyphClass: 2
Flags: W
LayerCount: 2
Fore
SplineSet
631 1341 m 2,0,1
 1010 1341 1010 1341 1203.5 1171.5 c 128,-1,2
 1397 1002 1397 1002 1397 678 c 0,3,4
 1397 333 1397 333 1232 164.5 c 128,-1,5
 1067 -4 1067 -4 733 -4 c 1,6,-1
 231 0 l 1,7,-1
 59 0 l 1,8,-1
 59 53 l 1,9,-1
 231 80 l 1,10,-1
 231 629 l 1,11,-1
 53 629 l 1,12,-1
 53 711 l 1,13,-1
 231 711 l 1,14,-1
 231 1262 l 1,15,-1
 59 1288 l 1,16,-1
 59 1341 l 1,17,-1
 631 1341 l 2,0,1
801 711 m 1,18,-1
 801 629 l 1,19,-1
 424 629 l 1,20,-1
 424 94 l 1,21,22
 544 86 544 86 709 86 c 0,23,24
 956 86 956 86 1072 226.5 c 128,-1,25
 1188 367 1188 367 1188 670 c 0,26,27
 1188 959 1188 959 1039.5 1105 c 128,-1,28
 891 1251 891 1251 586 1251 c 2,29,-1
 424 1251 l 1,30,-1
 424 711 l 1,31,-1
 801 711 l 1,18,-1
EndSplineSet
Validated: 1
EndChar

StartChar: eth
Encoding: 240 240 229
Width: 1024
GlyphClass: 2
Flags: W
LayerCount: 2
Fore
SplineSet
229 1102 m 1,0,-1
 457 1233 l 1,1,2
 354 1307 354 1307 238 1343 c 1,3,-1
 238 1421 l 1,4,5
 419 1377 419 1377 553 1288 c 1,6,-1
 819 1444 l 1,7,-1
 819 1350 l 1,8,-1
 625 1235 l 1,9,10
 776 1113 776 1113 858 923.5 c 128,-1,11
 940 734 940 734 944 479 c 1,12,-1
 946 444 l 1,13,14
 946 -20 946 -20 506 -20 c 0,15,16
 294 -20 294 -20 186 99 c 128,-1,17
 78 218 78 218 78 444 c 0,18,19
 78 667 78 667 186 785 c 128,-1,20
 294 903 294 903 514 903 c 0,21,22
 623 903 623 903 711 868 c 1,23,24
 663 1046 663 1046 524 1178 c 1,25,-1
 229 1006 l 1,26,-1
 229 1102 l 1,0,-1
766 444 m 0,27,28
 766 644 766 644 703 733.5 c 128,-1,29
 640 823 640 823 506 823 c 0,30,31
 376 823 376 823 317 738 c 128,-1,32
 258 653 258 653 258 444 c 0,33,34
 258 233 258 233 317.5 146 c 128,-1,35
 377 59 377 59 506 59 c 0,36,37
 638 59 638 59 702 150 c 128,-1,38
 766 241 766 241 766 444 c 0,27,28
EndSplineSet
Validated: 1
EndChar

StartChar: Thorn
Encoding: 222 222 232
Width: 1139
GlyphClass: 2
Flags: W
LayerCount: 2
Fore
SplineSet
858 686 m 0,0,1
 858 856 858 856 778.5 931 c 128,-1,2
 699 1006 699 1006 522 1006 c 2,3,-1
 424 1006 l 1,4,-1
 424 346 l 1,5,-1
 528 346 l 2,6,7
 694 346 694 346 776 427.5 c 128,-1,8
 858 509 858 509 858 686 c 0,0,1
565 1083 m 2,9,10
 1057 1083 1057 1083 1057 688 c 0,11,12
 1057 482 1057 482 932.5 375 c 128,-1,13
 808 268 808 268 575 268 c 2,14,-1
 424 268 l 1,15,-1
 424 80 l 1,16,-1
 596 53 l 1,17,-1
 596 0 l 1,18,-1
 72 0 l 1,19,-1
 72 53 l 1,20,-1
 231 80 l 1,21,-1
 231 1262 l 1,22,-1
 72 1288 l 1,23,-1
 72 1341 l 1,24,-1
 596 1341 l 1,25,-1
 596 1288 l 1,26,-1
 424 1262 l 1,27,-1
 424 1083 l 1,28,-1
 565 1083 l 2,9,10
EndSplineSet
Validated: 1
EndChar

StartChar: thorn
Encoding: 254 254 233
Width: 1024
GlyphClass: 2
Flags: W
LayerCount: 2
Fore
SplineSet
758 481 m 0,0,1
 758 676 758 676 697.5 768 c 128,-1,2
 637 860 637 860 512 860 c 0,3,4
 395 860 395 860 317 827 c 1,5,-1
 317 76 l 1,6,7
 406 59 406 59 512 59 c 0,8,9
 636 59 636 59 697 162.5 c 128,-1,10
 758 266 758 266 758 481 c 0,0,1
152 1352 m 1,11,-1
 14 1376 l 1,12,-1
 14 1421 l 1,13,-1
 317 1421 l 1,14,-1
 317 1085 l 2,15,16
 317 1029 317 1029 311 885 c 1,17,18
 353 921 353 921 423.5 943 c 128,-1,19
 494 965 494 965 567 965 c 0,20,21
 747 965 747 965 845.5 840 c 128,-1,22
 944 715 944 715 944 481 c 0,23,24
 944 242 944 242 836.5 111 c 128,-1,25
 729 -20 729 -20 526 -20 c 0,26,27
 413 -20 413 -20 311 2 c 1,28,29
 317 -70 317 -70 317 -111 c 2,30,-1
 317 -365 l 1,31,-1
 481 -389 l 1,32,-1
 481 -436 l 1,33,-1
 33 -436 l 1,34,-1
 33 -389 l 1,35,-1
 152 -365 l 1,36,-1
 152 1352 l 1,11,-1
EndSplineSet
Validated: 1
EndChar

StartChar: minus
Encoding: 8722 8722 234
Width: 1155
GlyphClass: 2
Flags: W
LayerCount: 2
Fore
SplineSet
1055 731 m 1,0,-1
 1055 629 l 1,1,-1
 102 629 l 1,2,-1
 102 731 l 1,3,-1
 1055 731 l 1,0,-1
EndSplineSet
Validated: 1
EndChar

StartChar: multiply
Encoding: 215 215 235
Width: 1155
GlyphClass: 2
Flags: W
LayerCount: 2
Fore
SplineSet
578 608 m 1,0,-1
 233 264 l 1,1,-1
 162 336 l 1,2,-1
 506 682 l 1,3,-1
 162 1024 l 1,4,-1
 236 1098 l 1,5,-1
 578 754 l 1,6,-1
 924 1098 l 1,7,-1
 995 1026 l 1,8,-1
 651 682 l 1,9,-1
 995 336 l 1,10,-1
 924 264 l 1,11,-1
 578 608 l 1,0,-1
EndSplineSet
Validated: 1
EndChar

StartChar: onesuperior
Encoding: 185 185 236
Width: 614
GlyphClass: 2
Flags: W
LayerCount: 2
Fore
SplineSet
375 598 m 1,0,-1
 541 584 l 1,1,-1
 541 535 l 1,2,-1
 66 535 l 1,3,-1
 66 584 l 1,4,-1
 231 598 l 1,5,-1
 231 1223 l 1,6,-1
 70 1165 l 1,7,-1
 70 1212 l 1,8,-1
 303 1346 l 1,9,-1
 375 1346 l 1,10,-1
 375 598 l 1,0,-1
EndSplineSet
Validated: 1
EndChar

StartChar: twosuperior
Encoding: 178 178 237
Width: 614
GlyphClass: 2
Flags: W
LayerCount: 2
Fore
SplineSet
567 535 m 1,0,-1
 68 535 l 1,1,-1
 68 631 l 1,2,-1
 178 731 l 2,3,4
 278 822 278 822 323.5 878.5 c 128,-1,5
 369 935 369 935 388.5 996.5 c 128,-1,6
 408 1058 408 1058 408 1139 c 0,7,8
 408 1282 408 1282 276 1282 c 0,9,10
 215 1282 215 1282 162 1249 c 1,11,-1
 141 1151 l 1,12,-1
 86 1151 l 1,13,-1
 86 1323 l 1,14,15
 196 1350 196 1350 276 1350 c 0,16,17
 410 1350 410 1350 480.5 1294.5 c 128,-1,18
 551 1239 551 1239 551 1139 c 0,19,20
 551 1042 551 1042 505.5 966 c 128,-1,21
 460 890 460 890 339 785 c 1,22,-1
 180 643 l 1,23,-1
 567 643 l 1,24,-1
 567 535 l 1,0,-1
EndSplineSet
Validated: 1
EndChar

StartChar: threesuperior
Encoding: 179 179 238
Width: 614
GlyphClass: 2
Flags: W
LayerCount: 2
Fore
SplineSet
575 754 m 0,0,1
 575 648 575 648 490 585 c 128,-1,2
 405 522 405 522 264 522 c 0,3,4
 159 522 159 522 49 549 c 1,5,-1
 43 735 l 1,6,-1
 98 735 l 1,7,-1
 125 623 l 1,8,9
 147 610 147 610 183 600 c 128,-1,10
 219 590 219 590 256 590 c 0,11,12
 352 590 352 590 392 626.5 c 128,-1,13
 432 663 432 663 432 760 c 0,14,15
 432 838 432 838 396 875.5 c 128,-1,16
 360 913 360 913 270 918 c 1,17,-1
 184 924 l 1,18,-1
 184 989 l 1,19,-1
 270 993 l 2,20,21
 338 996 338 996 366.5 1030.5 c 128,-1,22
 395 1065 395 1065 395 1143 c 0,23,24
 395 1220 395 1220 365.5 1251 c 128,-1,25
 336 1282 336 1282 256 1282 c 0,26,27
 192 1282 192 1282 143 1253 c 1,28,-1
 123 1151 l 1,29,-1
 68 1151 l 1,30,-1
 68 1323 l 1,31,32
 179 1350 179 1350 256 1350 c 0,33,34
 388 1350 388 1350 463.5 1298.5 c 128,-1,35
 539 1247 539 1247 539 1151 c 0,36,37
 539 1076 539 1076 490 1023 c 128,-1,38
 441 970 441 970 350 956 c 1,39,40
 575 931 575 931 575 754 c 0,0,1
EndSplineSet
Validated: 1
EndChar

StartChar: franc
Encoding: 8355 8355 242
Width: 1024
GlyphClass: 2
Flags: W
LayerCount: 2
Fore
SplineSet
394 612 m 1,0,-1
 394 384 l 1,1,-1
 668 384 l 1,2,-1
 668 302 l 1,3,-1
 394 302 l 1,4,-1
 394 80 l 1,5,-1
 597 53 l 1,6,-1
 597 0 l 1,7,-1
 42 0 l 1,8,-1
 42 53 l 1,9,-1
 201 80 l 1,10,-1
 201 302 l 1,11,-1
 28 302 l 1,12,-1
 28 384 l 1,13,-1
 201 384 l 1,14,-1
 201 1262 l 1,15,-1
 29 1288 l 1,16,-1
 29 1341 l 1,17,-1
 929 1341 l 1,18,-1
 929 1020 l 1,19,-1
 863 1020 l 1,20,-1
 831 1237 l 1,21,22
 719 1251 719 1251 507 1251 c 2,23,-1
 394 1251 l 1,24,-1
 394 702 l 1,25,-1
 759 702 l 1,26,-1
 790 862 l 1,27,-1
 851 862 l 1,28,-1
 851 450 l 1,29,-1
 790 450 l 1,30,-1
 759 612 l 1,31,-1
 394 612 l 1,0,-1
EndSplineSet
Validated: 1
EndChar

StartChar: dcroat
Encoding: 273 273 252
Width: 1024
GlyphClass: 2
Flags: W
LayerCount: 2
Fore
SplineSet
723 70 m 1,0,1
 610 -20 610 -20 459 -20 c 0,2,3
 74 -20 74 -20 74 461 c 0,4,5
 74 708 74 708 183 836.5 c 128,-1,6
 292 965 292 965 504 965 c 0,7,8
 612 965 612 965 723 942 c 1,9,10
 717 975 717 975 717 1088 c 2,11,-1
 717 1112 l 1,12,-1
 442 1112 l 1,13,-1
 442 1196 l 1,14,-1
 717 1196 l 1,15,-1
 717 1352 l 1,16,-1
 559 1376 l 1,17,-1
 559 1421 l 1,18,-1
 883 1421 l 1,19,-1
 883 1196 l 1,20,-1
 1020 1196 l 1,21,-1
 1020 1112 l 1,22,-1
 883 1112 l 1,23,-1
 883 70 l 1,24,-1
 999 45 l 1,25,-1
 999 0 l 1,26,-1
 735 0 l 1,27,-1
 723 70 l 1,0,1
254 461 m 0,28,29
 254 271 254 271 318 177.5 c 128,-1,30
 382 84 382 84 514 84 c 0,31,32
 627 84 627 84 717 123 c 1,33,-1
 717 866 l 1,34,35
 628 883 628 883 514 883 c 0,36,37
 254 883 254 883 254 461 c 0,28,29
EndSplineSet
Validated: 1
EndChar

StartChar: macron
Encoding: 175 175 253
Width: 1024
GlyphClass: 2
Flags: W
LayerCount: 2
Fore
SplineSet
1042 1452 m 1,0,-1
 -17 1452 l 1,1,-1
 -17 1546 l 1,2,-1
 1042 1546 l 1,3,-1
 1042 1452 l 1,0,-1
EndSplineSet
Validated: 1
EndChar

StartChar: periodcentered
Encoding: 183 183 254
Width: 682
GlyphClass: 2
Flags: W
LayerCount: 2
Fore
SplineSet
462 678 m 0,0,1
 462 627 462 627 427 592 c 128,-1,2
 392 557 392 557 341 557 c 256,3,4
 290 557 290 557 255 592 c 128,-1,5
 220 627 220 627 220 678 c 0,6,7
 220 727 220 727 254.5 763 c 128,-1,8
 289 799 289 799 341 799 c 256,9,10
 393 799 393 799 427.5 763 c 128,-1,11
 462 727 462 727 462 678 c 0,0,1
EndSplineSet
Validated: 1
EndChar

StartChar: Gamma
Encoding: 915 915 296
Width: 1184
GlyphClass: 2
Flags: W
LayerCount: 2
Fore
SplineSet
631 0 m 1,0,-1
 59 0 l 1,1,-1
 59 53 l 1,2,-1
 231 79 l 1,3,-1
 231 1261 l 1,4,-1
 59 1288 l 1,5,-1
 59 1341 l 1,6,-1
 1100 1341 l 1,7,-1
 1118 956 l 1,8,-1
 1053 956 l 1,9,-1
 991 1235 l 1,10,11
 891 1255 891 1255 678 1255 c 2,12,-1
 424 1255 l 1,13,-1
 424 79 l 1,14,-1
 631 53 l 1,15,-1
 631 0 l 1,0,-1
EndSplineSet
Validated: 1
EndChar

StartChar: Theta
Encoding: 920 920 297
Width: 1479
GlyphClass: 2
Flags: W
LayerCount: 2
Fore
SplineSet
293 672 m 0,0,1
 293 349 293 349 401 204 c 128,-1,2
 509 59 509 59 739 59 c 0,3,4
 968 59 968 59 1077 204 c 128,-1,5
 1186 349 1186 349 1186 672 c 0,6,7
 1186 993 1186 993 1077.5 1134.5 c 128,-1,8
 969 1276 969 1276 739 1276 c 0,9,10
 508 1276 508 1276 400.5 1134.5 c 128,-1,11
 293 993 293 993 293 672 c 0,0,1
84 672 m 0,12,13
 84 1356 84 1356 739 1356 c 0,14,15
 1063 1356 1063 1356 1229 1182.5 c 128,-1,16
 1395 1009 1395 1009 1395 672 c 0,17,18
 1395 330 1395 330 1227 155 c 128,-1,19
 1059 -20 1059 -20 739 -20 c 0,20,21
 420 -20 420 -20 252 154.5 c 128,-1,22
 84 329 84 329 84 672 c 0,12,13
558 610 m 1,23,-1
 527 468 l 1,24,-1
 463 468 l 1,25,-1
 463 880 l 1,26,-1
 527 880 l 1,27,-1
 558 740 l 1,28,-1
 920 740 l 1,29,-1
 951 880 l 1,30,-1
 1015 880 l 1,31,-1
 1015 468 l 1,32,-1
 951 468 l 1,33,-1
 920 610 l 1,34,-1
 558 610 l 1,23,-1
EndSplineSet
Validated: 1
EndChar

StartChar: Phi
Encoding: 934 934 298
Width: 1497
GlyphClass: 2
Flags: W
LayerCount: 2
Fore
SplineSet
839 80 m 1,0,-1
 1011 53 l 1,1,-1
 1011 0 l 1,2,-1
 485 0 l 1,3,-1
 485 53 l 1,4,-1
 657 80 l 1,5,-1
 657 222 l 1,6,-1
 544 222 l 2,7,8
 398 222 398 222 291 275 c 128,-1,9
 184 328 184 328 123 437 c 128,-1,10
 62 546 62 546 62 692 c 0,11,12
 62 906 62 906 191 1021.5 c 128,-1,13
 320 1137 320 1137 554 1137 c 2,14,-1
 657 1137 l 1,15,-1
 657 1262 l 1,16,-1
 485 1288 l 1,17,-1
 485 1341 l 1,18,-1
 1011 1341 l 1,19,-1
 1011 1288 l 1,20,-1
 839 1262 l 1,21,-1
 839 1137 l 1,22,-1
 943 1137 l 2,23,24
 1177 1137 1177 1137 1306 1021.5 c 128,-1,25
 1435 906 1435 906 1435 692 c 0,26,27
 1435 547 1435 547 1374.5 438 c 128,-1,28
 1314 329 1314 329 1207 275.5 c 128,-1,29
 1100 222 1100 222 953 222 c 2,30,-1
 839 222 l 1,31,-1
 839 80 l 1,0,-1
906 300 m 2,32,33
 1066 300 1066 300 1151 399.5 c 128,-1,34
 1236 499 1236 499 1236 690 c 0,35,36
 1236 874 1236 874 1151 967 c 128,-1,37
 1066 1060 1066 1060 900 1060 c 2,38,-1
 839 1060 l 1,39,-1
 839 300 l 1,40,-1
 906 300 l 2,32,33
261 690 m 0,41,42
 261 499 261 499 346 399.5 c 128,-1,43
 431 300 431 300 591 300 c 2,44,-1
 657 300 l 1,45,-1
 657 1060 l 1,46,-1
 597 1060 l 2,47,48
 431 1060 431 1060 346 967 c 128,-1,49
 261 874 261 874 261 690 c 0,41,42
EndSplineSet
Validated: 1
EndChar

StartChar: alpha
Encoding: 945 945 299
Width: 1073
GlyphClass: 2
Flags: W
LayerCount: 2
Fore
SplineSet
1024 45 m 1,0,-1
 1024 0 l 1,1,-1
 812 0 l 1,2,3
 775 118 775 118 746 274 c 1,4,-1
 740 274 l 1,5,6
 668 137 668 137 622 84.5 c 128,-1,7
 576 32 576 32 520 6 c 128,-1,8
 464 -20 464 -20 391 -20 c 0,9,10
 241 -20 241 -20 159.5 103 c 128,-1,11
 78 226 78 226 78 453 c 0,12,13
 78 695 78 695 180.5 830.5 c 128,-1,14
 283 966 283 966 469 966 c 0,15,16
 597 966 597 966 672 902 c 128,-1,17
 747 838 747 838 794 690 c 1,18,-1
 800 690 l 1,19,-1
 870 940 l 1,20,-1
 1027 940 l 1,21,-1
 1027 900 l 1,22,23
 1004 864 1004 864 973 793 c 128,-1,24
 942 722 942 722 852 483 c 1,25,26
 909 237 909 237 976 60 c 1,27,-1
 1024 45 l 1,0,-1
724 463 m 1,28,29
 698 689 698 689 641 787.5 c 128,-1,30
 584 886 584 886 484 886 c 0,31,32
 259 886 259 886 259 453 c 0,33,34
 259 269 259 269 306 173.5 c 128,-1,35
 353 78 353 78 431 78 c 0,36,37
 491 78 491 78 538.5 116 c 128,-1,38
 586 154 586 154 625.5 224 c 128,-1,39
 665 294 665 294 724 463 c 1,28,29
EndSplineSet
Validated: 1
EndChar

StartChar: delta
Encoding: 948 948 300
Width: 965
GlyphClass: 2
Flags: W
LayerCount: 2
Fore
SplineSet
251 1188 m 0,0,1
 251 1300 251 1300 336 1365.5 c 128,-1,2
 421 1431 421 1431 564 1431 c 0,3,4
 661 1431 661 1431 810 1400 c 1,5,-1
 810 1195 l 1,6,-1
 763 1195 l 1,7,-1
 721 1304 l 1,8,9
 668 1351 668 1351 566 1351 c 0,10,11
 485 1351 485 1351 442.5 1311 c 128,-1,12
 400 1271 400 1271 400 1203 c 0,13,14
 400 1148 400 1148 442.5 1090.5 c 128,-1,15
 485 1033 485 1033 631 915 c 1,16,17
 773 798 773 798 830.5 691.5 c 128,-1,18
 888 585 888 585 888 450 c 0,19,20
 888 229 888 229 783.5 104.5 c 128,-1,21
 679 -20 679 -20 486 -20 c 0,22,23
 290 -20 290 -20 183.5 88 c 128,-1,24
 77 196 77 196 77 399 c 0,25,26
 77 583 77 583 172 705 c 128,-1,27
 267 827 267 827 444 873 c 1,28,29
 335 969 335 969 293 1040.5 c 128,-1,30
 251 1112 251 1112 251 1188 c 0,0,1
249 391 m 0,31,32
 249 231 249 231 311 145 c 128,-1,33
 373 59 373 59 487 59 c 0,34,35
 596 59 596 59 655 148.5 c 128,-1,36
 714 238 714 238 714 422 c 0,37,38
 714 540 714 540 671 628.5 c 128,-1,39
 628 717 628 717 529 801 c 1,40,-1
 504 821 l 1,41,42
 366 773 366 773 307.5 666.5 c 128,-1,43
 249 560 249 560 249 391 c 0,31,32
EndSplineSet
Validated: 1
EndChar

StartChar: epsilon
Encoding: 949 949 301
Width: 860
GlyphClass: 2
Flags: W
LayerCount: 2
Fore
SplineSet
801 70 m 1,0,1
 664 -20 664 -20 457 -20 c 0,2,3
 274 -20 274 -20 176.5 55.5 c 128,-1,4
 79 131 79 131 79 269 c 0,5,6
 79 360 79 360 139.5 422.5 c 128,-1,7
 200 485 200 485 303 506 c 1,8,-1
 303 513 l 1,9,10
 119 574 119 574 119 725 c 0,11,12
 119 837 119 837 223 901 c 128,-1,13
 327 965 327 965 504 965 c 0,14,15
 646 965 646 965 773 929 c 1,16,-1
 772 733 l 1,17,-1
 724 733 l 1,18,-1
 667 846 l 1,19,20
 640 862 640 862 591.5 874.5 c 128,-1,21
 543 887 543 887 497 887 c 0,22,23
 397 887 397 887 342.5 842.5 c 128,-1,24
 288 798 288 798 288 718 c 0,25,26
 288 650 288 650 321.5 603.5 c 128,-1,27
 355 557 355 557 411 541 c 1,28,29
 451 545 451 545 530.5 548.5 c 128,-1,30
 610 552 610 552 636 552 c 2,31,-1
 668 552 l 1,32,-1
 668 456 l 1,33,-1
 636 456 l 2,34,35
 568 456 568 456 393 469 c 1,36,37
 324 449 324 449 288 398.5 c 128,-1,38
 252 348 252 348 252 278 c 0,39,40
 252 188 252 188 319.5 136 c 128,-1,41
 387 84 387 84 506 84 c 0,42,43
 575 84 575 84 642 94 c 128,-1,44
 709 104 709 104 801 135 c 1,45,-1
 801 70 l 1,0,1
EndSplineSet
Validated: 1
EndChar

StartChar: sigma
Encoding: 963 963 302
Width: 1104
GlyphClass: 2
Flags: W
LayerCount: 2
Fore
SplineSet
1016 1048 m 1,0,-1
 1073 1048 l 1,1,-1
 1055 856 l 1,2,-1
 764 856 l 1,3,-1
 764 849 l 1,4,5
 857 768 857 768 906.5 660.5 c 128,-1,6
 956 553 956 553 956 438 c 0,7,8
 956 225 956 225 838.5 102.5 c 128,-1,9
 721 -20 721 -20 523 -20 c 0,10,11
 320 -20 320 -20 199 115 c 128,-1,12
 78 250 78 250 78 473 c 0,13,14
 78 692 78 692 220.5 816 c 128,-1,15
 363 940 363 940 611 940 c 2,16,-1
 960 940 l 1,17,-1
 1016 1048 l 1,0,-1
533 59 m 0,18,19
 646 59 646 59 710 160 c 128,-1,20
 774 261 774 261 774 444 c 0,21,22
 774 581 774 581 741 688.5 c 128,-1,23
 708 796 708 796 650 856 c 1,24,25
 460 856 460 856 359 752.5 c 128,-1,26
 258 649 258 649 258 451 c 0,27,28
 258 266 258 266 332.5 162.5 c 128,-1,29
 407 59 407 59 533 59 c 0,18,19
EndSplineSet
Validated: 1
EndChar

StartChar: tau
Encoding: 964 964 303
Width: 823
GlyphClass: 2
Flags: W
LayerCount: 2
Fore
SplineSet
150 856 m 1,0,-1
 102 728 l 1,1,-1
 45 728 l 1,2,-1
 66 940 l 1,3,-1
 778 940 l 1,4,-1
 778 856 l 1,5,-1
 484 856 l 1,6,-1
 484 214 l 2,7,8
 484 84 484 84 588 84 c 0,9,10
 629 84 629 84 696 100 c 1,11,-1
 696 35 l 1,12,13
 672 15 672 15 617 -2.5 c 128,-1,14
 562 -20 562 -20 512 -20 c 0,15,16
 424 -20 424 -20 371 33.5 c 128,-1,17
 318 87 318 87 318 197 c 2,18,-1
 318 856 l 1,19,-1
 150 856 l 1,0,-1
EndSplineSet
Validated: 1
EndChar

StartChar: phi
Encoding: 966 966 304
Width: 1182
GlyphClass: 2
Flags: W
LayerCount: 2
Fore
SplineSet
644 -436 m 1,0,-1
 538 -436 l 1,1,-1
 538 -16 l 1,2,3
 306 1 306 1 192.5 118.5 c 128,-1,4
 79 236 79 236 79 466 c 0,5,6
 79 689 79 689 162 809.5 c 128,-1,7
 245 930 245 930 440 964 c 1,8,-1
 439 891 l 1,9,10
 343 855 343 855 301.5 760.5 c 128,-1,11
 260 666 260 666 260 472 c 0,12,13
 260 280 260 280 327 180.5 c 128,-1,14
 394 81 394 81 538 58 c 1,15,-1
 538 670 l 2,16,17
 538 812 538 812 599 889 c 128,-1,18
 660 966 660 966 773 966 c 0,19,20
 930 966 930 966 1016 845.5 c 128,-1,21
 1102 725 1102 725 1102 492 c 0,22,23
 1102 265 1102 265 984 134 c 128,-1,24
 866 3 866 3 644 -17 c 1,25,-1
 644 -436 l 1,0,-1
923 478 m 0,26,27
 923 677 923 677 879 781 c 128,-1,28
 835 885 835 885 755 885 c 0,29,30
 644 885 644 885 644 670 c 2,31,-1
 644 60 l 1,32,33
 787 81 787 81 855 182.5 c 128,-1,34
 923 284 923 284 923 478 c 0,26,27
EndSplineSet
Validated: 1
EndChar

StartChar: nsuperior
Encoding: 8319 8319 307
Width: 645
GlyphClass: 2
Flags: W
LayerCount: 2
Fore
SplineSet
221 1054 m 1,0,1
 334 1114 334 1114 394 1114 c 0,2,3
 468 1114 468 1114 507.5 1071.5 c 128,-1,4
 547 1029 547 1029 547 948 c 2,5,-1
 547 587 l 1,6,-1
 615 572 l 1,7,-1
 615 535 l 1,8,-1
 372 535 l 1,9,-1
 372 572 l 1,10,-1
 427 587 l 1,11,-1
 427 937 l 2,12,13
 427 987 427 987 410 1010.5 c 128,-1,14
 393 1034 393 1034 342 1034 c 0,15,16
 300 1034 300 1034 222 1017 c 1,17,-1
 222 587 l 1,18,-1
 279 572 l 1,19,-1
 279 535 l 1,20,-1
 35 535 l 1,21,-1
 35 572 l 1,22,-1
 103 587 l 1,23,-1
 103 1047 l 1,24,-1
 35 1062 l 1,25,-1
 35 1099 l 1,26,-1
 216 1099 l 1,27,-1
 221 1054 l 1,0,1
EndSplineSet
Validated: 1
EndChar

StartChar: peseta
Encoding: 8359 8359 308
Width: 1984
GlyphClass: 2
Flags: W
LayerCount: 2
Fore
SplineSet
760 944 m 0,0,1
 760 1109 760 1109 683 1180 c 128,-1,2
 606 1251 606 1251 424 1251 c 2,3,-1
 386 1251 l 1,4,-1
 386 616 l 1,5,-1
 430 616 l 2,6,7
 599 616 599 616 679.5 693 c 128,-1,8
 760 770 760 770 760 944 c 0,0,1
949 946 m 0,9,10
 949 738 949 738 829.5 632 c 128,-1,11
 710 526 710 526 477 526 c 2,12,-1
 386 526 l 1,13,-1
 386 80 l 1,14,-1
 559 53 l 1,15,-1
 559 0 l 1,16,-1
 44 0 l 1,17,-1
 44 53 l 1,18,-1
 203 80 l 1,19,-1
 203 1262 l 1,20,-1
 51 1288 l 1,21,-1
 51 1341 l 1,22,-1
 467 1341 l 2,23,24
 707 1341 707 1341 828 1244.5 c 128,-1,25
 949 1148 949 1148 949 946 c 0,9,10
1148 -20 m 0,26,27
 1063 -20 1063 -20 1021.5 37 c 128,-1,28
 980 94 980 94 980 197 c 2,29,-1
 980 616 l 1,30,-1
 887 616 l 1,31,-1
 887 651 l 1,32,-1
 980 690 l 1,33,-1
 1083 873 l 1,34,-1
 1146 873 l 1,35,-1
 1146 690 l 1,36,-1
 1311 690 l 1,37,-1
 1311 616 l 1,38,-1
 1146 616 l 1,39,-1
 1146 205 l 2,40,41
 1146 140 1146 140 1169.5 107 c 128,-1,42
 1193 74 1193 74 1231 74 c 0,43,44
 1277 74 1277 74 1344 90 c 1,45,-1
 1344 35 l 1,46,47
 1309 10 1309 10 1254 -5 c 128,-1,48
 1199 -20 1199 -20 1148 -20 c 0,26,27
1893 206 m 0,49,50
 1893 95 1893 95 1822.5 37.5 c 128,-1,51
 1752 -20 1752 -20 1623 -20 c 0,52,53
 1563 -20 1563 -20 1484.5 -7.5 c 128,-1,54
 1406 5 1406 5 1366 20 c 1,55,-1
 1366 227 l 1,56,-1
 1411 227 l 1,57,-1
 1450 117 l 1,58,59
 1511 49 1511 49 1605 49 c 0,60,61
 1669 49 1669 49 1704 78.5 c 128,-1,62
 1739 108 1739 108 1739 164 c 0,63,64
 1739 206 1739 206 1710.5 235 c 128,-1,65
 1682 264 1682 264 1621 286 c 1,66,-1
 1552 309 l 2,67,68
 1446 345 1446 345 1405 394.5 c 128,-1,69
 1364 444 1364 444 1364 518 c 0,70,71
 1364 607 1364 607 1435 658.5 c 128,-1,72
 1506 710 1506 710 1628 710 c 0,73,74
 1713 710 1713 710 1845 679 c 1,75,-1
 1845 484 l 1,76,-1
 1798 484 l 1,77,-1
 1756 593 l 1,78,79
 1737 616 1737 616 1700.5 628 c 128,-1,80
 1664 640 1664 640 1626 640 c 0,81,82
 1572 640 1572 640 1542.5 613 c 128,-1,83
 1513 586 1513 586 1513 541 c 0,84,85
 1513 505 1513 505 1549 481.5 c 128,-1,86
 1585 458 1585 458 1703 419 c 0,87,88
 1797 387 1797 387 1845 334.5 c 128,-1,89
 1893 282 1893 282 1893 206 c 0,49,50
EndSplineSet
Validated: 1
EndChar

StartChar: arrowleft
Encoding: 8592 8592 309
Width: 2048
GlyphClass: 2
Flags: W
LayerCount: 2
Fore
SplineSet
641 297 m 1,0,1
 698 230 698 230 760 100 c 1,2,-1
 688 100 l 1,3,4
 561 249 561 249 418 322 c 1,5,-1
 418 358 l 1,6,7
 561 431 561 431 688 580 c 1,8,-1
 760 580 l 1,9,10
 698 450 698 450 641 383 c 1,11,-1
 1630 383 l 1,12,-1
 1630 297 l 1,13,-1
 641 297 l 1,0,1
EndSplineSet
Validated: 1
EndChar

StartChar: arrowup
Encoding: 8593 8593 310
Width: 1024
GlyphClass: 2
Flags: W
LayerCount: 2
Fore
SplineSet
469 928 m 1,0,1
 402 871 402 871 272 809 c 1,2,-1
 272 881 l 1,3,4
 421 1008 421 1008 494 1151 c 1,5,-1
 530 1151 l 1,6,7
 603 1008 603 1008 752 881 c 1,8,-1
 752 809 l 1,9,10
 622 871 622 871 555 928 c 1,11,-1
 555 -61 l 1,12,-1
 469 -61 l 1,13,-1
 469 928 l 1,0,1
EndSplineSet
Validated: 1
EndChar

StartChar: arrowright
Encoding: 8594 8594 311
Width: 2048
GlyphClass: 2
Flags: W
LayerCount: 2
Fore
SplineSet
1407 383 m 1,0,1
 1350 450 1350 450 1288 580 c 1,2,-1
 1360 580 l 1,3,4
 1487 431 1487 431 1630 358 c 1,5,-1
 1630 322 l 1,6,7
 1487 249 1487 249 1360 100 c 1,8,-1
 1288 100 l 1,9,10
 1350 230 1350 230 1407 297 c 1,11,-1
 418 297 l 1,12,-1
 418 383 l 1,13,-1
 1407 383 l 1,0,1
EndSplineSet
Validated: 1
EndChar

StartChar: arrowdown
Encoding: 8595 8595 312
Width: 1024
GlyphClass: 2
Flags: W
LayerCount: 2
Fore
SplineSet
555 162 m 1,0,1
 622 219 622 219 752 281 c 1,2,-1
 752 209 l 1,3,4
 603 82 603 82 530 -61 c 1,5,-1
 494 -61 l 1,6,7
 421 82 421 82 272 209 c 1,8,-1
 272 281 l 1,9,10
 402 219 402 219 469 162 c 1,11,-1
 469 1151 l 1,12,-1
 555 1151 l 1,13,-1
 555 162 l 1,0,1
EndSplineSet
Validated: 1
EndChar

StartChar: arrowboth
Encoding: 8596 8596 313
Width: 2048
GlyphClass: 2
Flags: W
LayerCount: 2
Fore
SplineSet
641 297 m 1,0,1
 698 230 698 230 760 100 c 1,2,-1
 688 100 l 1,3,4
 561 249 561 249 418 322 c 1,5,-1
 418 358 l 1,6,7
 561 431 561 431 688 580 c 1,8,-1
 760 580 l 1,9,10
 698 450 698 450 641 383 c 1,11,-1
 1407 383 l 1,12,13
 1350 450 1350 450 1288 580 c 1,14,-1
 1360 580 l 1,15,16
 1487 431 1487 431 1630 358 c 1,17,-1
 1630 322 l 1,18,19
 1487 249 1487 249 1360 100 c 1,20,-1
 1288 100 l 1,21,22
 1350 230 1350 230 1407 297 c 1,23,-1
 641 297 l 1,0,1
EndSplineSet
Validated: 1
EndChar

StartChar: arrowupdn
Encoding: 8597 8597 314
Width: 1024
GlyphClass: 2
Flags: W
LayerCount: 2
Fore
SplineSet
469 928 m 1,0,1
 402 871 402 871 272 809 c 1,2,-1
 272 881 l 1,3,4
 421 1008 421 1008 494 1151 c 1,5,-1
 530 1151 l 1,6,7
 603 1008 603 1008 752 881 c 1,8,-1
 752 809 l 1,9,10
 622 871 622 871 555 928 c 1,11,-1
 555 162 l 1,12,13
 622 219 622 219 752 281 c 1,14,-1
 752 209 l 1,15,16
 603 82 603 82 530 -61 c 1,17,-1
 494 -61 l 1,18,19
 421 82 421 82 272 209 c 1,20,-1
 272 281 l 1,21,22
 402 219 402 219 469 162 c 1,23,-1
 469 928 l 1,0,1
EndSplineSet
Validated: 1
EndChar

StartChar: arrowupdnbse
Encoding: 8616 8616 315
Width: 1024
GlyphClass: 2
Flags: W
LayerCount: 2
Fore
SplineSet
272 -104 m 1,0,-1
 752 -104 l 1,1,-1
 752 -184 l 1,2,-1
 272 -184 l 1,3,-1
 272 -104 l 1,0,-1
469 928 m 1,4,5
 402 871 402 871 272 809 c 1,6,-1
 272 881 l 1,7,8
 421 1008 421 1008 494 1151 c 1,9,-1
 530 1151 l 1,10,11
 603 1008 603 1008 752 881 c 1,12,-1
 752 809 l 1,13,14
 622 871 622 871 555 928 c 1,15,-1
 555 162 l 1,16,17
 622 219 622 219 752 281 c 1,18,-1
 752 209 l 1,19,20
 603 82 603 82 530 -61 c 1,21,-1
 494 -61 l 1,22,23
 421 82 421 82 272 209 c 1,24,-1
 272 281 l 1,25,26
 402 219 402 219 469 162 c 1,27,-1
 469 928 l 1,4,5
EndSplineSet
Validated: 1
EndChar

StartChar: orthogonal
Encoding: 8735 8735 316
Width: 2005
GlyphClass: 2
Flags: W
LayerCount: 2
Fore
SplineSet
408 1223 m 1,0,-1
 502 1223 l 1,1,-1
 502 94 l 1,2,-1
 1632 94 l 1,3,-1
 1632 0 l 1,4,-1
 408 0 l 1,5,-1
 408 1223 l 1,0,-1
EndSplineSet
Validated: 1
EndChar

StartChar: intersection
Encoding: 8745 8745 317
Width: 1479
GlyphClass: 2
Flags: W
LayerCount: 2
Fore
SplineSet
282 -2 m 1,0,-1
 282 510 l 2,1,2
 282 660 282 660 340 779.5 c 128,-1,3
 398 899 398 899 502.5 965.5 c 128,-1,4
 607 1032 607 1032 737 1032 c 0,5,6
 868 1032 868 1032 973.5 966 c 128,-1,7
 1079 900 1079 900 1138.5 779 c 128,-1,8
 1198 658 1198 658 1198 510 c 2,9,-1
 1198 -2 l 1,10,-1
 1095 -2 l 1,11,-1
 1095 512 l 2,12,13
 1095 702 1095 702 997 816 c 128,-1,14
 899 930 899 930 739 930 c 0,15,16
 577 930 577 930 481 817 c 128,-1,17
 385 704 385 704 385 510 c 2,18,-1
 385 -2 l 1,19,-1
 282 -2 l 1,0,-1
EndSplineSet
Validated: 1
EndChar

StartChar: equivalence
Encoding: 8801 8801 318
Width: 1155
GlyphClass: 2
Flags: W
LayerCount: 2
Fore
SplineSet
1055 436 m 5,0,-1
 1055 334 l 5,1,-1
 102 334 l 5,2,-1
 102 436 l 5,3,-1
 1055 436 l 5,0,-1
1055 1026 m 5,4,-1
 1055 924 l 5,5,-1
 102 924 l 5,6,-1
 102 1026 l 5,7,-1
 1055 1026 l 5,4,-1
1055 731 m 5,8,-1
 1055 629 l 5,9,-1
 102 629 l 5,10,-1
 102 731 l 5,11,-1
 1055 731 l 5,8,-1
EndSplineSet
Validated: 1
EndChar

StartChar: house
Encoding: 8962 8962 319
Width: 1229
GlyphClass: 2
Flags: W
LayerCount: 2
Fore
SplineSet
154 0 m 1,0,-1
 154 635 l 1,1,-1
 615 1153 l 1,2,-1
 1076 635 l 1,3,-1
 1076 0 l 1,4,-1
 154 0 l 1,0,-1
234 82 m 1,5,-1
 996 82 l 1,6,-1
 996 600 l 1,7,-1
 615 1026 l 1,8,-1
 234 600 l 1,9,-1
 234 82 l 1,5,-1
EndSplineSet
Validated: 1
EndChar

StartChar: revlogicalnot
Encoding: 8976 8976 320
Width: 1155
GlyphClass: 2
Flags: W
LayerCount: 2
Fore
SplineSet
205 629 m 1,0,-1
 205 203 l 1,1,-1
 102 203 l 1,2,-1
 102 731 l 1,3,-1
 1055 731 l 1,4,-1
 1055 629 l 1,5,-1
 205 629 l 1,0,-1
EndSplineSet
Validated: 1
EndChar

StartChar: integraltp
Encoding: 8992 8992 321
Width: 1237
GlyphClass: 2
Flags: W
LayerCount: 2
Fore
SplineSet
693 -614 m 1,0,-1
 546 -614 l 1,1,-1
 546 1264 l 2,2,3
 546 1460 546 1460 630 1583 c 128,-1,4
 714 1706 714 1706 840 1706 c 0,5,6
 903 1706 903 1706 940.5 1674.5 c 128,-1,7
 978 1643 978 1643 978 1595 c 0,8,9
 978 1555 978 1555 952.5 1529 c 128,-1,10
 927 1503 927 1503 890 1503 c 0,11,12
 860 1503 860 1503 847 1513 c 1,13,14
 831 1521 831 1521 793 1563 c 1,15,16
 760 1602 760 1602 744 1602 c 0,17,18
 708 1602 708 1602 699 1563 c 1,19,20
 693 1528 693 1528 693 1423 c 2,21,-1
 693 -614 l 1,0,-1
EndSplineSet
Validated: 1
EndChar

StartChar: integralbt
Encoding: 8993 8993 322
Width: 1237
GlyphClass: 2
Flags: W
LayerCount: 2
Fore
SplineSet
546 1706 m 1,0,-1
 693 1706 l 1,1,-1
 693 -174 l 2,2,3
 693 -369 693 -369 611.5 -491.5 c 128,-1,4
 530 -614 530 -614 398 -614 c 0,5,6
 339 -614 339 -614 300 -583.5 c 128,-1,7
 261 -553 261 -553 261 -506 c 0,8,9
 261 -467 261 -467 286 -440.5 c 128,-1,10
 311 -414 311 -414 347 -414 c 0,11,12
 380 -414 380 -414 406 -430 c 1,13,14
 416 -434 416 -434 447 -475 c 1,15,16
 478 -512 478 -512 494 -512 c 0,17,18
 523 -512 523 -512 534.5 -486.5 c 128,-1,19
 546 -461 546 -461 546 -334 c 2,20,-1
 546 1706 l 1,0,-1
EndSplineSet
Validated: 1
EndChar

StartChar: uni2500
Encoding: 9472 9472 323
Width: 1451
GlyphClass: 2
Flags: W
LayerCount: 2
Fore
SplineSet
-10 549 m 1,0,-1
 -10 694 l 1,1,-1
 1461 694 l 1,2,-1
 1461 549 l 1,3,-1
 -10 549 l 1,0,-1
EndSplineSet
Validated: 1
EndChar

StartChar: uni2502
Encoding: 9474 9474 324
Width: 1451
GlyphClass: 2
Flags: W
LayerCount: 2
Fore
SplineSet
653 1864 m 1,0,-1
 798 1864 l 1,1,-1
 798 -621 l 1,2,-1
 653 -621 l 1,3,-1
 653 1864 l 1,0,-1
EndSplineSet
Validated: 1
EndChar

StartChar: uni250C
Encoding: 9484 9484 325
Width: 1451
GlyphClass: 2
Flags: W
LayerCount: 2
Fore
SplineSet
653 694 m 1,0,-1
 1461 694 l 1,1,-1
 1461 549 l 1,2,-1
 798 549 l 1,3,-1
 798 -621 l 1,4,-1
 653 -621 l 1,5,-1
 653 694 l 1,0,-1
EndSplineSet
Validated: 1
EndChar

StartChar: uni2510
Encoding: 9488 9488 326
Width: 1451
GlyphClass: 2
Flags: W
LayerCount: 2
Fore
SplineSet
-10 549 m 1,0,-1
 -10 694 l 1,1,-1
 798 694 l 1,2,-1
 798 -621 l 1,3,-1
 653 -621 l 1,4,-1
 653 549 l 1,5,-1
 -10 549 l 1,0,-1
EndSplineSet
Validated: 1
EndChar

StartChar: uni2514
Encoding: 9492 9492 327
Width: 1451
GlyphClass: 2
Flags: W
LayerCount: 2
Fore
SplineSet
653 1864 m 1,0,-1
 798 1864 l 1,1,-1
 798 694 l 1,2,-1
 1461 694 l 1,3,-1
 1461 549 l 1,4,-1
 653 549 l 1,5,-1
 653 1864 l 1,0,-1
EndSplineSet
Validated: 1
EndChar

StartChar: uni2518
Encoding: 9496 9496 328
Width: 1451
GlyphClass: 2
Flags: W
LayerCount: 2
Fore
SplineSet
-10 549 m 1,0,-1
 -10 694 l 1,1,-1
 653 694 l 1,2,-1
 653 1864 l 1,3,-1
 798 1864 l 1,4,-1
 798 549 l 1,5,-1
 -10 549 l 1,0,-1
EndSplineSet
Validated: 1
EndChar

StartChar: uni251C
Encoding: 9500 9500 329
Width: 1451
GlyphClass: 2
Flags: W
LayerCount: 2
Fore
SplineSet
653 1864 m 1,0,-1
 798 1864 l 1,1,-1
 798 694 l 1,2,-1
 1461 694 l 1,3,-1
 1461 549 l 1,4,-1
 798 549 l 1,5,-1
 798 -621 l 1,6,-1
 653 -621 l 1,7,-1
 653 1864 l 1,0,-1
EndSplineSet
Validated: 1
EndChar

StartChar: uni2524
Encoding: 9508 9508 330
Width: 1451
GlyphClass: 2
Flags: W
LayerCount: 2
Fore
SplineSet
-10 549 m 1,0,-1
 -10 694 l 1,1,-1
 653 694 l 1,2,-1
 653 1864 l 1,3,-1
 798 1864 l 1,4,-1
 798 -621 l 1,5,-1
 653 -621 l 1,6,-1
 653 549 l 1,7,-1
 -10 549 l 1,0,-1
EndSplineSet
Validated: 1
EndChar

StartChar: uni252C
Encoding: 9516 9516 331
Width: 1451
GlyphClass: 2
Flags: W
LayerCount: 2
Fore
SplineSet
-10 549 m 1,0,-1
 -10 694 l 1,1,-1
 1461 694 l 1,2,-1
 1461 549 l 1,3,-1
 798 549 l 1,4,-1
 798 -621 l 1,5,-1
 653 -621 l 1,6,-1
 653 549 l 1,7,-1
 -10 549 l 1,0,-1
EndSplineSet
Validated: 1
EndChar

StartChar: uni2534
Encoding: 9524 9524 332
Width: 1451
GlyphClass: 2
Flags: W
LayerCount: 2
Fore
SplineSet
-10 549 m 1,0,-1
 -10 694 l 1,1,-1
 653 694 l 1,2,-1
 653 1864 l 1,3,-1
 798 1864 l 1,4,-1
 798 694 l 1,5,-1
 1461 694 l 1,6,-1
 1461 549 l 1,7,-1
 -10 549 l 1,0,-1
EndSplineSet
Validated: 1
EndChar

StartChar: uni253C
Encoding: 9532 9532 333
Width: 1451
GlyphClass: 2
Flags: W
LayerCount: 2
Fore
SplineSet
-10 549 m 1,0,-1
 -10 694 l 1,1,-1
 653 694 l 1,2,-1
 653 1864 l 1,3,-1
 798 1864 l 1,4,-1
 798 694 l 1,5,-1
 1461 694 l 1,6,-1
 1461 549 l 1,7,-1
 798 549 l 1,8,-1
 798 -621 l 1,9,-1
 653 -621 l 1,10,-1
 653 549 l 1,11,-1
 -10 549 l 1,0,-1
EndSplineSet
Validated: 1
EndChar

StartChar: uni2550
Encoding: 9552 9552 334
Width: 1451
GlyphClass: 2
Flags: W
LayerCount: 2
Fore
SplineSet
-10 729 m 1,0,-1
 -10 874 l 1,1,-1
 1461 874 l 1,2,-1
 1461 729 l 1,3,-1
 -10 729 l 1,0,-1
-10 369 m 1,4,-1
 -10 514 l 1,5,-1
 1461 514 l 1,6,-1
 1461 369 l 1,7,-1
 -10 369 l 1,4,-1
EndSplineSet
Validated: 1
EndChar

StartChar: uni2551
Encoding: 9553 9553 335
Width: 1451
GlyphClass: 2
Flags: W
LayerCount: 2
Fore
SplineSet
473 1864 m 1,0,-1
 618 1864 l 1,1,-1
 618 -621 l 1,2,-1
 473 -621 l 1,3,-1
 473 1864 l 1,0,-1
833 1864 m 1,4,-1
 978 1864 l 1,5,-1
 978 -621 l 1,6,-1
 833 -621 l 1,7,-1
 833 1864 l 1,4,-1
EndSplineSet
Validated: 1
EndChar

StartChar: uni2552
Encoding: 9554 9554 336
Width: 1451
GlyphClass: 2
Flags: W
LayerCount: 2
Fore
SplineSet
653 874 m 1,0,-1
 1461 874 l 1,1,-1
 1461 729 l 1,2,-1
 798 729 l 1,3,-1
 798 514 l 1,4,-1
 1461 514 l 1,5,-1
 1461 369 l 1,6,-1
 798 369 l 1,7,-1
 798 -621 l 1,8,-1
 653 -621 l 1,9,-1
 653 874 l 1,0,-1
EndSplineSet
Validated: 1
EndChar

StartChar: uni2553
Encoding: 9555 9555 337
Width: 1451
GlyphClass: 2
Flags: W
LayerCount: 2
Fore
SplineSet
1461 694 m 1,0,-1
 1461 549 l 1,1,-1
 978 549 l 1,2,-1
 978 -621 l 1,3,-1
 833 -621 l 1,4,-1
 833 549 l 1,5,-1
 618 549 l 1,6,-1
 618 -621 l 1,7,-1
 473 -621 l 1,8,-1
 473 694 l 1,9,-1
 1461 694 l 1,0,-1
EndSplineSet
Validated: 1
EndChar

StartChar: uni2554
Encoding: 9556 9556 338
Width: 1451
GlyphClass: 2
Flags: W
LayerCount: 2
Fore
SplineSet
473 874 m 1,0,-1
 1461 874 l 1,1,-1
 1461 729 l 1,2,-1
 618 729 l 1,3,-1
 618 -621 l 1,4,-1
 473 -621 l 1,5,-1
 473 874 l 1,0,-1
833 514 m 1,6,-1
 1461 514 l 1,7,-1
 1461 369 l 1,8,-1
 978 369 l 1,9,-1
 978 -621 l 1,10,-1
 833 -621 l 1,11,-1
 833 514 l 1,6,-1
EndSplineSet
Validated: 1
EndChar

StartChar: uni2555
Encoding: 9557 9557 339
Width: 1451
GlyphClass: 2
Flags: W
LayerCount: 2
Fore
SplineSet
-10 369 m 1,0,-1
 -10 514 l 1,1,-1
 653 514 l 1,2,-1
 653 729 l 1,3,-1
 -10 729 l 1,4,-1
 -10 874 l 1,5,-1
 798 874 l 1,6,-1
 798 -621 l 1,7,-1
 653 -621 l 1,8,-1
 653 369 l 1,9,-1
 -10 369 l 1,0,-1
EndSplineSet
Validated: 1
EndChar

StartChar: uni2556
Encoding: 9558 9558 340
Width: 1451
GlyphClass: 2
Flags: W
LayerCount: 2
Fore
SplineSet
-10 549 m 1,0,-1
 -10 694 l 1,1,-1
 978 694 l 1,2,-1
 978 -621 l 1,3,-1
 833 -621 l 1,4,-1
 833 549 l 1,5,-1
 618 549 l 1,6,-1
 618 -621 l 1,7,-1
 473 -621 l 1,8,-1
 473 549 l 1,9,-1
 -10 549 l 1,0,-1
EndSplineSet
Validated: 1
EndChar

StartChar: uni2557
Encoding: 9559 9559 341
Width: 1451
GlyphClass: 2
Flags: W
LayerCount: 2
Fore
SplineSet
978 874 m 1,0,-1
 978 -621 l 1,1,-1
 833 -621 l 1,2,-1
 833 729 l 1,3,-1
 -10 729 l 1,4,-1
 -10 874 l 1,5,-1
 978 874 l 1,0,-1
618 -621 m 1,6,-1
 473 -621 l 1,7,-1
 473 369 l 1,8,-1
 -10 369 l 1,9,-1
 -10 514 l 1,10,-1
 618 514 l 1,11,-1
 618 -621 l 1,6,-1
EndSplineSet
Validated: 1
EndChar

StartChar: uni2558
Encoding: 9560 9560 342
Width: 1451
GlyphClass: 2
Flags: W
LayerCount: 2
Fore
SplineSet
653 1864 m 1,0,-1
 798 1864 l 1,1,-1
 798 874 l 1,2,-1
 1461 874 l 1,3,-1
 1461 729 l 1,4,-1
 798 729 l 1,5,-1
 798 514 l 1,6,-1
 1461 514 l 1,7,-1
 1461 369 l 1,8,-1
 653 369 l 1,9,-1
 653 1864 l 1,0,-1
EndSplineSet
Validated: 1
EndChar

StartChar: uni2559
Encoding: 9561 9561 343
Width: 1451
GlyphClass: 2
Flags: W
LayerCount: 2
Fore
SplineSet
833 1864 m 1,0,-1
 978 1864 l 1,1,-1
 978 694 l 1,2,-1
 1461 694 l 1,3,-1
 1461 549 l 1,4,-1
 473 549 l 1,5,-1
 473 1864 l 1,6,-1
 618 1864 l 1,7,-1
 618 694 l 1,8,-1
 833 694 l 1,9,-1
 833 1864 l 1,0,-1
EndSplineSet
Validated: 1
EndChar

StartChar: uni255A
Encoding: 9562 9562 344
Width: 1451
GlyphClass: 2
Flags: W
LayerCount: 2
Fore
SplineSet
473 1864 m 1,0,-1
 618 1864 l 1,1,-1
 618 514 l 1,2,-1
 1461 514 l 1,3,-1
 1461 369 l 1,4,-1
 473 369 l 1,5,-1
 473 1864 l 1,0,-1
833 1864 m 1,6,-1
 978 1864 l 1,7,-1
 978 874 l 1,8,-1
 1461 874 l 1,9,-1
 1461 729 l 1,10,-1
 833 729 l 1,11,-1
 833 1864 l 1,6,-1
EndSplineSet
Validated: 1
EndChar

StartChar: uni255B
Encoding: 9563 9563 345
Width: 1451
GlyphClass: 2
Flags: W
LayerCount: 2
Fore
SplineSet
-10 369 m 1,0,-1
 -10 514 l 1,1,-1
 653 514 l 1,2,-1
 653 729 l 1,3,-1
 -10 729 l 1,4,-1
 -10 874 l 1,5,-1
 653 874 l 1,6,-1
 653 1864 l 1,7,-1
 798 1864 l 1,8,-1
 798 369 l 1,9,-1
 -10 369 l 1,0,-1
EndSplineSet
Validated: 1
EndChar

StartChar: uni255C
Encoding: 9564 9564 346
Width: 1451
GlyphClass: 2
Flags: W
LayerCount: 2
Fore
SplineSet
978 549 m 1,0,-1
 -10 549 l 1,1,-1
 -10 694 l 1,2,-1
 473 694 l 1,3,-1
 473 1864 l 1,4,-1
 618 1864 l 1,5,-1
 618 694 l 1,6,-1
 833 694 l 1,7,-1
 833 1864 l 1,8,-1
 978 1864 l 1,9,-1
 978 549 l 1,0,-1
EndSplineSet
Validated: 1
EndChar

StartChar: uni255D
Encoding: 9565 9565 347
Width: 1451
GlyphClass: 2
Flags: W
LayerCount: 2
Fore
SplineSet
978 369 m 1,0,-1
 -10 369 l 1,1,-1
 -10 514 l 1,2,-1
 833 514 l 1,3,-1
 833 1864 l 1,4,-1
 978 1864 l 1,5,-1
 978 369 l 1,0,-1
473 1864 m 1,6,-1
 618 1864 l 1,7,-1
 618 729 l 1,8,-1
 -10 729 l 1,9,-1
 -10 874 l 1,10,-1
 473 874 l 1,11,-1
 473 1864 l 1,6,-1
EndSplineSet
Validated: 1
EndChar

StartChar: uni255E
Encoding: 9566 9566 348
Width: 1451
GlyphClass: 2
Flags: W
LayerCount: 2
Fore
SplineSet
653 1864 m 1,0,-1
 798 1864 l 1,1,-1
 798 874 l 1,2,-1
 1461 874 l 1,3,-1
 1461 729 l 1,4,-1
 798 729 l 1,5,-1
 798 514 l 1,6,-1
 1461 514 l 1,7,-1
 1461 369 l 1,8,-1
 798 369 l 1,9,-1
 798 -621 l 1,10,-1
 653 -621 l 1,11,-1
 653 1864 l 1,0,-1
EndSplineSet
Validated: 1
EndChar

StartChar: uni255F
Encoding: 9567 9567 349
Width: 1451
GlyphClass: 2
Flags: W
LayerCount: 2
Fore
SplineSet
833 1864 m 1,0,-1
 978 1864 l 1,1,-1
 978 694 l 1,2,-1
 1461 694 l 1,3,-1
 1461 549 l 1,4,-1
 978 549 l 1,5,-1
 978 -621 l 1,6,-1
 833 -621 l 1,7,-1
 833 1864 l 1,0,-1
473 1864 m 1,8,-1
 618 1864 l 1,9,-1
 618 -621 l 1,10,-1
 473 -621 l 1,11,-1
 473 1864 l 1,8,-1
EndSplineSet
Validated: 1
EndChar

StartChar: uni2560
Encoding: 9568 9568 350
Width: 1451
GlyphClass: 2
Flags: W
LayerCount: 2
Fore
SplineSet
618 -621 m 1,0,-1
 473 -621 l 1,1,-1
 473 1864 l 1,2,-1
 618 1864 l 1,3,-1
 618 -621 l 1,0,-1
833 514 m 1,4,-1
 1461 514 l 1,5,-1
 1461 369 l 1,6,-1
 978 369 l 1,7,-1
 978 -621 l 1,8,-1
 833 -621 l 1,9,-1
 833 514 l 1,4,-1
833 1864 m 1,10,-1
 978 1864 l 1,11,-1
 978 874 l 1,12,-1
 1461 874 l 1,13,-1
 1461 729 l 1,14,-1
 833 729 l 1,15,-1
 833 1864 l 1,10,-1
EndSplineSet
Validated: 1
EndChar

StartChar: uni2561
Encoding: 9569 9569 351
Width: 1451
GlyphClass: 2
Flags: W
LayerCount: 2
Fore
SplineSet
-10 369 m 1,0,-1
 -10 514 l 1,1,-1
 653 514 l 1,2,-1
 653 729 l 1,3,-1
 -10 729 l 1,4,-1
 -10 874 l 1,5,-1
 653 874 l 1,6,-1
 653 1864 l 1,7,-1
 798 1864 l 1,8,-1
 798 -621 l 1,9,-1
 653 -621 l 1,10,-1
 653 369 l 1,11,-1
 -10 369 l 1,0,-1
EndSplineSet
Validated: 1
EndChar

StartChar: uni2562
Encoding: 9570 9570 352
Width: 1451
GlyphClass: 2
Flags: W
LayerCount: 2
Fore
SplineSet
-10 549 m 1,0,-1
 -10 694 l 1,1,-1
 473 694 l 1,2,-1
 473 1864 l 1,3,-1
 618 1864 l 1,4,-1
 618 -621 l 1,5,-1
 473 -621 l 1,6,-1
 473 549 l 1,7,-1
 -10 549 l 1,0,-1
833 1864 m 1,8,-1
 978 1864 l 1,9,-1
 978 -621 l 1,10,-1
 833 -621 l 1,11,-1
 833 1864 l 1,8,-1
EndSplineSet
Validated: 1
EndChar

StartChar: uni2563
Encoding: 9571 9571 353
Width: 1451
GlyphClass: 2
Flags: W
LayerCount: 2
Fore
SplineSet
833 1864 m 1,0,-1
 978 1864 l 1,1,-1
 978 -621 l 1,2,-1
 833 -621 l 1,3,-1
 833 1864 l 1,0,-1
473 1864 m 1,4,-1
 618 1864 l 1,5,-1
 618 729 l 1,6,-1
 -10 729 l 1,7,-1
 -10 874 l 1,8,-1
 473 874 l 1,9,-1
 473 1864 l 1,4,-1
618 -621 m 1,10,-1
 473 -621 l 1,11,-1
 473 369 l 1,12,-1
 -10 369 l 1,13,-1
 -10 514 l 1,14,-1
 618 514 l 1,15,-1
 618 -621 l 1,10,-1
EndSplineSet
Validated: 1
EndChar

StartChar: uni2564
Encoding: 9572 9572 354
Width: 1451
GlyphClass: 2
Flags: W
LayerCount: 2
Fore
SplineSet
-10 369 m 1,0,-1
 -10 514 l 1,1,-1
 1461 514 l 1,2,-1
 1461 369 l 1,3,-1
 798 369 l 1,4,-1
 798 -621 l 1,5,-1
 653 -621 l 1,6,-1
 653 369 l 1,7,-1
 -10 369 l 1,0,-1
-10 729 m 1,8,-1
 -10 874 l 1,9,-1
 1461 874 l 1,10,-1
 1461 729 l 1,11,-1
 -10 729 l 1,8,-1
EndSplineSet
Validated: 1
EndChar

StartChar: uni2565
Encoding: 9573 9573 355
Width: 1451
GlyphClass: 2
Flags: W
LayerCount: 2
Fore
SplineSet
-10 549 m 1,0,-1
 -10 694 l 1,1,-1
 1461 694 l 1,2,-1
 1461 549 l 1,3,-1
 978 549 l 1,4,-1
 978 -621 l 1,5,-1
 833 -621 l 1,6,-1
 833 549 l 1,7,-1
 618 549 l 1,8,-1
 618 -621 l 1,9,-1
 473 -621 l 1,10,-1
 473 549 l 1,11,-1
 -10 549 l 1,0,-1
EndSplineSet
Validated: 1
EndChar

StartChar: uni2566
Encoding: 9574 9574 356
Width: 1451
GlyphClass: 2
Flags: W
LayerCount: 2
Fore
SplineSet
618 -621 m 1,0,-1
 473 -621 l 1,1,-1
 473 369 l 1,2,-1
 -10 369 l 1,3,-1
 -10 514 l 1,4,-1
 618 514 l 1,5,-1
 618 -621 l 1,0,-1
833 514 m 1,6,-1
 1461 514 l 1,7,-1
 1461 369 l 1,8,-1
 978 369 l 1,9,-1
 978 -621 l 1,10,-1
 833 -621 l 1,11,-1
 833 514 l 1,6,-1
1461 874 m 1,12,-1
 1461 729 l 1,13,-1
 -10 729 l 1,14,-1
 -10 874 l 1,15,-1
 1461 874 l 1,12,-1
EndSplineSet
Validated: 1
EndChar

StartChar: uni2567
Encoding: 9575 9575 357
Width: 1451
GlyphClass: 2
Flags: W
LayerCount: 2
Fore
SplineSet
-10 729 m 1,0,-1
 -10 874 l 1,1,-1
 653 874 l 1,2,-1
 653 1864 l 1,3,-1
 798 1864 l 1,4,-1
 798 874 l 1,5,-1
 1461 874 l 1,6,-1
 1461 729 l 1,7,-1
 -10 729 l 1,0,-1
-10 369 m 1,8,-1
 -10 514 l 1,9,-1
 1461 514 l 1,10,-1
 1461 369 l 1,11,-1
 -10 369 l 1,8,-1
EndSplineSet
Validated: 1
EndChar

StartChar: uni2568
Encoding: 9576 9576 358
Width: 1451
GlyphClass: 2
Flags: W
LayerCount: 2
Fore
SplineSet
-10 549 m 1,0,-1
 -10 694 l 1,1,-1
 473 694 l 1,2,-1
 473 1864 l 1,3,-1
 618 1864 l 1,4,-1
 618 694 l 1,5,-1
 833 694 l 1,6,-1
 833 1864 l 1,7,-1
 978 1864 l 1,8,-1
 978 694 l 1,9,-1
 1461 694 l 1,10,-1
 1461 549 l 1,11,-1
 -10 549 l 1,0,-1
EndSplineSet
Validated: 1
EndChar

StartChar: uni2569
Encoding: 9577 9577 359
Width: 1451
GlyphClass: 2
Flags: W
LayerCount: 2
Fore
SplineSet
833 1864 m 1,0,-1
 978 1864 l 1,1,-1
 978 874 l 1,2,-1
 1461 874 l 1,3,-1
 1461 729 l 1,4,-1
 833 729 l 1,5,-1
 833 1864 l 1,0,-1
473 1864 m 1,6,-1
 618 1864 l 1,7,-1
 618 729 l 1,8,-1
 -10 729 l 1,9,-1
 -10 874 l 1,10,-1
 473 874 l 1,11,-1
 473 1864 l 1,6,-1
-10 369 m 1,12,-1
 -10 514 l 1,13,-1
 1461 514 l 1,14,-1
 1461 369 l 1,15,-1
 -10 369 l 1,12,-1
EndSplineSet
Validated: 1
EndChar

StartChar: uni256A
Encoding: 9578 9578 360
Width: 1451
GlyphClass: 2
Flags: W
LayerCount: 2
Fore
SplineSet
-10 369 m 1,0,-1
 -10 514 l 1,1,-1
 653 514 l 1,2,-1
 653 729 l 1,3,-1
 -10 729 l 1,4,-1
 -10 874 l 1,5,-1
 653 874 l 1,6,-1
 653 1864 l 1,7,-1
 798 1864 l 1,8,-1
 798 874 l 1,9,-1
 1461 874 l 1,10,-1
 1461 729 l 1,11,-1
 798 729 l 1,12,-1
 798 514 l 1,13,-1
 1461 514 l 1,14,-1
 1461 369 l 1,15,-1
 798 369 l 1,16,-1
 798 -621 l 1,17,-1
 653 -621 l 1,18,-1
 653 369 l 1,19,-1
 -10 369 l 1,0,-1
EndSplineSet
Validated: 1
EndChar

StartChar: uni256B
Encoding: 9579 9579 361
Width: 1451
GlyphClass: 2
Flags: W
LayerCount: 2
Fore
SplineSet
833 1864 m 1,0,-1
 978 1864 l 1,1,-1
 978 694 l 1,2,-1
 1461 694 l 1,3,-1
 1461 549 l 1,4,-1
 978 549 l 1,5,-1
 978 -621 l 1,6,-1
 833 -621 l 1,7,-1
 833 549 l 1,8,-1
 618 549 l 1,9,-1
 618 -621 l 1,10,-1
 473 -621 l 1,11,-1
 473 549 l 1,12,-1
 -10 549 l 1,13,-1
 -10 694 l 1,14,-1
 473 694 l 1,15,-1
 473 1864 l 1,16,-1
 618 1864 l 1,17,-1
 618 694 l 1,18,-1
 833 694 l 1,19,-1
 833 1864 l 1,0,-1
EndSplineSet
Validated: 1
EndChar

StartChar: uni256C
Encoding: 9580 9580 362
Width: 1451
GlyphClass: 2
Flags: W
LayerCount: 2
Fore
SplineSet
833 1864 m 1,0,-1
 978 1864 l 1,1,-1
 978 874 l 1,2,-1
 1461 874 l 1,3,-1
 1461 729 l 1,4,-1
 833 729 l 1,5,-1
 833 1864 l 1,0,-1
618 -621 m 1,6,-1
 473 -621 l 1,7,-1
 473 369 l 1,8,-1
 -10 369 l 1,9,-1
 -10 514 l 1,10,-1
 618 514 l 1,11,-1
 618 -621 l 1,6,-1
833 514 m 1,12,-1
 1461 514 l 1,13,-1
 1461 369 l 1,14,-1
 978 369 l 1,15,-1
 978 -621 l 1,16,-1
 833 -621 l 1,17,-1
 833 514 l 1,12,-1
473 1864 m 1,18,-1
 618 1864 l 1,19,-1
 618 729 l 1,20,-1
 -10 729 l 1,21,-1
 -10 874 l 1,22,-1
 473 874 l 1,23,-1
 473 1864 l 1,18,-1
EndSplineSet
Validated: 1
EndChar

StartChar: upblock
Encoding: 9600 9600 363
Width: 1451
GlyphClass: 2
Flags: W
LayerCount: 2
Fore
SplineSet
1451 621 m 1,0,-1
 0 621 l 1,1,-1
 0 1864 l 1,2,-1
 1451 1864 l 1,3,-1
 1451 621 l 1,0,-1
EndSplineSet
Validated: 1
EndChar

StartChar: dnblock
Encoding: 9604 9604 364
Width: 1451
GlyphClass: 2
Flags: W
LayerCount: 2
Fore
SplineSet
1451 -621 m 1,0,-1
 0 -621 l 1,1,-1
 0 621 l 1,2,-1
 1451 621 l 1,3,-1
 1451 -621 l 1,0,-1
EndSplineSet
Validated: 1
EndChar

StartChar: block
Encoding: 9608 9608 365
Width: 1451
GlyphClass: 2
Flags: W
LayerCount: 2
Fore
SplineSet
1451 -621 m 1,0,-1
 0 -621 l 1,1,-1
 0 1864 l 1,2,-1
 1451 1864 l 1,3,-1
 1451 -621 l 1,0,-1
EndSplineSet
Validated: 1
EndChar

StartChar: lfblock
Encoding: 9612 9612 366
Width: 1451
GlyphClass: 2
Flags: W
LayerCount: 2
Fore
SplineSet
726 -621 m 1,0,-1
 0 -621 l 1,1,-1
 0 1864 l 1,2,-1
 726 1864 l 1,3,-1
 726 -621 l 1,0,-1
EndSplineSet
Validated: 1
EndChar

StartChar: rtblock
Encoding: 9616 9616 367
Width: 1451
GlyphClass: 2
Flags: W
LayerCount: 2
Fore
SplineSet
1451 -621 m 1,0,-1
 725 -621 l 1,1,-1
 725 1864 l 1,2,-1
 1451 1864 l 1,3,-1
 1451 -621 l 1,0,-1
EndSplineSet
Validated: 1
EndChar

StartChar: ltshade
Encoding: 9617 9617 368
Width: 1451
GlyphClass: 2
Flags: W
LayerCount: 2
Fore
SplineSet
103 1314 m 1,0,-1
 207 1314 l 1,1,-1
 207 1216 l 1,2,-1
 103 1216 l 1,3,-1
 103 1314 l 1,0,-1
517 1314 m 1,4,-1
 621 1314 l 1,5,-1
 621 1216 l 1,6,-1
 517 1216 l 1,7,-1
 517 1314 l 1,4,-1
933 1314 m 1,8,-1
 1036 1314 l 1,9,-1
 1036 1216 l 1,10,-1
 933 1216 l 1,11,-1
 933 1314 l 1,8,-1
310 1119 m 1,12,-1
 414 1119 l 1,13,-1
 414 1023 l 1,14,-1
 310 1023 l 1,15,-1
 310 1119 l 1,12,-1
725 1119 m 1,16,-1
 829 1119 l 1,17,-1
 829 1023 l 1,18,-1
 725 1023 l 1,19,-1
 725 1119 l 1,16,-1
1140 1119 m 1,20,-1
 1244 1119 l 1,21,-1
 1244 1023 l 1,22,-1
 1140 1023 l 1,23,-1
 1140 1119 l 1,20,-1
933 927 m 1,24,-1
 1036 927 l 1,25,-1
 1036 831 l 1,26,-1
 933 831 l 1,27,-1
 933 927 l 1,24,-1
517 927 m 1,28,-1
 621 927 l 1,29,-1
 621 831 l 1,30,-1
 517 831 l 1,31,-1
 517 927 l 1,28,-1
103 927 m 1,32,-1
 207 927 l 1,33,-1
 207 831 l 1,34,-1
 103 831 l 1,35,-1
 103 927 l 1,32,-1
1140 732 m 1,36,-1
 1244 732 l 1,37,-1
 1244 636 l 1,38,-1
 1140 636 l 1,39,-1
 1140 732 l 1,36,-1
725 732 m 1,40,-1
 829 732 l 1,41,-1
 829 636 l 1,42,-1
 725 636 l 1,43,-1
 725 732 l 1,40,-1
310 732 m 1,44,-1
 414 732 l 1,45,-1
 414 636 l 1,46,-1
 310 636 l 1,47,-1
 310 732 l 1,44,-1
103 540 m 1,48,-1
 207 540 l 1,49,-1
 207 444 l 1,50,-1
 103 444 l 1,51,-1
 103 540 l 1,48,-1
517 540 m 1,52,-1
 621 540 l 1,53,-1
 621 444 l 1,54,-1
 517 444 l 1,55,-1
 517 540 l 1,52,-1
933 540 m 1,56,-1
 1036 540 l 1,57,-1
 1036 444 l 1,58,-1
 933 444 l 1,59,-1
 933 540 l 1,56,-1
1140 345 m 1,60,-1
 1244 345 l 1,61,-1
 1244 249 l 1,62,-1
 1140 249 l 1,63,-1
 1140 345 l 1,60,-1
725 345 m 1,64,-1
 829 345 l 1,65,-1
 829 249 l 1,66,-1
 725 249 l 1,67,-1
 725 345 l 1,64,-1
310 345 m 1,68,-1
 414 345 l 1,69,-1
 414 249 l 1,70,-1
 310 249 l 1,71,-1
 310 345 l 1,68,-1
103 153 m 1,72,-1
 207 153 l 1,73,-1
 207 56 l 1,74,-1
 103 56 l 1,75,-1
 103 153 l 1,72,-1
517 153 m 1,76,-1
 621 153 l 1,77,-1
 621 56 l 1,78,-1
 517 56 l 1,79,-1
 517 153 l 1,76,-1
933 153 m 1,80,-1
 1036 153 l 1,81,-1
 1036 56 l 1,82,-1
 933 56 l 1,83,-1
 933 153 l 1,80,-1
310 -42 m 1,84,-1
 414 -42 l 1,85,-1
 414 -136 l 1,86,-1
 310 -136 l 1,87,-1
 310 -42 l 1,84,-1
725 -42 m 1,88,-1
 829 -42 l 1,89,-1
 829 -136 l 1,90,-1
 725 -136 l 1,91,-1
 725 -42 l 1,88,-1
1140 -42 m 1,92,-1
 1244 -42 l 1,93,-1
 1244 -136 l 1,94,-1
 1140 -136 l 1,95,-1
 1140 -42 l 1,92,-1
933 -234 m 1,96,-1
 1036 -234 l 1,97,-1
 1036 -331 l 1,98,-1
 933 -331 l 1,99,-1
 933 -234 l 1,96,-1
517 -234 m 1,100,-1
 621 -234 l 1,101,-1
 621 -331 l 1,102,-1
 517 -331 l 1,103,-1
 517 -234 l 1,100,-1
103 -234 m 1,104,-1
 207 -234 l 1,105,-1
 207 -331 l 1,106,-1
 103 -331 l 1,107,-1
 103 -234 l 1,104,-1
310 -427 m 1,108,-1
 414 -427 l 1,109,-1
 414 -523 l 1,110,-1
 310 -523 l 1,111,-1
 310 -427 l 1,108,-1
725 -427 m 1,112,-1
 829 -427 l 1,113,-1
 829 -523 l 1,114,-1
 725 -523 l 1,115,-1
 725 -427 l 1,112,-1
1140 -427 m 1,116,-1
 1244 -427 l 1,117,-1
 1244 -523 l 1,118,-1
 1140 -523 l 1,119,-1
 1140 -427 l 1,116,-1
310 1506 m 1,120,-1
 414 1506 l 1,121,-1
 414 1408 l 1,122,-1
 310 1408 l 1,123,-1
 310 1506 l 1,120,-1
725 1506 m 1,124,-1
 829 1506 l 1,125,-1
 829 1408 l 1,126,-1
 725 1408 l 1,127,-1
 725 1506 l 1,124,-1
1140 1506 m 1,128,-1
 1244 1506 l 1,129,-1
 1244 1408 l 1,130,-1
 1140 1408 l 1,131,-1
 1140 1506 l 1,128,-1
103 1699 m 1,132,-1
 207 1699 l 1,133,-1
 207 1603 l 1,134,-1
 103 1603 l 1,135,-1
 103 1699 l 1,132,-1
517 1699 m 1,136,-1
 621 1699 l 1,137,-1
 621 1603 l 1,138,-1
 517 1603 l 1,139,-1
 517 1699 l 1,136,-1
933 1699 m 1,140,-1
 1036 1699 l 1,141,-1
 1036 1603 l 1,142,-1
 933 1603 l 1,143,-1
 933 1699 l 1,140,-1
1347 1314 m 1,144,-1
 1451 1314 l 1,145,-1
 1451 1216 l 1,146,-1
 1347 1216 l 1,147,-1
 1347 1314 l 1,144,-1
1347 927 m 1,148,-1
 1451 927 l 1,149,-1
 1451 831 l 1,150,-1
 1347 831 l 1,151,-1
 1347 927 l 1,148,-1
1347 540 m 1,152,-1
 1451 540 l 1,153,-1
 1451 444 l 1,154,-1
 1347 444 l 1,155,-1
 1347 540 l 1,152,-1
1347 153 m 1,156,-1
 1451 153 l 1,157,-1
 1451 56 l 1,158,-1
 1347 56 l 1,159,-1
 1347 153 l 1,156,-1
1347 -234 m 1,160,-1
 1451 -234 l 1,161,-1
 1451 -331 l 1,162,-1
 1347 -331 l 1,163,-1
 1347 -234 l 1,160,-1
1347 1699 m 1,164,-1
 1451 1699 l 1,165,-1
 1451 1603 l 1,166,-1
 1347 1603 l 1,167,-1
 1347 1699 l 1,164,-1
EndSplineSet
Validated: 1
EndChar

StartChar: shade
Encoding: 9618 9618 369
Width: 1451
GlyphClass: 2
Flags: W
LayerCount: 2
Fore
SplineSet
103 1314 m 1,0,-1
 207 1314 l 1,1,-1
 207 1216 l 1,2,-1
 103 1216 l 1,3,-1
 103 1314 l 1,0,-1
310 1314 m 1,4,-1
 414 1314 l 1,5,-1
 414 1216 l 1,6,-1
 310 1216 l 1,7,-1
 310 1314 l 1,4,-1
517 1314 m 1,8,-1
 621 1314 l 1,9,-1
 621 1216 l 1,10,-1
 517 1216 l 1,11,-1
 517 1314 l 1,8,-1
725 1314 m 1,12,-1
 829 1314 l 1,13,-1
 829 1216 l 1,14,-1
 725 1216 l 1,15,-1
 725 1314 l 1,12,-1
933 1314 m 1,16,-1
 1037 1314 l 1,17,-1
 1037 1216 l 1,18,-1
 933 1216 l 1,19,-1
 933 1314 l 1,16,-1
1140 1314 m 1,20,-1
 1244 1314 l 1,21,-1
 1244 1216 l 1,22,-1
 1140 1216 l 1,23,-1
 1140 1314 l 1,20,-1
0 1119 m 1,24,-1
 103 1119 l 1,25,-1
 103 1023 l 1,26,-1
 0 1023 l 1,27,-1
 0 1119 l 1,24,-1
207 1119 m 1,28,-1
 310 1119 l 1,29,-1
 310 1023 l 1,30,-1
 207 1023 l 1,31,-1
 207 1119 l 1,28,-1
414 1119 m 1,32,-1
 517 1119 l 1,33,-1
 517 1023 l 1,34,-1
 414 1023 l 1,35,-1
 414 1119 l 1,32,-1
621 1119 m 1,36,-1
 725 1119 l 1,37,-1
 725 1023 l 1,38,-1
 621 1023 l 1,39,-1
 621 1119 l 1,36,-1
829 1119 m 1,40,-1
 933 1119 l 1,41,-1
 933 1023 l 1,42,-1
 829 1023 l 1,43,-1
 829 1119 l 1,40,-1
1037 1119 m 1,44,-1
 1140 1119 l 1,45,-1
 1140 1023 l 1,46,-1
 1037 1023 l 1,47,-1
 1037 1119 l 1,44,-1
103 927 m 1,48,-1
 207 927 l 1,49,-1
 207 831 l 1,50,-1
 103 831 l 1,51,-1
 103 927 l 1,48,-1
310 927 m 1,52,-1
 414 927 l 1,53,-1
 414 831 l 1,54,-1
 310 831 l 1,55,-1
 310 927 l 1,52,-1
517 927 m 1,56,-1
 621 927 l 1,57,-1
 621 831 l 1,58,-1
 517 831 l 1,59,-1
 517 927 l 1,56,-1
725 927 m 1,60,-1
 829 927 l 1,61,-1
 829 831 l 1,62,-1
 725 831 l 1,63,-1
 725 927 l 1,60,-1
933 927 m 1,64,-1
 1037 927 l 1,65,-1
 1037 831 l 1,66,-1
 933 831 l 1,67,-1
 933 927 l 1,64,-1
1140 927 m 1,68,-1
 1244 927 l 1,69,-1
 1244 831 l 1,70,-1
 1140 831 l 1,71,-1
 1140 927 l 1,68,-1
0 732 m 1,72,-1
 103 732 l 1,73,-1
 103 636 l 1,74,-1
 0 636 l 1,75,-1
 0 732 l 1,72,-1
207 732 m 1,76,-1
 310 732 l 1,77,-1
 310 636 l 1,78,-1
 207 636 l 1,79,-1
 207 732 l 1,76,-1
414 732 m 1,80,-1
 517 732 l 1,81,-1
 517 636 l 1,82,-1
 414 636 l 1,83,-1
 414 732 l 1,80,-1
621 732 m 1,84,-1
 725 732 l 1,85,-1
 725 636 l 1,86,-1
 621 636 l 1,87,-1
 621 732 l 1,84,-1
829 732 m 1,88,-1
 933 732 l 1,89,-1
 933 636 l 1,90,-1
 829 636 l 1,91,-1
 829 732 l 1,88,-1
1037 732 m 1,92,-1
 1140 732 l 1,93,-1
 1140 636 l 1,94,-1
 1037 636 l 1,95,-1
 1037 732 l 1,92,-1
103 540 m 1,96,-1
 207 540 l 1,97,-1
 207 444 l 1,98,-1
 103 444 l 1,99,-1
 103 540 l 1,96,-1
310 540 m 1,100,-1
 414 540 l 1,101,-1
 414 444 l 1,102,-1
 310 444 l 1,103,-1
 310 540 l 1,100,-1
517 540 m 1,104,-1
 621 540 l 1,105,-1
 621 444 l 1,106,-1
 517 444 l 1,107,-1
 517 540 l 1,104,-1
725 540 m 1,108,-1
 829 540 l 1,109,-1
 829 444 l 1,110,-1
 725 444 l 1,111,-1
 725 540 l 1,108,-1
933 540 m 1,112,-1
 1037 540 l 1,113,-1
 1037 444 l 1,114,-1
 933 444 l 1,115,-1
 933 540 l 1,112,-1
1140 540 m 1,116,-1
 1244 540 l 1,117,-1
 1244 444 l 1,118,-1
 1140 444 l 1,119,-1
 1140 540 l 1,116,-1
0 345 m 1,120,-1
 103 345 l 1,121,-1
 103 249 l 1,122,-1
 0 249 l 1,123,-1
 0 345 l 1,120,-1
414 345 m 1,124,-1
 517 345 l 1,125,-1
 517 249 l 1,126,-1
 414 249 l 1,127,-1
 414 345 l 1,124,-1
621 345 m 1,128,-1
 725 345 l 1,129,-1
 725 249 l 1,130,-1
 621 249 l 1,131,-1
 621 345 l 1,128,-1
829 345 m 1,132,-1
 933 345 l 1,133,-1
 933 249 l 1,134,-1
 829 249 l 1,135,-1
 829 345 l 1,132,-1
1037 345 m 1,136,-1
 1140 345 l 1,137,-1
 1140 249 l 1,138,-1
 1037 249 l 1,139,-1
 1037 345 l 1,136,-1
207 345 m 1,140,-1
 310 345 l 1,141,-1
 310 249 l 1,142,-1
 207 249 l 1,143,-1
 207 345 l 1,140,-1
1140 153 m 1,144,-1
 1244 153 l 1,145,-1
 1244 56 l 1,146,-1
 1140 56 l 1,147,-1
 1140 153 l 1,144,-1
933 153 m 1,148,-1
 1037 153 l 1,149,-1
 1037 56 l 1,150,-1
 933 56 l 1,151,-1
 933 153 l 1,148,-1
725 153 m 1,152,-1
 829 153 l 1,153,-1
 829 56 l 1,154,-1
 725 56 l 1,155,-1
 725 153 l 1,152,-1
517 153 m 1,156,-1
 621 153 l 1,157,-1
 621 56 l 1,158,-1
 517 56 l 1,159,-1
 517 153 l 1,156,-1
310 153 m 1,160,-1
 414 153 l 1,161,-1
 414 56 l 1,162,-1
 310 56 l 1,163,-1
 310 153 l 1,160,-1
103 153 m 1,164,-1
 207 153 l 1,165,-1
 207 56 l 1,166,-1
 103 56 l 1,167,-1
 103 153 l 1,164,-1
0 -42 m 1,168,-1
 103 -42 l 1,169,-1
 103 -136 l 1,170,-1
 0 -136 l 1,171,-1
 0 -42 l 1,168,-1
207 -42 m 1,172,-1
 310 -42 l 1,173,-1
 310 -136 l 1,174,-1
 207 -136 l 1,175,-1
 207 -42 l 1,172,-1
414 -42 m 1,176,-1
 517 -42 l 1,177,-1
 517 -136 l 1,178,-1
 414 -136 l 1,179,-1
 414 -42 l 1,176,-1
621 -42 m 1,180,-1
 725 -42 l 1,181,-1
 725 -136 l 1,182,-1
 621 -136 l 1,183,-1
 621 -42 l 1,180,-1
829 -42 m 1,184,-1
 933 -42 l 1,185,-1
 933 -136 l 1,186,-1
 829 -136 l 1,187,-1
 829 -42 l 1,184,-1
1037 -42 m 1,188,-1
 1140 -42 l 1,189,-1
 1140 -136 l 1,190,-1
 1037 -136 l 1,191,-1
 1037 -42 l 1,188,-1
1140 -234 m 1,192,-1
 1244 -234 l 1,193,-1
 1244 -331 l 1,194,-1
 1140 -331 l 1,195,-1
 1140 -234 l 1,192,-1
933 -234 m 1,196,-1
 1037 -234 l 1,197,-1
 1037 -331 l 1,198,-1
 933 -331 l 1,199,-1
 933 -234 l 1,196,-1
725 -234 m 1,200,-1
 829 -234 l 1,201,-1
 829 -331 l 1,202,-1
 725 -331 l 1,203,-1
 725 -234 l 1,200,-1
517 -234 m 1,204,-1
 621 -234 l 1,205,-1
 621 -331 l 1,206,-1
 517 -331 l 1,207,-1
 517 -234 l 1,204,-1
310 -234 m 1,208,-1
 414 -234 l 1,209,-1
 414 -331 l 1,210,-1
 310 -331 l 1,211,-1
 310 -234 l 1,208,-1
103 -234 m 1,212,-1
 207 -234 l 1,213,-1
 207 -331 l 1,214,-1
 103 -331 l 1,215,-1
 103 -234 l 1,212,-1
0 -427 m 1,216,-1
 103 -427 l 1,217,-1
 103 -523 l 1,218,-1
 0 -523 l 1,219,-1
 0 -427 l 1,216,-1
207 -427 m 1,220,-1
 310 -427 l 1,221,-1
 310 -523 l 1,222,-1
 207 -523 l 1,223,-1
 207 -427 l 1,220,-1
414 -427 m 1,224,-1
 517 -427 l 1,225,-1
 517 -523 l 1,226,-1
 414 -523 l 1,227,-1
 414 -427 l 1,224,-1
621 -427 m 1,228,-1
 725 -427 l 1,229,-1
 725 -523 l 1,230,-1
 621 -523 l 1,231,-1
 621 -427 l 1,228,-1
829 -427 m 1,232,-1
 933 -427 l 1,233,-1
 933 -523 l 1,234,-1
 829 -523 l 1,235,-1
 829 -427 l 1,232,-1
1037 -427 m 1,236,-1
 1140 -427 l 1,237,-1
 1140 -523 l 1,238,-1
 1037 -523 l 1,239,-1
 1037 -427 l 1,236,-1
0 1506 m 1,240,-1
 103 1506 l 1,241,-1
 103 1408 l 1,242,-1
 0 1408 l 1,243,-1
 0 1506 l 1,240,-1
207 1506 m 1,244,-1
 310 1506 l 1,245,-1
 310 1408 l 1,246,-1
 207 1408 l 1,247,-1
 207 1506 l 1,244,-1
414 1506 m 1,248,-1
 517 1506 l 1,249,-1
 517 1408 l 1,250,-1
 414 1408 l 1,251,-1
 414 1506 l 1,248,-1
621 1506 m 1,252,-1
 725 1506 l 1,253,-1
 725 1408 l 1,254,-1
 621 1408 l 1,255,-1
 621 1506 l 1,252,-1
829 1506 m 1,256,-1
 933 1506 l 1,257,-1
 933 1408 l 1,258,-1
 829 1408 l 1,259,-1
 829 1506 l 1,256,-1
1037 1506 m 1,260,-1
 1140 1506 l 1,261,-1
 1140 1408 l 1,262,-1
 1037 1408 l 1,263,-1
 1037 1506 l 1,260,-1
103 1699 m 1,264,-1
 207 1699 l 1,265,-1
 207 1603 l 1,266,-1
 103 1603 l 1,267,-1
 103 1699 l 1,264,-1
310 1699 m 1,268,-1
 414 1699 l 1,269,-1
 414 1603 l 1,270,-1
 310 1603 l 1,271,-1
 310 1699 l 1,268,-1
517 1699 m 1,272,-1
 621 1699 l 1,273,-1
 621 1603 l 1,274,-1
 517 1603 l 1,275,-1
 517 1699 l 1,272,-1
725 1699 m 1,276,-1
 829 1699 l 1,277,-1
 829 1603 l 1,278,-1
 725 1603 l 1,279,-1
 725 1699 l 1,276,-1
933 1699 m 1,280,-1
 1037 1699 l 1,281,-1
 1037 1603 l 1,282,-1
 933 1603 l 1,283,-1
 933 1699 l 1,280,-1
1140 1699 m 1,284,-1
 1244 1699 l 1,285,-1
 1244 1603 l 1,286,-1
 1140 1603 l 1,287,-1
 1140 1699 l 1,284,-1
1347 1314 m 1,288,-1
 1451 1314 l 1,289,-1
 1451 1216 l 1,290,-1
 1347 1216 l 1,291,-1
 1347 1314 l 1,288,-1
1244 1119 m 1,292,-1
 1347 1119 l 1,293,-1
 1347 1023 l 1,294,-1
 1244 1023 l 1,295,-1
 1244 1119 l 1,292,-1
1347 927 m 1,296,-1
 1451 927 l 1,297,-1
 1451 831 l 1,298,-1
 1347 831 l 1,299,-1
 1347 927 l 1,296,-1
1244 732 m 1,300,-1
 1347 732 l 1,301,-1
 1347 636 l 1,302,-1
 1244 636 l 1,303,-1
 1244 732 l 1,300,-1
1347 540 m 1,304,-1
 1451 540 l 1,305,-1
 1451 444 l 1,306,-1
 1347 444 l 1,307,-1
 1347 540 l 1,304,-1
1244 345 m 1,308,-1
 1347 345 l 1,309,-1
 1347 249 l 1,310,-1
 1244 249 l 1,311,-1
 1244 345 l 1,308,-1
1347 153 m 1,312,-1
 1451 153 l 1,313,-1
 1451 56 l 1,314,-1
 1347 56 l 1,315,-1
 1347 153 l 1,312,-1
1244 -42 m 1,316,-1
 1347 -42 l 1,317,-1
 1347 -136 l 1,318,-1
 1244 -136 l 1,319,-1
 1244 -42 l 1,316,-1
1347 -234 m 1,320,-1
 1451 -234 l 1,321,-1
 1451 -331 l 1,322,-1
 1347 -331 l 1,323,-1
 1347 -234 l 1,320,-1
1244 -427 m 1,324,-1
 1347 -427 l 1,325,-1
 1347 -523 l 1,326,-1
 1244 -523 l 1,327,-1
 1244 -427 l 1,324,-1
1244 1506 m 1,328,-1
 1347 1506 l 1,329,-1
 1347 1408 l 1,330,-1
 1244 1408 l 1,331,-1
 1244 1506 l 1,328,-1
1347 1699 m 1,332,-1
 1451 1699 l 1,333,-1
 1451 1603 l 1,334,-1
 1347 1603 l 1,335,-1
 1347 1699 l 1,332,-1
EndSplineSet
Validated: 1
EndChar

StartChar: dkshade
Encoding: 9619 9619 370
Width: 1493
GlyphClass: 2
Flags: W
LayerCount: 2
Fore
SplineSet
1493 -621 m 1,0,-1
 0 -621 l 1,1,-1
 0 -331 l 1,2,-1
 106 -331 l 1,3,-1
 106 -234 l 1,4,-1
 0 -234 l 1,5,-1
 0 56 l 1,6,-1
 106 56 l 1,7,-1
 106 153 l 1,8,-1
 0 153 l 1,9,-1
 0 444 l 1,10,-1
 106 444 l 1,11,-1
 106 540 l 1,12,-1
 0 540 l 1,13,-1
 0 829 l 1,14,-1
 106 829 l 1,15,-1
 106 927 l 1,16,-1
 0 927 l 1,17,-1
 0 1216 l 1,18,-1
 106 1216 l 1,19,-1
 106 1314 l 1,20,-1
 0 1314 l 1,21,-1
 0 1603 l 1,22,-1
 106 1603 l 1,23,-1
 106 1699 l 1,24,-1
 213 1699 l 1,25,-1
 213 1603 l 1,26,-1
 319 1603 l 1,27,-1
 319 1699 l 1,28,-1
 426 1699 l 1,29,-1
 426 1603 l 1,30,-1
 532 1603 l 1,31,-1
 532 1699 l 1,32,-1
 639 1699 l 1,33,-1
 639 1603 l 1,34,-1
 746 1603 l 1,35,-1
 746 1699 l 1,36,-1
 853 1699 l 1,37,-1
 853 1603 l 1,38,-1
 960 1603 l 1,39,-1
 960 1699 l 1,40,-1
 1067 1699 l 1,41,-1
 1067 1603 l 1,42,-1
 1173 1603 l 1,43,-1
 1173 1699 l 1,44,-1
 1280 1699 l 1,45,-1
 1280 1603 l 1,46,-1
 1386 1603 l 1,47,-1
 1386 1699 l 1,48,-1
 1493 1699 l 1,49,-1
 1493 1506 l 1,50,-1
 1386 1506 l 1,51,-1
 1386 1408 l 1,52,-1
 1493 1408 l 1,53,-1
 1493 1119 l 1,54,-1
 1386 1119 l 1,55,-1
 1386 1023 l 1,56,-1
 1493 1023 l 1,57,-1
 1493 732 l 1,58,-1
 1386 732 l 1,59,-1
 1386 636 l 1,60,-1
 1493 636 l 1,61,-1
 1493 345 l 1,62,-1
 1386 345 l 1,63,-1
 1386 249 l 1,64,-1
 1493 249 l 1,65,-1
 1493 -42 l 1,66,-1
 1386 -42 l 1,67,-1
 1386 -136 l 1,68,-1
 1493 -136 l 1,69,-1
 1493 -427 l 1,70,-1
 1386 -427 l 1,71,-1
 1386 -523 l 1,72,-1
 1493 -523 l 1,73,-1
 1493 -621 l 1,0,-1
106 1119 m 1,74,-1
 106 1023 l 1,75,-1
 213 1023 l 1,76,-1
 213 1119 l 1,77,-1
 106 1119 l 1,74,-1
319 1119 m 1,78,-1
 319 1023 l 1,79,-1
 426 1023 l 1,80,-1
 426 1119 l 1,81,-1
 319 1119 l 1,78,-1
532 1119 m 1,82,-1
 532 1023 l 1,83,-1
 639 1023 l 1,84,-1
 639 1119 l 1,85,-1
 532 1119 l 1,82,-1
746 1119 m 1,86,-1
 746 1023 l 1,87,-1
 853 1023 l 1,88,-1
 853 1119 l 1,89,-1
 746 1119 l 1,86,-1
960 927 m 1,90,-1
 853 927 l 1,91,-1
 853 829 l 1,92,-1
 960 829 l 1,93,-1
 960 927 l 1,90,-1
746 927 m 1,94,-1
 639 927 l 1,95,-1
 639 829 l 1,96,-1
 746 829 l 1,97,-1
 746 927 l 1,94,-1
532 927 m 1,98,-1
 426 927 l 1,99,-1
 426 829 l 1,100,-1
 532 829 l 1,101,-1
 532 927 l 1,98,-1
319 927 m 1,102,-1
 213 927 l 1,103,-1
 213 829 l 1,104,-1
 319 829 l 1,105,-1
 319 927 l 1,102,-1
106 732 m 1,106,-1
 106 636 l 1,107,-1
 213 636 l 1,108,-1
 213 732 l 1,109,-1
 106 732 l 1,106,-1
319 732 m 1,110,-1
 319 636 l 1,111,-1
 426 636 l 1,112,-1
 426 732 l 1,113,-1
 319 732 l 1,110,-1
532 732 m 1,114,-1
 532 636 l 1,115,-1
 639 636 l 1,116,-1
 639 732 l 1,117,-1
 532 732 l 1,114,-1
746 732 m 1,118,-1
 746 636 l 1,119,-1
 853 636 l 1,120,-1
 853 732 l 1,121,-1
 746 732 l 1,118,-1
319 540 m 1,122,-1
 213 540 l 1,123,-1
 213 444 l 1,124,-1
 319 444 l 1,125,-1
 319 540 l 1,122,-1
426 540 m 1,126,-1
 426 444 l 1,127,-1
 532 444 l 1,128,-1
 532 540 l 1,129,-1
 426 540 l 1,126,-1
639 540 m 1,130,-1
 639 444 l 1,131,-1
 746 444 l 1,132,-1
 746 540 l 1,133,-1
 639 540 l 1,130,-1
853 540 m 1,134,-1
 853 444 l 1,135,-1
 960 444 l 1,136,-1
 960 540 l 1,137,-1
 853 540 l 1,134,-1
106 345 m 1,138,-1
 106 249 l 1,139,-1
 213 249 l 1,140,-1
 213 345 l 1,141,-1
 106 345 l 1,138,-1
532 345 m 1,142,-1
 532 249 l 1,143,-1
 639 249 l 1,144,-1
 639 345 l 1,145,-1
 532 345 l 1,142,-1
426 249 m 1,146,-1
 426 345 l 1,147,-1
 319 345 l 1,148,-1
 319 249 l 1,149,-1
 426 249 l 1,146,-1
746 345 m 1,150,-1
 746 249 l 1,151,-1
 853 249 l 1,152,-1
 853 345 l 1,153,-1
 746 345 l 1,150,-1
960 56 m 1,154,-1
 960 153 l 1,155,-1
 853 153 l 1,156,-1
 853 56 l 1,157,-1
 960 56 l 1,154,-1
746 56 m 1,158,-1
 746 153 l 1,159,-1
 639 153 l 1,160,-1
 639 56 l 1,161,-1
 746 56 l 1,158,-1
532 56 m 1,162,-1
 532 153 l 1,163,-1
 426 153 l 1,164,-1
 426 56 l 1,165,-1
 532 56 l 1,162,-1
319 56 m 1,166,-1
 319 153 l 1,167,-1
 213 153 l 1,168,-1
 213 56 l 1,169,-1
 319 56 l 1,166,-1
106 -42 m 1,170,-1
 106 -136 l 1,171,-1
 213 -136 l 1,172,-1
 213 -42 l 1,173,-1
 106 -42 l 1,170,-1
319 -42 m 1,174,-1
 319 -136 l 1,175,-1
 426 -136 l 1,176,-1
 426 -42 l 1,177,-1
 319 -42 l 1,174,-1
532 -42 m 1,178,-1
 532 -136 l 1,179,-1
 639 -136 l 1,180,-1
 639 -42 l 1,181,-1
 532 -42 l 1,178,-1
746 -42 m 1,182,-1
 746 -136 l 1,183,-1
 853 -136 l 1,184,-1
 853 -42 l 1,185,-1
 746 -42 l 1,182,-1
960 -331 m 1,186,-1
 960 -234 l 1,187,-1
 853 -234 l 1,188,-1
 853 -331 l 1,189,-1
 960 -331 l 1,186,-1
746 -331 m 1,190,-1
 746 -234 l 1,191,-1
 639 -234 l 1,192,-1
 639 -331 l 1,193,-1
 746 -331 l 1,190,-1
532 -331 m 1,194,-1
 532 -234 l 1,195,-1
 426 -234 l 1,196,-1
 426 -331 l 1,197,-1
 532 -331 l 1,194,-1
319 -331 m 1,198,-1
 319 -234 l 1,199,-1
 213 -234 l 1,200,-1
 213 -331 l 1,201,-1
 319 -331 l 1,198,-1
106 -427 m 1,202,-1
 106 -523 l 1,203,-1
 213 -523 l 1,204,-1
 213 -427 l 1,205,-1
 106 -427 l 1,202,-1
319 -427 m 1,206,-1
 319 -523 l 1,207,-1
 426 -523 l 1,208,-1
 426 -427 l 1,209,-1
 319 -427 l 1,206,-1
532 -427 m 1,210,-1
 532 -523 l 1,211,-1
 639 -523 l 1,212,-1
 639 -427 l 1,213,-1
 532 -427 l 1,210,-1
746 -427 m 1,214,-1
 746 -523 l 1,215,-1
 853 -523 l 1,216,-1
 853 -427 l 1,217,-1
 746 -427 l 1,214,-1
960 1314 m 1,218,-1
 853 1314 l 1,219,-1
 853 1216 l 1,220,-1
 960 1216 l 1,221,-1
 960 1314 l 1,218,-1
746 1314 m 1,222,-1
 639 1314 l 1,223,-1
 639 1216 l 1,224,-1
 746 1216 l 1,225,-1
 746 1314 l 1,222,-1
532 1314 m 1,226,-1
 426 1314 l 1,227,-1
 426 1216 l 1,228,-1
 532 1216 l 1,229,-1
 532 1314 l 1,226,-1
319 1314 m 1,230,-1
 213 1314 l 1,231,-1
 213 1216 l 1,232,-1
 319 1216 l 1,233,-1
 319 1314 l 1,230,-1
853 1506 m 1,234,-1
 746 1506 l 1,235,-1
 746 1408 l 1,236,-1
 853 1408 l 1,237,-1
 853 1506 l 1,234,-1
639 1506 m 1,238,-1
 532 1506 l 1,239,-1
 532 1408 l 1,240,-1
 639 1408 l 1,241,-1
 639 1506 l 1,238,-1
426 1506 m 1,242,-1
 319 1506 l 1,243,-1
 319 1408 l 1,244,-1
 426 1408 l 1,245,-1
 426 1506 l 1,242,-1
213 1506 m 1,246,-1
 106 1506 l 1,247,-1
 106 1408 l 1,248,-1
 213 1408 l 1,249,-1
 213 1506 l 1,246,-1
960 1119 m 1,250,-1
 960 1023 l 1,251,-1
 1067 1023 l 1,252,-1
 1067 1119 l 1,253,-1
 960 1119 l 1,250,-1
1173 1119 m 1,254,-1
 1173 1023 l 1,255,-1
 1280 1023 l 1,256,-1
 1280 1119 l 1,257,-1
 1173 1119 l 1,254,-1
1386 927 m 1,258,-1
 1280 927 l 1,259,-1
 1280 829 l 1,260,-1
 1386 829 l 1,261,-1
 1386 927 l 1,258,-1
1173 927 m 1,262,-1
 1067 927 l 1,263,-1
 1067 829 l 1,264,-1
 1173 829 l 1,265,-1
 1173 927 l 1,262,-1
960 732 m 1,266,-1
 960 636 l 1,267,-1
 1067 636 l 1,268,-1
 1067 732 l 1,269,-1
 960 732 l 1,266,-1
1173 732 m 1,270,-1
 1173 636 l 1,271,-1
 1280 636 l 1,272,-1
 1280 732 l 1,273,-1
 1173 732 l 1,270,-1
1173 540 m 1,274,-1
 1067 540 l 1,275,-1
 1067 444 l 1,276,-1
 1173 444 l 1,277,-1
 1173 540 l 1,274,-1
1280 540 m 1,278,-1
 1280 444 l 1,279,-1
 1386 444 l 1,280,-1
 1386 540 l 1,281,-1
 1280 540 l 1,278,-1
960 345 m 1,282,-1
 960 249 l 1,283,-1
 1067 249 l 1,284,-1
 1067 345 l 1,285,-1
 960 345 l 1,282,-1
1280 249 m 1,286,-1
 1280 345 l 1,287,-1
 1173 345 l 1,288,-1
 1173 249 l 1,289,-1
 1280 249 l 1,286,-1
1386 56 m 1,290,-1
 1386 153 l 1,291,-1
 1280 153 l 1,292,-1
 1280 56 l 1,293,-1
 1386 56 l 1,290,-1
1173 56 m 1,294,-1
 1173 153 l 1,295,-1
 1067 153 l 1,296,-1
 1067 56 l 1,297,-1
 1173 56 l 1,294,-1
960 -42 m 1,298,-1
 960 -136 l 1,299,-1
 1067 -136 l 1,300,-1
 1067 -42 l 1,301,-1
 960 -42 l 1,298,-1
1173 -42 m 1,302,-1
 1173 -136 l 1,303,-1
 1280 -136 l 1,304,-1
 1280 -42 l 1,305,-1
 1173 -42 l 1,302,-1
1386 -331 m 1,306,-1
 1386 -234 l 1,307,-1
 1280 -234 l 1,308,-1
 1280 -331 l 1,309,-1
 1386 -331 l 1,306,-1
1173 -331 m 1,310,-1
 1173 -234 l 1,311,-1
 1067 -234 l 1,312,-1
 1067 -331 l 1,313,-1
 1173 -331 l 1,310,-1
960 -427 m 1,314,-1
 960 -523 l 1,315,-1
 1067 -523 l 1,316,-1
 1067 -427 l 1,317,-1
 960 -427 l 1,314,-1
1173 -427 m 1,318,-1
 1173 -523 l 1,319,-1
 1280 -523 l 1,320,-1
 1280 -427 l 1,321,-1
 1173 -427 l 1,318,-1
1386 1314 m 1,322,-1
 1280 1314 l 1,323,-1
 1280 1216 l 1,324,-1
 1386 1216 l 1,325,-1
 1386 1314 l 1,322,-1
1173 1314 m 1,326,-1
 1067 1314 l 1,327,-1
 1067 1216 l 1,328,-1
 1173 1216 l 1,329,-1
 1173 1314 l 1,326,-1
1280 1506 m 1,330,-1
 1173 1506 l 1,331,-1
 1173 1408 l 1,332,-1
 1280 1408 l 1,333,-1
 1280 1506 l 1,330,-1
1067 1506 m 1,334,-1
 960 1506 l 1,335,-1
 960 1408 l 1,336,-1
 1067 1408 l 1,337,-1
 1067 1506 l 1,334,-1
EndSplineSet
Validated: 1
EndChar

StartChar: filledbox
Encoding: 9632 9632 371
Width: 1237
GlyphClass: 2
Flags: W
LayerCount: 2
Fore
SplineSet
123 1108 m 1,0,-1
 1114 1108 l 1,1,-1
 1114 117 l 1,2,-1
 123 117 l 1,3,-1
 123 1108 l 1,0,-1
EndSplineSet
Validated: 1
EndChar

StartChar: filledrect
Encoding: 9644 9644 372
Width: 2048
GlyphClass: 2
Flags: W
LayerCount: 2
Fore
SplineSet
0 616 m 1,0,-1
 2048 616 l 1,1,-1
 2048 0 l 1,2,-1
 0 0 l 1,3,-1
 0 616 l 1,0,-1
EndSplineSet
Validated: 1
EndChar

StartChar: triagup
Encoding: 9650 9650 373
Width: 2027
GlyphClass: 2
Flags: W
LayerCount: 2
Fore
SplineSet
414 0 m 1,0,-1
 1014 1198 l 1,1,-1
 1612 0 l 1,2,-1
 414 0 l 1,0,-1
EndSplineSet
Validated: 1
EndChar

StartChar: triagrt
Encoding: 9658 9658 374
Width: 2027
GlyphClass: 2
Flags: W
LayerCount: 2
Fore
SplineSet
401 1196 m 1,0,-1
 1626 586 l 1,1,-1
 401 -27 l 1,2,-1
 401 1196 l 1,0,-1
EndSplineSet
Validated: 1
EndChar

StartChar: triagdn
Encoding: 9660 9660 375
Width: 2027
GlyphClass: 2
Flags: W
LayerCount: 2
Fore
SplineSet
1612 1171 m 1,0,-1
 1014 -27 l 1,1,-1
 414 1171 l 1,2,-1
 1612 1171 l 1,0,-1
EndSplineSet
Validated: 1
EndChar

StartChar: triaglf
Encoding: 9668 9668 376
Width: 2027
GlyphClass: 2
Flags: W
LayerCount: 2
Fore
SplineSet
1626 1196 m 1,0,-1
 1626 -27 l 1,1,-1
 401 586 l 1,2,-1
 1626 1196 l 1,0,-1
EndSplineSet
Validated: 1
EndChar

StartChar: circle
Encoding: 9675 9675 377
Width: 1237
GlyphClass: 2
Flags: W
LayerCount: 2
Fore
SplineSet
167 612 m 256,0,1
 167 734 167 734 227 839 c 128,-1,2
 287 944 287 944 391.5 1004.5 c 128,-1,3
 496 1065 496 1065 617 1065 c 0,4,5
 739 1065 739 1065 844 1004.5 c 128,-1,6
 949 944 949 944 1009.5 838.5 c 128,-1,7
 1070 733 1070 733 1070 612 c 256,8,9
 1070 491 1070 491 1009.5 386.5 c 128,-1,10
 949 282 949 282 844.5 222 c 128,-1,11
 740 162 740 162 617 162 c 0,12,13
 495 162 495 162 391 222 c 128,-1,14
 287 282 287 282 227 386 c 128,-1,15
 167 490 167 490 167 612 c 256,0,1
253 612 m 0,16,17
 253 514 253 514 302 429.5 c 128,-1,18
 351 345 351 345 434.5 296.5 c 128,-1,19
 518 248 518 248 617 248 c 0,20,21
 715 248 715 248 799.5 296 c 128,-1,22
 884 344 884 344 934 429 c 128,-1,23
 984 514 984 514 984 612 c 256,24,25
 984 710 984 710 935 795.5 c 128,-1,26
 886 881 886 881 800.5 930 c 128,-1,27
 715 979 715 979 617 979 c 0,28,29
 520 979 520 979 435.5 930 c 128,-1,30
 351 881 351 881 302 796.5 c 128,-1,31
 253 712 253 712 253 612 c 0,16,17
EndSplineSet
Validated: 1
EndChar

StartChar: invbullet
Encoding: 9688 9688 378
Width: 1237
GlyphClass: 2
Flags: W
LayerCount: 2
Fore
SplineSet
41 0 m 1,0,-1
 41 1155 l 1,1,-1
 1196 1155 l 1,2,-1
 1196 0 l 1,3,-1
 41 0 l 1,0,-1
176 577 m 256,4,5
 176 459 176 459 235 357 c 128,-1,6
 294 255 294 255 395.5 196 c 128,-1,7
 497 137 497 137 616 137 c 0,8,9
 734 137 734 137 836.5 196 c 128,-1,10
 939 255 939 255 998 357.5 c 128,-1,11
 1057 460 1057 460 1057 577 c 0,12,13
 1057 695 1057 695 998 797.5 c 128,-1,14
 939 900 939 900 837 959 c 128,-1,15
 735 1018 735 1018 616 1018 c 0,16,17
 498 1018 498 1018 395.5 958.5 c 128,-1,18
 293 899 293 899 234.5 797 c 128,-1,19
 176 695 176 695 176 577 c 256,4,5
EndSplineSet
Validated: 1
EndChar

StartChar: invcircle
Encoding: 9689 9689 379
Width: 1237
GlyphClass: 2
Flags: W
LayerCount: 2
Fore
SplineSet
41 0 m 1,0,-1
 41 1155 l 1,1,-1
 1196 1155 l 1,2,-1
 1196 0 l 1,3,-1
 41 0 l 1,0,-1
253 577 m 256,4,5
 253 674 253 674 302 759 c 128,-1,6
 351 844 351 844 436 893 c 128,-1,7
 521 942 521 942 618 942 c 256,8,9
 715 942 715 942 800 893 c 128,-1,10
 885 844 885 844 934 759 c 128,-1,11
 983 674 983 674 983 577 c 256,12,13
 983 480 983 480 934 395 c 128,-1,14
 885 310 885 310 800 261 c 128,-1,15
 715 212 715 212 618 212 c 256,16,17
 521 212 521 212 436 261 c 128,-1,18
 351 310 351 310 302 395 c 128,-1,19
 253 480 253 480 253 577 c 256,4,5
176 577 m 256,20,21
 176 459 176 459 235 357 c 128,-1,22
 294 255 294 255 395.5 196 c 128,-1,23
 497 137 497 137 616 137 c 0,24,25
 734 137 734 137 836.5 196 c 128,-1,26
 939 255 939 255 998 357.5 c 128,-1,27
 1057 460 1057 460 1057 577 c 0,28,29
 1057 695 1057 695 998 797.5 c 128,-1,30
 939 900 939 900 837 959 c 128,-1,31
 735 1018 735 1018 616 1018 c 0,32,33
 498 1018 498 1018 395.5 958.5 c 128,-1,34
 293 899 293 899 234.5 797 c 128,-1,35
 176 695 176 695 176 577 c 256,20,21
EndSplineSet
Validated: 1
EndChar

StartChar: smileface
Encoding: 9786 9786 380
Width: 2091
GlyphClass: 2
Flags: W
LayerCount: 2
Fore
SplineSet
1657 584 m 0,0,1
 1657 330 1657 330 1477 152 c 128,-1,2
 1297 -26 1297 -26 1045 -27 c 1,3,4
 792 -27 792 -27 613 152 c 128,-1,5
 434 331 434 331 433 584 c 0,6,7
 433 834 433 834 610 1015 c 128,-1,8
 787 1196 787 1196 1045 1196 c 256,9,10
 1303 1196 1303 1196 1480 1014.5 c 128,-1,11
 1657 833 1657 833 1657 584 c 0,0,1
1567 584 m 1,12,13
 1567 801 1567 801 1414 954 c 128,-1,14
 1261 1107 1261 1107 1045 1108 c 1,15,16
 827 1108 827 1108 676 954 c 1,17,18
 523 801 523 801 523 584 c 0,19,20
 523 368 523 368 676 215 c 128,-1,21
 829 62 829 62 1045 61 c 1,22,23
 1262 61 1262 61 1414 215 c 128,-1,24
 1566 369 1566 369 1567 584 c 1,12,13
889 711 m 256,25,26
 889 679 889 679 866 656 c 128,-1,27
 843 633 843 633 811 633 c 256,28,29
 779 633 779 633 756.5 656 c 128,-1,30
 734 679 734 679 734 711 c 256,31,32
 734 743 734 743 756.5 765.5 c 128,-1,33
 779 788 779 788 811 788 c 256,34,35
 843 788 843 788 866 765.5 c 128,-1,36
 889 743 889 743 889 711 c 256,25,26
1356 711 m 256,37,38
 1356 679 1356 679 1334 656 c 128,-1,39
 1312 633 1312 633 1280 633 c 256,40,41
 1248 633 1248 633 1224.5 656 c 128,-1,42
 1201 679 1201 679 1201 711 c 256,43,44
 1201 743 1201 743 1224.5 765.5 c 128,-1,45
 1248 788 1248 788 1280 788 c 256,46,47
 1312 788 1312 788 1334 765.5 c 128,-1,48
 1356 743 1356 743 1356 711 c 256,37,38
822 422 m 1,49,50
 898 285 898 285 1045 285 c 0,51,52
 1190 285 1190 285 1266 422 c 1,53,-1
 1328 387 l 1,54,55
 1230 201 1230 201 1045 201 c 256,56,57
 860 201 860 201 762 387 c 1,58,-1
 822 422 l 1,49,50
EndSplineSet
Validated: 1
EndChar

StartChar: invsmileface
Encoding: 9787 9787 381
Width: 2155
GlyphClass: 2
Flags: W
LayerCount: 2
Fore
SplineSet
1689 584 m 0,0,1
 1689 330 1689 330 1509 152 c 128,-1,2
 1329 -26 1329 -26 1077 -27 c 1,3,4
 824 -27 824 -27 645 152 c 128,-1,5
 466 331 466 331 465 584 c 0,6,7
 465 834 465 834 642 1015 c 128,-1,8
 819 1196 819 1196 1077 1196 c 256,9,10
 1335 1196 1335 1196 1512 1014.5 c 128,-1,11
 1689 833 1689 833 1689 584 c 0,0,1
921 711 m 256,12,13
 921 743 921 743 898 765.5 c 128,-1,14
 875 788 875 788 843 788 c 256,15,16
 811 788 811 788 788.5 765.5 c 128,-1,17
 766 743 766 743 766 711 c 256,18,19
 766 679 766 679 788.5 656 c 128,-1,20
 811 633 811 633 843 633 c 256,21,22
 875 633 875 633 898 656 c 128,-1,23
 921 679 921 679 921 711 c 256,12,13
1388 711 m 256,24,25
 1388 743 1388 743 1366 765.5 c 128,-1,26
 1344 788 1344 788 1312 788 c 256,27,28
 1280 788 1280 788 1256.5 765.5 c 128,-1,29
 1233 743 1233 743 1233 711 c 256,30,31
 1233 679 1233 679 1256.5 656 c 128,-1,32
 1280 633 1280 633 1312 633 c 256,33,34
 1344 633 1344 633 1366 656 c 128,-1,35
 1388 679 1388 679 1388 711 c 256,24,25
794 387 m 1,36,37
 892 201 892 201 1077 201 c 256,38,39
 1262 201 1262 201 1360 387 c 1,40,-1
 1298 422 l 1,41,42
 1222 285 1222 285 1077 285 c 0,43,44
 930 285 930 285 854 422 c 1,45,-1
 794 387 l 1,36,37
EndSplineSet
Validated: 1
EndChar

